<?xml version="1.0" encoding="UTF-8" standalone="no"?>
<!-- Created with Inkscape (http://www.inkscape.org/) -->

<svg
   xmlns:dc="http://purl.org/dc/elements/1.1/"
   xmlns:cc="http://creativecommons.org/ns#"
   xmlns:rdf="http://www.w3.org/1999/02/22-rdf-syntax-ns#"
   xmlns:svg="http://www.w3.org/2000/svg"
   xmlns="http://www.w3.org/2000/svg"
   xmlns:xlink="http://www.w3.org/1999/xlink"
   xmlns:sodipodi="http://sodipodi.sourceforge.net/DTD/sodipodi-0.dtd"
   xmlns:inkscape="http://www.inkscape.org/namespaces/inkscape"
   width="186.92799mm"
   height="131.175mm"
   viewBox="0 0 186.92799 131.175"
   version="1.1"
   id="svg87"
   inkscape:version="0.92.1 r15371"
   sodipodi:docname="registration-confirmation.svg">
  <defs
     id="defs81">
    <linearGradient
       inkscape:collect="always"
       id="linearGradient1008">
      <stop
         style="stop-color:#1a1a1a;stop-opacity:1;"
         offset="0"
         id="stop1004" />
      <stop
         style="stop-color:#1a1a1a;stop-opacity:0;"
         offset="1"
         id="stop1006" />
    </linearGradient>
    <filter
       inkscape:collect="always"
       style="color-interpolation-filters:sRGB"
       id="filter7951-4"
       x="-0.011189378"
       width="1.0223788"
       y="-0.012937248"
       height="1.0258745">
      <feGaussianBlur
         inkscape:collect="always"
         stdDeviation="0.24060028"
         id="feGaussianBlur7953-0" />
    </filter>
    <linearGradient
       inkscape:collect="always"
       xlink:href="#linearGradient1008"
       id="linearGradient1010"
       x1="-65.07753"
       y1="26.419727"
       x2="-66.114243"
       y2="171.56258"
       gradientUnits="userSpaceOnUse"
       gradientTransform="matrix(1.0000126,0,0,0.99921613,68.000927,88.750791)" />
  </defs>
  <sodipodi:namedview
     id="base"
     pagecolor="#ffffff"
     bordercolor="#666666"
     borderopacity="1.0"
     inkscape:pageopacity="0.0"
     inkscape:pageshadow="2"
     inkscape:zoom="0.7"
     inkscape:cx="25.861401"
     inkscape:cy="503.58779"
     inkscape:document-units="mm"
     inkscape:current-layer="layer1"
     showgrid="false"
     inkscape:window-width="1855"
     inkscape:window-height="1056"
     inkscape:window-x="65"
     inkscape:window-y="24"
     inkscape:window-maximized="1" />
  <metadata
     id="metadata84">
    <rdf:RDF>
      <cc:Work
         rdf:about="">
        <dc:format>image/svg+xml</dc:format>
        <dc:type
           rdf:resource="http://purl.org/dc/dcmitype/StillImage" />
        <dc:title></dc:title>
      </cc:Work>
    </rdf:RDF>
  </metadata>
  <g
     inkscape:label="Calque 1"
     inkscape:groupmode="layer"
     id="layer1"
     transform="translate(0,-165.825)">
    <g
       id="g1212"
       transform="matrix(1.0401308,0,0,1.0401308,53.647183,-16.978002)">
      <ellipse
         ry="59.910831"
         rx="59.958588"
         cy="238.97112"
         cx="11.283331"
         id="path142-3-7"
         style="fill:#cccccc;fill-opacity:1;stroke-width:0.37810472" />
      <ellipse
         ry="59.910831"
         rx="59.958588"
         cy="239.02881"
         cx="11.475762"
         id="path142-3"
         style="fill:url(#linearGradient1010);fill-opacity:1;stroke-width:0.37810472" />
    </g>
    <g
       id="g122"
       transform="translate(137.96444,85.339309)">
      <ellipse
         style="fill:#be997a;fill-opacity:1;fill-rule:evenodd;stroke:#000000;stroke-width:0.33590728;stroke-linecap:round;stroke-linejoin:round;stroke-miterlimit:4;stroke-dasharray:none;stroke-dashoffset:0;stroke-opacity:1"
         id="path7002-6-6-8"
         transform="matrix(-0.89186324,0.45230516,0.62962415,0.77689989,0,0)"
         cx="184.30403"
         cy="133.44327"
         rx="1.6229686"
         ry="1.6562877" />
      <path
         style="fill:#d45500;fill-opacity:1;stroke:#000000;stroke-width:0.33217549px;stroke-linecap:butt;stroke-linejoin:miter;stroke-opacity:1"
         d="m -77.733049,174.90346 c -3.31236,-0.44757 -4.29719,7.78803 -4.74476,11.09947 -0.26818,1.70058 6.35564,2.50694 6.62381,0.89515 0.35878,-3.31146 1.4324,-11.54706 -1.87905,-11.99462 z"
         id="path7004-7-2-5"
         inkscape:connector-curvature="0"
         sodipodi:nodetypes="cccc"
         inkscape:transform-center-y="28.568747"
         inkscape:transform-center-x="8.543568" />
      <rect
         style="fill:#253936;fill-opacity:1;stroke:#000000;stroke-width:0.28450039;stroke-miterlimit:4;stroke-dasharray:none;stroke-opacity:1"
         id="rect7006-5-6-0"
         width="8.5858717"
         height="10.991945"
         x="-68.022926"
         y="182.66737"
         rx="4.2079029"
         ry="0.68287724"
         transform="rotate(0.67610612)" />
      <rect
         transform="rotate(0.67610612)"
         ry="0.68287724"
         rx="4.2079029"
         y="182.75703"
         x="-76.615395"
         height="10.991945"
         width="8.5858717"
         id="rect7010-5-1-9"
         style="fill:#253936;fill-opacity:1;stroke:#000000;stroke-width:0.28450039;stroke-miterlimit:4;stroke-dasharray:none;stroke-opacity:1" />
      <ellipse
         transform="matrix(0.89186324,0.45230516,-0.62962415,0.77689989,0,0)"
         id="path7058-2-8-6"
         style="fill:#be997a;fill-opacity:1;fill-rule:evenodd;stroke:#000000;stroke-width:0.33590728;stroke-linecap:round;stroke-linejoin:round;stroke-miterlimit:4;stroke-dasharray:none;stroke-dashoffset:0;stroke-opacity:1"
         cx="72.71302"
         cy="198.41071"
         rx="1.6229686"
         ry="1.6562877" />
      <path
         inkscape:transform-center-x="8.5435766"
         inkscape:transform-center-y="28.568747"
         sodipodi:nodetypes="cccc"
         inkscape:connector-curvature="0"
         id="path7060-9-7-3"
         d="m -62.695069,174.90346 c 3.31237,-0.44757 4.29629,7.78803 4.74385,11.09947 0.2691,1.70058 -6.35473,2.50694 -6.62381,0.89515 -0.35788,-3.31146 -1.43239,-11.54706 1.87996,-11.99462 z"
         style="fill:#d45500;fill-opacity:1;stroke:#000000;stroke-width:0.33214206;stroke-linecap:butt;stroke-linejoin:miter;stroke-miterlimit:4;stroke-dasharray:none;stroke-opacity:1" />
      <path
         style="fill:#d45500;fill-opacity:1;fill-rule:evenodd;stroke:#000000;stroke-width:0.33214206;stroke-linecap:round;stroke-linejoin:round;stroke-miterlimit:4;stroke-dasharray:none;stroke-dashoffset:0;stroke-opacity:1"
         d="m -70.124319,170.96504 c 0,0 0,0 -0.0897,0 0,0 0,0 0,0 -0.0897,0 -0.0897,0 -0.0897,0 v 0 c -2.05844,0.17849 -4.0282,1.34271 -5.2812,2.86389 -2.77511,3.22267 -3.84962,7.51985 -3.93841,11.63676 0.0888,1.07451 -0.0897,2.32752 0.35787,3.22267 1.61088,0.98482 4.56537,1.1642 6.5342,1.34269 0.53727,0.0896 1.43241,0.0896 2.32754,0.0896 v 0 c 0.0897,0 0.17939,0 0.26817,0 0,0 0,0 0,0 0.89513,0 1.79028,0 2.32753,-0.0896 1.96967,-0.17849 4.83355,-0.35787 6.53503,-1.34269 0.44757,-0.89515 0.2682,-2.14816 0.2682,-3.22267 -0.0896,-4.11691 -1.07453,-8.41409 -3.84873,-11.63676 -1.25392,-1.52118 -3.22267,-2.6854 -5.28203,-2.86389 v 0 c 0,0 0,0 -0.0888,0 z"
         id="path7014-1-9-8"
         inkscape:connector-curvature="0" />
      <rect
         rx="42.323956"
         ry="32.554485"
         y="111.71483"
         x="-114.84995"
         height="65.095016"
         width="84.647911"
         id="rect7020-2-2-5"
         style="fill:#f4daca;fill-opacity:1;fill-rule:evenodd;stroke:#000000;stroke-width:0.49564648;stroke-linecap:round;stroke-linejoin:round;stroke-miterlimit:4;stroke-dasharray:none;stroke-dashoffset:0;stroke-opacity:1" />
      <path
         sodipodi:nodetypes="cc"
         inkscape:connector-curvature="0"
         id="path7026-9-0-6"
         d="m -79.154979,160.63314 c 3.96441,2.48878 7.55686,6.18646 14.11277,0.25288"
         style="fill:none;stroke:#000000;stroke-width:1.95316303;stroke-linecap:round;stroke-linejoin:round;stroke-miterlimit:4;stroke-dasharray:none;stroke-opacity:1" />
      <path
         style="fill:#1a1a1a;fill-opacity:1;stroke-width:0.35403314"
         inkscape:connector-curvature="0"
         d="m -41.504559,100.01406 c 1.02315,-0.332781 2.03569,-0.810741 2.76499,-1.625011 0.0708,0.63726 0.0389,1.2993 -0.18764,1.908241 -0.33632,0.9311 -0.93465,1.7383 -1.54004,2.51009 0.43546,-0.0956 0.88508,-0.15223 1.30639,-0.28676 1.44798,-0.42484 2.89598,-0.85676 4.3475,-1.28869 0.58064,1.03025 0.7187,2.24104 0.79306,3.39518 0.0532,1.27452 0.006,2.55967 -0.11334,3.83772 -0.131,1.33116 -0.29739,2.66587 -0.65851,3.96164 -0.49564,1.86221 -1.38072,3.59343 -1.81973,5.46981 1.37719,1.10458 2.46406,2.52779 3.33854,4.05013 1.10812,1.95781 1.88346,4.08556 2.43928,6.25223 0.62665,2.45345 0.98422,4.97771 1.13999,7.50197 0.15933,2.634 0.0886,5.28571 -0.21243,7.90555 -0.24781,2.09942 -0.63725,4.18468 -1.23202,6.21684 -0.12391,0.34695 -0.2018,0.71159 -0.36111,1.04792 -0.32217,-1.14352 -0.67267,-2.28705 -1.05502,-3.41287 -0.0177,-0.0566 -0.0389,-0.10973 -0.0531,-0.16286 -0.0532,-0.15931 -0.10973,-0.32217 -0.16639,-0.47795 -0.10268,-0.31155 -0.20181,-0.61956 -0.3328,-0.92402 -0.10971,-0.34695 -0.23719,-0.69037 -0.37527,-1.02669 -0.0532,-0.14162 -0.0991,-0.28677 -0.16641,-0.42839 -0.0495,-0.14516 -0.0956,-0.2903 -0.15931,-0.42837 -0.0355,-0.0921 -0.0744,-0.18411 -0.10972,-0.27616 -0.34341,-0.85321 -0.69036,-1.70643 -1.08688,-2.54196 -0.085,-0.2372 -0.21242,-0.46378 -0.32217,-0.69743 -0.0389,-0.0744 -0.0779,-0.1487 -0.11333,-0.21952 -0.18765,-0.44607 -0.39652,-0.88507 -0.64081,-1.29574 -0.0389,-0.0744 -0.0779,-0.14516 -0.10973,-0.21597 -0.12737,-0.24074 -0.22657,-0.48503 -0.37881,-0.70453 -0.0779,-0.16638 -0.16639,-0.33632 -0.26905,-0.48503 -0.0495,-0.0956 -0.10624,-0.18764 -0.15933,-0.2726 -0.0673,-0.12739 -0.13453,-0.26198 -0.21595,-0.37526 -0.0636,-0.12043 -0.131,-0.2266 -0.19826,-0.33635 -0.0602,-0.0956 -0.11334,-0.18763 -0.16994,-0.28676 -0.0141,-0.0177 -0.0531,-0.0566 -0.0708,-0.0744 -0.0815,-0.1841 -0.20535,-0.34696 -0.3151,-0.51335 -0.17701,-0.27614 -0.36818,-0.54167 -0.53458,-0.81782 -0.0177,-0.0177 -0.0531,-0.0566 -0.0708,-0.0744 -0.0921,-0.15931 -0.20888,-0.31154 -0.31154,-0.46377 -0.2018,-0.29032 -0.42838,-0.57355 -0.65142,-0.85677 -0.12043,-0.17348 -0.25845,-0.31863 -0.37527,-0.49211 -0.0956,-0.10269 -0.20535,-0.2018 -0.27261,-0.33278 -0.18056,-0.16641 -0.30447,-0.38591 -0.49211,-0.54876 -0.15578,-0.14868 -0.26553,-0.34696 -0.42839,-0.49565 -0.57352,-0.54167 -1.0975,-1.14352 -1.70643,-1.63917 -0.55229,-0.49919 -1.13291,-0.96296 -1.74539,-1.38073 -0.0177,-0.0141 -0.0566,-0.0461 -0.0744,-0.0602 -0.22657,-0.13453 -0.44252,-0.28323 -0.6585,-0.43192 -0.20179,-0.1239 -0.4036,-0.25845 -0.61602,-0.3682 -0.0779,-0.0566 -0.16993,-0.10972 -0.26198,-0.16286 -0.0744,-0.0318 -0.15224,-0.0673 -0.23013,-0.10258 -0.0177,-0.0177 -0.0532,-0.0566 -0.0744,-0.0708 -0.37173,-0.17348 -0.72223,-0.38589 -1.10104,-0.52751 -0.15578,-0.0815 -0.32216,-0.15577 -0.48502,-0.21596 -0.0921,-0.0389 -0.18409,-0.0744 -0.26907,-0.11334 -2.30476,-0.91695 -4.81131,-1.32409 -7.28953,-1.27452 -3.49077,0.085 -6.9249,0.97359 -10.15722,2.25518 -0.56292,0.20535 -1.11167,0.44962 -1.66395,0.67975 l -0.004,0.0247 c -0.16286,0.0461 -0.32572,0.12391 -0.47796,0.19119 l -0.0107,0.0212 c -0.29384,0.0991 -0.5629,0.25139 -0.83198,0.39654 -0.0248,-0.006 -0.0673,-0.006 -0.0885,-0.0107 v 0.0779 c -0.0248,-0.0141 -0.0813,-0.0284 -0.10624,-0.0355 l 0.004,0.0602 c -0.41776,0.14515 -0.79657,0.38235 -1.19309,0.56999 v 0.0566 c -0.0248,-0.006 -0.0814,-0.0284 -0.10975,-0.0355 v 0.085 c -0.0284,-0.006 -0.0814,-0.0212 -0.1062,-0.0284 l -0.003,0.0815 c -0.0248,-0.004 -0.0743,-0.0142 -0.10268,-0.0213 l -0.007,0.0496 c -0.2726,0.1203 -0.5346,0.2726 -0.80366,0.41068 l -0.0106,0.0248 c -0.0991,0.0355 -0.19471,0.0779 -0.29384,0.10624 0.11329,-0.47795 0.2903,-0.9382 0.39298,-1.41614 0.17347,-0.70806 0.35757,-1.43383 0.32571,-2.17022 -0.0212,-0.41422 -0.20889,-0.85323 -0.5877,-1.06564 -0.29385,-0.12043 -0.61956,-0.17347 -0.92757,-0.11334 -0.76117,0.0815 -1.49402,0.32217 -2.21624,0.5452 -2.34371,0.74348 -4.70865,1.55068 -7.17626,1.74894 -0.29031,0.004 -0.57353,0.0636 -0.86738,0.0531 -0.35404,-0.0107 -0.71161,0.0602 -1.07626,0.0531 -0.40006,0.0177 -0.79303,-0.004 -1.19698,0.0495 -0.62665,0.0212 -1.26036,-0.006 -1.88701,0.0531 -1.17893,0.0284 -2.35431,-0.0141 -3.52263,0.0566 -1.13998,-0.004 -2.27288,0.006 -3.40579,0.0247 -0.70807,0.0673 -1.41968,0.0142 -2.11711,0.0566 -0.48858,0.0636 -0.9736,0.006 -1.45155,0.0673 -2.23748,0.10972 -4.496221,0.33632 -6.631031,1.04439 -0.65851,0.24428 -1.32055,0.52044 -1.92594,0.88154 -0.2018,0.12042 -0.39299,0.25491 -0.59832,0.38236 -0.21243,0.14869 -0.41776,0.31156 -0.6231,0.4744 -1.16477,0.9559 -2.03215,2.22687 -2.68004,3.57575 -0.77179,1.62146 -1.26389,3.3633 -1.64979,5.11931 -0.74701,3.56865 -1.06564,7.21165 -1.2993,10.84404 -0.0425,-0.0424 -0.0709,-0.0815 -0.0956,-0.13808 -0.57353,-1.60376 -1.14353,-3.20753 -1.72768,-4.81132 -0.0248,-0.0531 -0.0425,-0.10624 -0.0673,-0.15576 -0.0637,-0.20534 -0.12388,-0.40714 -0.21594,-0.59477 -0.22304,-0.66914 -0.47795,-1.32056 -0.71869,-1.97904 -0.92048,-2.73669 -1.47985,-5.60082 -1.60731,-8.48619 -0.0496,-0.82844 -0.0213,-1.66396 -0.0141,-2.49239 0.0495,-0.35405 0.0318,-0.71869 0.0743,-1.08334 0.16639,-2.24812 0.63726,-4.48915 1.40197,-6.61335 0.0602,-0.14869 0.11329,-0.28676 0.16285,-0.43192 0.0354,-0.0921 0.0743,-0.18054 0.10975,-0.2726 0.0389,-0.0885 0.0779,-0.17702 0.10975,-0.26907 0.0566,-0.12738 0.10975,-0.25136 0.15933,-0.38236 0.0991,-0.21241 0.20178,-0.41776 0.29738,-0.63371 0.93819,-1.93302 2.15252,-3.73151 3.63946,-5.27863 1.3524,-1.4126 2.90661,-2.61277 4.59889,-3.58637 0.49919,-0.29383 1.01961,-0.54873 1.55421,-0.77886 0.73638,-0.31864 1.52942,-0.60186 2.09233,-1.19665 0.33633,-0.32924 0.56999,-0.74701 0.80012,-1.15414 1.1329,-1.58961 2.570281,-2.9491 4.159891,-4.06429 1.74539,-1.21788 3.6784,-2.14898 5.67515,-2.86767 2.22333,-0.8072 4.53516,-1.35242 6.86116,-1.74893 4.42224,-0.75055 8.90784,-0.95942 13.37927,-0.99129 6.23098,-0.0355 12.44781,0.3434 18.67526,0.46733 2.63754,0.0318 5.28925,0.0532 7.91262,-0.20534 1.34533,-0.13454 2.69067,-0.33987 3.98289,-0.74701 z"
         id="path5-2-1" />
      <g
         id="g4583-3-1"
         transform="matrix(0.09060067,0,0,0.09060067,-473.74888,365.49794)">
        <path
           style="fill:#e3dbdb;fill-opacity:1;stroke:#000000;stroke-width:3.5999999;stroke-linecap:round;stroke-linejoin:round;stroke-miterlimit:4;stroke-dasharray:none;stroke-opacity:1"
           d="m 4408.7,-1932.51 c 22.16,0 40.29,14.65 42.5,33.56 -2.18,3.51 -20.31,6.22 -42.5,6.22 h -0.56 c -22.19,0 -40.32,-2.71 -42.5,-6.22 2.21,-18.91 20.34,-33.56 42.5,-33.56 z"
           id="rect4016-3-7-7-5"
           inkscape:connector-curvature="0" />
        <path
           style="fill:#a5514d;fill-opacity:1;stroke:#000000;stroke-width:3.5999999;stroke-miterlimit:4;stroke-dasharray:none;stroke-opacity:1"
           d="m 4408.12,-1931.97 c 18.05,0 33.41,9.71 39.69,23.53 -8.35,2.06 -22.25,3.53 -38.13,3.72 l -1.87,0.03 c -17.17,0.2 -32.09,-1.14 -40.16,-3.28 6.14,-14.07 21.66,-24 39.91,-24 z"
           id="rect7010-5-0-5-9"
           inkscape:connector-curvature="0" />
        <path
           style="fill:#000000;fill-opacity:0.2;stroke:#000000;stroke-width:3.5999999;stroke-linecap:round;stroke-linejoin:round;stroke-miterlimit:4;stroke-dasharray:none;stroke-opacity:1"
           d="m 4408.37,-1932.65 c 3.96,0 7.78,0.48 11.42,1.35 -6.09,10.3 -11.2,18.64 -11.7,18.64 -0.52,0 -5.63,-8.34 -11.71,-18.64 3.62,-0.87 7.47,-1.35 11.42,-1.35 z"
           id="rect4016-3-7-5-9-8"
           inkscape:connector-curvature="0" />
      </g>
      <g
         id="g4578-2-4"
         transform="matrix(0.09060067,0,0,0.09060067,-473.74888,365.49794)">
        <path
           inkscape:connector-curvature="0"
           id="path4424-2-8"
           d="m 4506.14,-1932.51 c -22.16,0 -40.29,14.65 -42.5,33.56 2.18,3.51 20.31,6.22 42.5,6.22 h 0.56 c 22.19,0 40.32,-2.71 42.5,-6.22 -2.21,-18.91 -20.34,-33.56 -42.5,-33.56 z"
           style="fill:#e3dbdb;fill-opacity:1;stroke:#000000;stroke-width:3.5999999;stroke-linecap:round;stroke-linejoin:round;stroke-miterlimit:4;stroke-dasharray:none;stroke-opacity:1" />
        <path
           inkscape:connector-curvature="0"
           id="path4426-8-1"
           d="m 4506.72,-1931.97 c -18.05,0 -33.41,9.71 -39.69,23.53 8.35,2.06 22.25,3.53 38.13,3.72 l 1.87,0.03 c 17.17,0.2 32.09,-1.14 40.16,-3.28 -6.14,-14.07 -21.66,-24 -39.91,-24 z"
           style="fill:#a5514d;fill-opacity:1;stroke:#000000;stroke-width:3.5999999;stroke-miterlimit:4;stroke-dasharray:none;stroke-opacity:1" />
        <path
           inkscape:connector-curvature="0"
           id="path4428-9-0"
           d="m 4506.47,-1932.65 c -3.96,0 -7.78,0.48 -11.42,1.35 6.09,10.3 11.2,18.64 11.7,18.64 0.52,0 5.63,-8.34 11.71,-18.64 -3.62,-0.87 -7.47,-1.35 -11.42,-1.35 z"
           style="fill:#000000;fill-opacity:0.2;stroke:#000000;stroke-width:3.5999999;stroke-linecap:round;stroke-linejoin:round;stroke-miterlimit:4;stroke-dasharray:none;stroke-opacity:1" />
      </g>
      <g
         style="fill:#6c5d53"
         transform="matrix(0.35403315,0,0,0.35403315,-1761.6295,909.65462)"
         id="g4896-7-3">
        <path
           id="path7-3-0"
           d="m 4692.82,-2185.72 c 7.15,-0.33 14.3,-0.51 21.47,-0.54 3.63,-0.07 7.24,0.02 10.88,0.05 6.38,0.13 12.81,0.34 19.16,1.02 2.88,0.29 5.71,0.85 8.42,1.78 2.88,0.98 5.57,2.33 8.42,3.37 5.06,1.91 10.73,2.12 15.92,0.63 2.84,-0.84 5.47,-2.13 8.2,-3.21 2.47,-1 5.09,-1.75 7.73,-2.19 2.94,-0.46 5.88,-0.7 8.87,-0.9 6.96,-0.44 13.94,-0.54 20.91,-0.58 13.85,0.05 27.7,0.44 41.48,1.72 4.32,0.43 8.65,0.93 12.89,1.88 -0.17,5.79 -0.32,11.6 -0.95,17.37 -0.17,1.45 -0.38,2.91 -0.82,4.3 -0.24,0.71 -0.6,1.45 -1.29,1.8 -0.69,0.32 -1.47,0.27 -2.19,0.51 -1.13,0.37 -2.01,1.26 -2.68,2.18 -1.12,1.59 -1.91,3.36 -2.64,5.12 -0.82,2.07 -1.42,4.2 -2.07,6.31 -0.61,2.02 -1.33,4.06 -2.57,5.79 -0.91,1.24 -1.95,2.42 -3.3,3.18 -0.56,0.34 -1.19,0.6 -1.77,0.89 -3.99,1.57 -8.22,2.3 -12.44,2.9 -5.92,0.83 -11.95,1.21 -17.94,1.32 -1.74,0.07 -3.44,0.07 -5.17,0.01 -6.41,-0.12 -12.86,-0.55 -19.19,-1.71 -2.86,-0.54 -5.7,-1.23 -8.39,-2.35 -1.76,-0.77 -3.54,-1.73 -4.71,-3.27 -1.64,-2.26 -2.86,-4.76 -3.78,-7.35 -0.91,-2.47 -1.57,-5.01 -2.51,-7.47 -0.74,-1.88 -1.72,-3.71 -3.08,-5.24 -0.82,-0.78 -1.56,-1.67 -2.51,-2.3 -0.18,-0.15 -0.35,-0.28 -0.53,-0.4 -0.37,-0.31 -0.77,-0.54 -1.19,-0.79 -0.29,-0.22 -0.63,-0.41 -0.94,-0.55 -0.92,-0.59 -1.96,-1.03 -2.94,-1.49 -0.84,-0.01 -1.71,0 -2.54,0 -0.47,-0.03 -0.9,0.23 -1.33,0.39 -0.67,0.35 -1.4,0.66 -2.06,1.1 -0.32,0.14 -0.62,0.32 -0.91,0.5 -0.94,0.55 -1.8,1.21 -2.61,1.89 -0.87,0.88 -1.81,1.69 -2.48,2.7 -1.3,1.76 -2.16,3.8 -2.83,5.83 -0.89,2.58 -1.61,5.2 -2.65,7.72 -0.82,1.95 -1.86,3.82 -3.11,5.52 -1.38,1.72 -3.4,2.72 -5.4,3.51 -2.89,1.14 -5.96,1.8 -9.03,2.3 -6.58,1.1 -13.27,1.44 -19.93,1.49 -6.77,-0.03 -13.55,-0.36 -20.26,-1.26 -3.24,-0.44 -6.44,-1.01 -9.6,-1.86 -2.15,-0.61 -4.36,-1.3 -6.22,-2.6 -1.99,-1.59 -3.4,-3.83 -4.28,-6.21 -0.97,-2.61 -1.57,-5.3 -2.57,-7.92 -0.84,-2.13 -1.75,-4.29 -3.22,-6.1 -0.54,-0.78 -1.32,-1.33 -2.17,-1.68 -0.82,-0.25 -1.7,-0.29 -2.51,-0.55 -0.35,-0.33 -0.65,-0.68 -0.91,-1.1 -0.2,-0.51 -0.41,-1.03 -0.53,-1.58 -0.49,-2.3 -0.73,-4.62 -0.86,-6.94 -0.17,-0.77 -0.06,-1.58 -0.18,-2.35 -0.08,-0.79 -0.01,-1.59 -0.15,-2.39 -0.06,-0.97 -0.03,-1.97 -0.06,-2.94 -0.12,-1.19 -0.06,-2.39 -0.13,-3.6 -0.03,-0.86 -0.07,-1.75 -0.06,-2.63 3.22,-0.73 6.52,-1.17 9.8,-1.54 6.66,-0.74 13.35,-1.17 20.04,-1.49 m 4.24,4.21 c -3.22,0.22 -6.44,0.6 -9.53,1.6 -1.57,0.52 -3.09,1.25 -4.46,2.18 l 0.01,0.09 c -0.36,0.2 -0.68,0.43 -0.97,0.74 -0.45,0.45 -0.97,0.88 -1.34,1.43 -0.29,0.32 -0.55,0.64 -0.78,1 -1.58,2.36 -2.29,5.16 -2.55,7.92 -0.33,3.43 -0.09,6.89 0.39,10.28 0.63,4.46 1.9,8.96 4.57,12.64 1.47,2.05 3.38,3.75 5.59,5.01 4.11,2.39 8.9,3.28 13.59,3.73 3.52,0.35 7.06,0.42 10.59,0.43 3.79,-0.01 7.55,-0.01 11.32,-0.16 3.16,-0.04 6.34,-0.21 9.49,-0.57 2.72,-0.34 5.43,-0.81 7.96,-1.8 1.9,-0.73 3.71,-1.75 5.18,-3.15 2.08,-1.89 3.53,-4.36 4.55,-6.92 0.94,-2.35 1.62,-4.73 2.15,-7.19 0.09,-0.39 0.18,-0.78 0.26,-1.19 0.57,-2.79 1.1,-5.59 1.24,-8.44 -0.03,-2.77 -0.48,-5.61 -1.86,-8.07 -0.09,-0.1 -0.17,-0.23 -0.25,-0.34 -0.4,-0.73 -0.9,-1.4 -1.49,-1.98 -0.25,-0.39 -0.57,-0.76 -1.01,-1 l 0.05,-0.03 c -0.29,-0.22 -0.55,-0.45 -0.84,-0.61 l 0.05,-0.09 c -0.18,-0.09 -0.38,-0.22 -0.57,-0.3 l 0.01,-0.07 c -0.84,-0.56 -1.68,-1.1 -2.6,-1.55 -0.4,-0.18 -0.78,-0.36 -1.21,-0.53 -0.22,-0.09 -0.42,-0.18 -0.64,-0.25 -3.73,-1.43 -7.71,-2.05 -11.63,-2.45 -3.27,-0.29 -6.55,-0.46 -9.82,-0.46 -1.41,-0.07 -2.82,-0.03 -4.24,-0.05 -3.98,-0.01 -7.94,-0.04 -11.93,-0.05 -3.1,0 -6.19,-0.01 -9.28,0.2 m 107.34,0.8 c -2.79,0.4 -5.57,0.97 -8.2,2.02 -0.22,0.07 -0.45,0.15 -0.64,0.25 -0.52,0.2 -1,0.44 -1.47,0.68 -1.1,0.51 -2.1,1.21 -3.06,1.93 -0.15,0.13 -0.29,0.29 -0.44,0.41 -0.38,0.29 -0.74,0.61 -1.1,0.96 -0.01,0.07 -0.04,0.17 -0.06,0.22 -0.34,0.23 -0.57,0.53 -0.8,0.87 l -0.04,0.01 c -0.88,1.18 -1.57,2.49 -2.01,3.88 -0.93,2.89 -0.93,5.99 -0.49,8.96 0.39,2.53 0.86,5.05 1.48,7.54 0.64,2.57 1.41,5.1 2.57,7.5 1.03,2.13 2.39,4.14 4.19,5.68 1.43,1.24 3.12,2.17 4.88,2.83 2.6,0.99 5.34,1.47 8.1,1.79 3.08,0.35 6.16,0.51 9.26,0.56 3.85,0.15 7.69,0.15 11.54,0.16 3.3,0 6.62,-0.08 9.91,-0.37 4.35,-0.4 8.75,-1.12 12.73,-3.05 3.54,-1.69 6.53,-4.51 8.34,-7.99 0.27,-0.46 0.52,-0.89 0.67,-1.4 h 0.05 c 1.72,-3.9 2.46,-8.13 2.82,-12.34 0.16,-0.98 0.06,-1.97 0.17,-2.93 0.07,-0.69 0.07,-1.4 -0.04,-2.1 -0.06,-2.64 -0.48,-5.36 -1.57,-7.78 -0.18,-0.53 -0.46,-1.01 -0.74,-1.47 -0.66,-1.18 -1.55,-2.21 -2.55,-3.12 -0.13,-0.08 -0.26,-0.16 -0.36,-0.27 -0.56,-0.48 -1.15,-0.86 -1.75,-1.26 -0.03,0 -0.09,0 -0.12,-0.01 -0.44,-0.3 -0.93,-0.53 -1.44,-0.74 -2.37,-1.03 -4.91,-1.55 -7.46,-1.87 -3.46,-0.45 -6.96,-0.55 -10.45,-0.55 -3.88,-0.01 -7.77,0.03 -11.65,0.04 -6.77,0.04 -13.56,-0.02 -20.27,0.96 z"
           inkscape:connector-curvature="0"
           style="fill:#6c5d53;fill-opacity:1" />
        <path
           sodipodi:nodetypes="cccc"
           inkscape:connector-curvature="0"
           id="use4172-6-4"
           d="m 4672.03,-2181.5 -23.25,1.66 v 7.91 l 24.44,3.21"
           style="fill:#6c5d53;fill-opacity:1;stroke:none" />
        <path
           style="fill:#6c5d53;fill-opacity:1;stroke:none"
           d="m 4869.31,-2181.5 23.24,1.66 v 7.91 l -24.43,3.21"
           id="use4430-1-4"
           inkscape:connector-curvature="0"
           sodipodi:nodetypes="cccc" />
      </g>
      <path
         inkscape:connector-curvature="0"
         id="path7024-0-3-2-4"
         d="m -54.710029,142.89982 a 5.764226,5.764226 0 0 0 -5.76435,5.7641 5.764226,5.764226 0 0 0 0.22354,1.5818 5.764226,5.764226 0 0 1 -10e-4,-0.025 5.764226,5.764226 0 0 1 5.7641,-5.76408 5.764226,5.764226 0 0 1 5.54081,4.18229 5.764226,5.764226 0 0 0 -5.76313,-5.73904 z"
         style="fill:#000000;fill-opacity:1;fill-rule:evenodd;stroke:none;stroke-width:2.30569029" />
      <path
         inkscape:connector-curvature="0"
         id="path7024-0-3-7-9-4"
         d="m -93.272669,142.70848 a 5.764226,5.764226 0 0 0 -5.76434,5.7641 5.764226,5.764226 0 0 0 0.22353,1.58181 5.764226,5.764226 0 0 1 -0.001,-0.025 5.764226,5.764226 0 0 1 5.7641,-5.76411 5.764226,5.764226 0 0 1 5.5408,4.1823 5.764226,5.764226 0 0 0 -5.76312,-5.73903 z"
         style="fill:#000000;fill-opacity:1;fill-rule:evenodd;stroke:none;stroke-width:2.30569029" />
    </g>
    <g
       id="g7981"
       transform="matrix(1.9027408,0,0,1.9012254,24.910563,-156.22558)">
      <path
         transform="matrix(-0.86437753,0,0,0.87932215,114.31398,131.6556)"
         inkscape:connector-curvature="0"
         id="path7654-4-0-5"
         d="M 57.591837,44.139426 A 23.653353,22.317005 0 0 0 33.9385,66.456408 23.653353,22.317005 0 0 0 57.591837,88.773393 23.653353,22.317005 0 0 0 71.623017,84.391748 l 13.92163,0.853178 -5.90816,-10.76575 a 23.653353,22.317005 0 0 0 1.60869,-8.022768 23.653353,22.317005 0 0 0 -23.65334,-22.316982 z"
         style="opacity:0.244;fill:#4d4d4d;fill-opacity:1;stroke-width:0.39616153;stroke-miterlimit:4;stroke-dasharray:none;filter:url(#filter7951-4)" />
      <path
         inkscape:connector-curvature="0"
         id="path7654-9-9"
         d="m 64.686531,170.75045 a 19.880126,18.756954 0 0 1 19.880111,18.75693 19.880126,18.756954 0 0 1 -19.880111,18.75693 19.880126,18.756954 0 0 1 -11.792904,-3.68268 l -11.700826,0.71709 4.965685,-9.04838 a 19.880126,18.756954 0 0 1 -1.352067,-6.74296 19.880126,18.756954 0 0 1 19.880112,-18.75693 z"
         style="opacity:1;fill:#ffffff;fill-opacity:1;stroke-width:0.33296511;stroke-miterlimit:4;stroke-dasharray:none" />
    </g>
    <rect
       id="rect124-3"
       width="5.7802677"
       height="48.426823"
       x="251.35858"
       y="13.774285"
       style="fill:#5aa02c;stroke-width:0.14258562"
       ry="3.2612975"
       transform="matrix(0.71617736,0.69791832,-0.71974767,0.69423576,0,0)"
       rx="2.8901339" />
    <rect
       style="fill:#5aa02c;stroke-width:0.17065251"
       id="rect152"
       width="5.3810658"
       height="26.905327"
       x="80.657539"
       y="220.97275"
       rx="2.8901274"
       ry="2.8148034"
       transform="rotate(-13.569006)" />
  </g>
</svg>
