<?xml version="1.0" encoding="UTF-8" standalone="no"?>
<!-- Created with Inkscape (http://www.inkscape.org/) -->

<svg
   xmlns:dc="http://purl.org/dc/elements/1.1/"
   xmlns:cc="http://creativecommons.org/ns#"
   xmlns:rdf="http://www.w3.org/1999/02/22-rdf-syntax-ns#"
   xmlns:svg="http://www.w3.org/2000/svg"
   xmlns="http://www.w3.org/2000/svg"
   xmlns:xlink="http://www.w3.org/1999/xlink"
   xmlns:sodipodi="http://sodipodi.sourceforge.net/DTD/sodipodi-0.dtd"
   xmlns:inkscape="http://www.inkscape.org/namespaces/inkscape"
   width="131.931mm"
   height="131.931mm"
   viewBox="0 0 131.931 131.931"
   version="1.1"
   id="svg5621"
   inkscape:version="0.92.1 r15371"
   sodipodi:docname="sticker-man-1.svg">
  <defs
     id="defs5615">
    <linearGradient
       inkscape:collect="always"
       xlink:href="#linearGradient4709"
       id="linearGradient5445"
       gradientUnits="userSpaceOnUse"
       gradientTransform="matrix(0.33822812,0,0,0.33822812,147.88644,-28.644822)"
       x1="-247.97977"
       y1="765.36115"
       x2="-227.59137"
       y2="1129.6156" />
    <linearGradient
       inkscape:collect="always"
       id="linearGradient4709">
      <stop
         style="stop-color:#8ed475;stop-opacity:1;"
         offset="0"
         id="stop4726" />
      <stop
         style="stop-color:#8ed475;stop-opacity:0;"
         offset="1"
         id="stop4728" />
    </linearGradient>
    <filter
       inkscape:collect="always"
       style="color-interpolation-filters:sRGB"
       id="filter4686-0-4"
       x="-0.040800001"
       width="1.0816"
       y="-0.040800001"
       height="1.0816">
      <feGaussianBlur
         inkscape:collect="always"
         stdDeviation="6.0619283"
         id="feGaussianBlur4688-9-8" />
    </filter>
  </defs>
  <sodipodi:namedview
     id="base"
     pagecolor="#ffffff"
     bordercolor="#666666"
     borderopacity="1.0"
     inkscape:pageopacity="0.0"
     inkscape:pageshadow="2"
     inkscape:zoom="0.35"
     inkscape:cx="400"
     inkscape:cy="674.28571"
     inkscape:document-units="mm"
     inkscape:current-layer="layer1"
     showgrid="false"
     inkscape:window-width="1855"
     inkscape:window-height="1056"
     inkscape:window-x="65"
     inkscape:window-y="24"
     inkscape:window-maximized="1" />
  <metadata
     id="metadata5618">
    <rdf:RDF>
      <cc:Work
         rdf:about="">
        <dc:format>image/svg+xml</dc:format>
        <dc:type
           rdf:resource="http://purl.org/dc/dcmitype/StillImage" />
        <dc:title></dc:title>
      </cc:Work>
    </rdf:RDF>
  </metadata>
  <g
     inkscape:label="Calque 1"
     inkscape:groupmode="layer"
     id="layer1"
     transform="translate(0,-165.069)">
    <circle
       style="opacity:0.68300003;fill:#666666;fill-opacity:1;stroke-width:1.12477481;filter:url(#filter4686-0-4)"
       id="path142-5-3-3"
       cx="-77.274567"
       cy="282.63586"
       r="178.29201"
       transform="matrix(0.3420718,0,0,0.3420718,93.410834,134.77717)" />
    <circle
       style="fill:#449fe2;fill-opacity:1;stroke-width:0.38043046"
       id="path142-3-7-9"
       cx="67.141754"
       cy="230.74959"
       r="60.303368" />
    <circle
       style="fill:url(#linearGradient5445);fill-opacity:1;stroke-width:0.38043046"
       id="path142-3-0"
       cx="67.150337"
       cy="230.7496"
       r="60.303368" />
    <ellipse
       ry="1.5823462"
       rx="1.5505146"
       cy="274.26242"
       cx="126.85234"
       transform="matrix(-0.89186324,0.45230516,0.62962414,0.77689989,0,0)"
       id="path7002-6-6-8"
       style="fill:#be997a;fill-opacity:1;fill-rule:evenodd;stroke:#000000;stroke-width:0.32091141;stroke-linecap:round;stroke-linejoin:round;stroke-miterlimit:4;stroke-dasharray:none;stroke-dashoffset:0;stroke-opacity:1" />
    <path
       inkscape:transform-center-x="8.1621612"
       inkscape:transform-center-y="27.293356"
       sodipodi:nodetypes="cccc"
       inkscape:connector-curvature="0"
       id="path7004-7-2-5"
       d="m 62.052095,258.86168 c -3.164485,-0.42759 -4.105352,7.44035 -4.532937,10.60396 -0.256206,1.62466 6.071902,2.39502 6.32811,0.85518 0.34276,-3.16362 1.368447,-11.03156 -1.795173,-11.45914 z"
       style="fill:#d45500;fill-opacity:1;stroke:#000000;stroke-width:0.31734622px;stroke-linecap:butt;stroke-linejoin:miter;stroke-opacity:1" />
    <rect
       transform="rotate(0.67610614)"
       ry="0.65239161"
       rx="4.02005"
       y="264.66403"
       x="72.402107"
       height="10.501233"
       width="8.2025738"
       id="rect7006-5-6-0"
       style="fill:#253936;fill-opacity:1;stroke:#000000;stroke-width:0.27179947;stroke-miterlimit:4;stroke-dasharray:none;stroke-opacity:1" />
    <rect
       style="fill:#253936;fill-opacity:1;stroke:#000000;stroke-width:0.27179947;stroke-miterlimit:4;stroke-dasharray:none;stroke-opacity:1"
       id="rect7010-5-1-9"
       width="8.2025738"
       height="10.501233"
       x="64.193222"
       y="264.74969"
       rx="4.02005"
       ry="0.65239161"
       transform="rotate(0.67610614)" />
    <ellipse
       ry="1.5823462"
       rx="1.5505146"
       cy="210.20131"
       cx="236.88667"
       style="fill:#be997a;fill-opacity:1;fill-rule:evenodd;stroke:#000000;stroke-width:0.32091141;stroke-linecap:round;stroke-linejoin:round;stroke-miterlimit:4;stroke-dasharray:none;stroke-dashoffset:0;stroke-opacity:1"
       id="path7058-2-8-6"
       transform="matrix(0.89186324,0.45230516,-0.62962414,0.77689989,0,0)" />
    <path
       style="fill:#d45500;fill-opacity:1;stroke:#000000;stroke-width:0.31731427;stroke-linecap:butt;stroke-linejoin:miter;stroke-miterlimit:4;stroke-dasharray:none;stroke-opacity:1"
       d="m 76.418748,258.86168 c 3.164486,-0.42759 4.104489,7.44035 4.532069,10.60396 0.257075,1.62466 -6.07104,2.39502 -6.328114,0.85518 -0.341893,-3.16362 -1.36844,-11.03156 1.796045,-11.45914 z"
       id="path7060-9-7-3"
       inkscape:connector-curvature="0"
       sodipodi:nodetypes="cccc"
       inkscape:transform-center-y="27.293356"
       inkscape:transform-center-x="8.1621651" />
    <path
       inkscape:connector-curvature="0"
       id="path7014-1-9-8"
       d="m 69.321154,255.09908 c 0,0 0,0 -0.08569,0 0,0 0,0 0,0 -0.08569,0 -0.08569,0 -0.08569,0 v 0 c -1.966552,0.17052 -3.848366,1.28277 -5.045436,2.73604 -2.651212,3.0788 -3.677765,7.18414 -3.762589,11.11726 0.08483,1.02654 -0.08569,2.22361 0.341895,3.0788 1.538965,0.94086 4.361556,1.11223 6.242503,1.28275 0.513279,0.0856 1.368454,0.0856 2.223627,0.0856 v 0 c 0.08569,0 0.17138,0 0.256204,0 0,0 0,0 0,0 0.855168,0 1.71034,0 2.22362,-0.0856 1.881733,-0.17052 4.61777,-0.34189 6.243284,-1.28275 0.427593,-0.85519 0.256219,-2.05226 0.256219,-3.0788 -0.08565,-3.93312 -1.026561,-8.03846 -3.67691,-11.11726 -1.197934,-1.45327 -3.078798,-2.56552 -5.046213,-2.73604 v 0 c 0,0 0,0 -0.08483,0 z"
       style="fill:#d45500;fill-opacity:1;fill-rule:evenodd;stroke:#000000;stroke-width:0.31731427;stroke-linecap:round;stroke-linejoin:round;stroke-miterlimit:4;stroke-dasharray:none;stroke-dashoffset:0;stroke-opacity:1" />
    <rect
       style="fill:#f4daca;fill-opacity:1;fill-rule:evenodd;stroke:#000000;stroke-width:0.47351936;stroke-linecap:round;stroke-linejoin:round;stroke-miterlimit:4;stroke-dasharray:none;stroke-dashoffset:0;stroke-opacity:1"
       id="rect7020-2-2-5"
       width="80.868988"
       height="62.188988"
       x="26.592192"
       y="198.49402"
       ry="31.101158"
       rx="40.434494" />
    <path
       style="fill:none;stroke:#000000;stroke-width:1.86596823;stroke-linecap:round;stroke-linejoin:round;stroke-miterlimit:4;stroke-dasharray:none;stroke-opacity:1"
       d="m 60.693646,245.22843 c 3.787432,2.37767 7.2195,5.91028 13.482736,0.24159"
       id="path7026-9-0-6"
       inkscape:connector-curvature="0"
       sodipodi:nodetypes="cc" />
    <path
       id="path5-2-1"
       d="m 96.663244,187.31556 c 0.977472,-0.31793 1.944806,-0.77455 2.641552,-1.55247 0.0676,0.60881 0.0372,1.2413 -0.17926,1.82305 -0.321311,0.88954 -0.892922,1.6607 -1.471295,2.39804 0.416023,-0.0913 0.845572,-0.14544 1.248071,-0.27396 1.383338,-0.40588 2.766698,-0.81851 4.153428,-1.23116 0.5547,0.98425 0.6866,2.14099 0.75764,3.24361 0.0508,1.21762 0.006,2.4454 -0.10828,3.66639 -0.12515,1.27173 -0.28411,2.54686 -0.62911,3.78478 -0.47351,1.77908 -1.31908,3.43301 -1.73849,5.22562 1.31571,1.05527 2.35406,2.41495 3.1895,3.86932 1.05865,1.87041 1.79937,3.90317 2.33038,5.97312 0.59867,2.34392 0.94028,4.75549 1.0891,7.16706 0.15221,2.51641 0.0846,5.04974 -0.20294,7.55262 -0.23676,2.0057 -0.60881,3.99786 -1.17703,5.9393 -0.11838,0.33146 -0.19279,0.67983 -0.34499,1.00114 -0.30779,-1.09247 -0.64264,-2.18495 -1.00792,-3.26051 -0.0169,-0.0541 -0.0372,-0.10483 -0.0507,-0.15559 -0.0508,-0.1522 -0.10483,-0.30779 -0.15896,-0.45661 -0.0981,-0.29764 -0.1928,-0.5919 -0.31794,-0.88277 -0.10482,-0.33146 -0.22661,-0.65955 -0.35852,-0.98086 -0.0508,-0.13529 -0.0947,-0.27396 -0.15898,-0.40926 -0.0473,-0.13868 -0.0913,-0.27734 -0.1522,-0.40925 -0.0339,-0.088 -0.0711,-0.17589 -0.10482,-0.26383 -0.32808,-0.81512 -0.65954,-1.63025 -1.03836,-2.42848 -0.0812,-0.22661 -0.20294,-0.44307 -0.30779,-0.66629 -0.0372,-0.0711 -0.0744,-0.14207 -0.10827,-0.20972 -0.17927,-0.42616 -0.37882,-0.84556 -0.6122,-1.2379 -0.0372,-0.0711 -0.0744,-0.13868 -0.10483,-0.20633 -0.12169,-0.22999 -0.21646,-0.46337 -0.3619,-0.67307 -0.0744,-0.15896 -0.15896,-0.32131 -0.25704,-0.46338 -0.0473,-0.0913 -0.1015,-0.17926 -0.15222,-0.26043 -0.0643,-0.1217 -0.12852,-0.25029 -0.20631,-0.35851 -0.0608,-0.11505 -0.12515,-0.21648 -0.18941,-0.32133 -0.0575,-0.0913 -0.10828,-0.17926 -0.16235,-0.27396 -0.0135,-0.0169 -0.0507,-0.0541 -0.0676,-0.0711 -0.0779,-0.17588 -0.19618,-0.33147 -0.30103,-0.49043 -0.169107,-0.26381 -0.351747,-0.51749 -0.510717,-0.78131 -0.0169,-0.0169 -0.0507,-0.0541 -0.0676,-0.0711 -0.088,-0.1522 -0.19955,-0.29763 -0.29763,-0.44307 -0.19279,-0.27735 -0.409264,-0.54794 -0.622338,-0.81852 -0.115051,-0.16573 -0.246912,-0.3044 -0.358524,-0.47014 -0.09127,-0.0981 -0.196174,-0.19279 -0.260437,-0.31792 -0.172499,-0.15898 -0.290874,-0.36868 -0.470136,-0.52426 -0.148824,-0.14205 -0.253674,-0.33147 -0.409261,-0.47353 -0.547923,-0.51748 -1.048509,-1.09247 -1.630257,-1.56599 -0.527636,-0.4769 -1.082334,-0.91997 -1.66747,-1.31909 -0.01687,-0.0135 -0.05407,-0.044 -0.07108,-0.0575 -0.216462,-0.12853 -0.422773,-0.27059 -0.629098,-0.41264 -0.192787,-0.11837 -0.385586,-0.24691 -0.588523,-0.35176 -0.0744,-0.0541 -0.16235,-0.10482 -0.250287,-0.15559 -0.07108,-0.0304 -0.145437,-0.0643 -0.219849,-0.098 -0.01687,-0.0169 -0.05075,-0.0541 -0.07108,-0.0676 -0.355136,-0.16574 -0.689985,-0.36867 -1.051884,-0.50396 -0.148825,-0.0779 -0.307787,-0.14882 -0.463374,-0.20632 -0.08795,-0.0372 -0.175874,-0.0711 -0.257049,-0.10828 -2.201868,-0.87602 -4.596523,-1.26498 -6.964115,-1.21762 -3.334927,0.0812 -6.615742,0.93012 -9.70377,2.1545 -0.537786,0.19618 -1.062034,0.42955 -1.58967,0.6494 l -0.0038,0.0236 c -0.155587,0.044 -0.311174,0.11838 -0.456611,0.18265 l -0.01023,0.0203 c -0.280724,0.0947 -0.537773,0.24015 -0.794835,0.37882 -0.02365,-0.006 -0.0643,-0.006 -0.08463,-0.0102 v 0.0744 c -0.02365,-0.0135 -0.07772,-0.0271 -0.101501,-0.0339 l 0.0038,0.0575 c -0.399107,0.13868 -0.761011,0.36529 -1.139826,0.54455 v 0.0541 c -0.02367,-0.006 -0.0778,-0.0271 -0.10485,-0.0339 v 0.0812 c -0.02706,-0.006 -0.07779,-0.0203 -0.101462,-0.0271 l -0.0033,0.0779 c -0.02367,-0.004 -0.07103,-0.0136 -0.09809,-0.0203 l -0.0068,0.0474 c -0.260435,0.11493 -0.510725,0.26043 -0.767777,0.39234 l -0.0101,0.0237 c -0.0947,0.0339 -0.186025,0.0744 -0.280729,0.1015 0.108237,-0.45661 0.277347,-0.89631 0.375433,-1.35292 0.165732,-0.67645 0.341611,-1.36982 0.311169,-2.07333 -0.0203,-0.39573 -0.199554,-0.81514 -0.561458,-1.01807 -0.280729,-0.11505 -0.591899,-0.16573 -0.886157,-0.10828 -0.72719,0.0779 -1.427323,0.30779 -2.117308,0.52086 -2.239071,0.71029 -4.498434,1.48145 -6.855884,1.67086 -0.277347,0.004 -0.547929,0.0608 -0.828659,0.0507 -0.338229,-0.0102 -0.679839,0.0575 -1.028214,0.0507 -0.382197,0.0169 -0.75763,-0.004 -1.143549,0.0473 -0.598663,0.0203 -1.204092,-0.006 -1.802755,0.0507 -1.126301,0.0271 -2.249217,-0.0135 -3.36537,0.0541 -1.089095,-0.004 -2.171424,0.006 -3.253755,0.0236 -0.676456,0.0643 -1.356294,0.0136 -2.022603,0.0541 -0.466755,0.0608 -0.930127,0.006 -1.386736,0.0643 -2.137602,0.10482 -4.295497,0.32131 -6.335013,0.99777 -0.629104,0.23337 -1.261591,0.4972 -1.83996,0.84218 -0.192791,0.11505 -0.375435,0.24353 -0.571607,0.36529 -0.202937,0.14206 -0.399109,0.29765 -0.595282,0.45322 -1.11277,0.91323 -1.941429,2.12746 -2.560386,3.41612 -0.737337,1.54908 -1.207475,3.21316 -1.576144,4.89077 -0.713661,3.40934 -1.018066,6.8897 -1.241297,10.35993 -0.04059,-0.0405 -0.06765,-0.0779 -0.09133,-0.13191 -0.547929,-1.53217 -1.092476,-3.06434 -1.650553,-4.59653 -0.02368,-0.0507 -0.04059,-0.1015 -0.06426,-0.14881 -0.06089,-0.19617 -0.118374,-0.38896 -0.206318,-0.56822 -0.213084,-0.63926 -0.456608,-1.2616 -0.686604,-1.89069 -0.879392,-2.61451 -1.413793,-5.35078 -1.535555,-8.10734 -0.04735,-0.79145 -0.02029,-1.58967 -0.01353,-2.38112 0.04735,-0.33824 0.03044,-0.68661 0.07103,-1.03498 0.158967,-2.14775 0.60881,-4.28874 1.339383,-6.31811 0.0575,-0.14205 0.108237,-0.27396 0.155586,-0.41264 0.03383,-0.088 0.07103,-0.17248 0.10485,-0.26043 0.0372,-0.0845 0.07441,-0.16911 0.104849,-0.25705 0.05411,-0.1217 0.10485,-0.24014 0.152204,-0.36529 0.0947,-0.20293 0.192789,-0.39911 0.284111,-0.60542 0.896305,-1.84673 2.056426,-3.56493 3.476984,-5.04298 1.292032,-1.34954 2.776854,-2.49613 4.393584,-3.42626 0.476902,-0.28072 0.974098,-0.52424 1.484823,-0.74409 0.703514,-0.30442 1.461145,-0.575 1.998927,-1.14323 0.321317,-0.31454 0.544547,-0.71366 0.764397,-1.10262 1.082329,-1.51864 2.455536,-2.81744 3.97418,-3.88285 1.667465,-1.16351 3.51419,-2.05304 5.421797,-2.73965 2.124072,-0.77116 4.332701,-1.29204 6.55486,-1.67085 4.224807,-0.71704 8.510157,-0.91659 12.781978,-0.94703 5.952812,-0.0339 11.892106,0.32807 17.841538,0.44646 2.519792,0.0304 5.053121,0.0508 7.559388,-0.19617 1.285271,-0.12853 2.570542,-0.3247 3.805076,-0.71366 z"
       inkscape:connector-curvature="0"
       style="fill:#1a1a1a;fill-opacity:1;stroke-width:0.33822808" />
    <g
       transform="matrix(0.086556,0,0,0.086556,-316.28446,440.94747)"
       id="g4583-3-1">
      <path
         inkscape:connector-curvature="0"
         id="rect4016-3-7-7-5"
         d="m 4408.7,-1932.51 c 22.16,0 40.29,14.65 42.5,33.56 -2.18,3.51 -20.31,6.22 -42.5,6.22 h -0.56 c -22.19,0 -40.32,-2.71 -42.5,-6.22 2.21,-18.91 20.34,-33.56 42.5,-33.56 z"
         style="fill:#e3dbdb;fill-opacity:1;stroke:#000000;stroke-width:3.5999999;stroke-linecap:round;stroke-linejoin:round;stroke-miterlimit:4;stroke-dasharray:none;stroke-opacity:1" />
      <path
         inkscape:connector-curvature="0"
         id="rect7010-5-0-5-9"
         d="m 4408.12,-1931.97 c 18.05,0 33.41,9.71 39.69,23.53 -8.35,2.06 -22.25,3.53 -38.13,3.72 l -1.87,0.03 c -17.17,0.2 -32.09,-1.14 -40.16,-3.28 6.14,-14.07 21.66,-24 39.91,-24 z"
         style="fill:#a5514d;fill-opacity:1;stroke:#000000;stroke-width:3.5999999;stroke-miterlimit:4;stroke-dasharray:none;stroke-opacity:1" />
      <path
         inkscape:connector-curvature="0"
         id="rect4016-3-7-5-9-8"
         d="m 4408.37,-1932.65 c 3.96,0 7.78,0.48 11.42,1.35 -6.09,10.3 -11.2,18.64 -11.7,18.64 -0.52,0 -5.63,-8.34 -11.71,-18.64 3.62,-0.87 7.47,-1.35 11.42,-1.35 z"
         style="fill:#000000;fill-opacity:0.2;stroke:#000000;stroke-width:3.5999999;stroke-linecap:round;stroke-linejoin:round;stroke-miterlimit:4;stroke-dasharray:none;stroke-opacity:1" />
    </g>
    <g
       transform="matrix(0.086556,0,0,0.086556,-316.28446,440.94747)"
       id="g4578-2-4">
      <path
         style="fill:#e3dbdb;fill-opacity:1;stroke:#000000;stroke-width:3.5999999;stroke-linecap:round;stroke-linejoin:round;stroke-miterlimit:4;stroke-dasharray:none;stroke-opacity:1"
         d="m 4506.14,-1932.51 c -22.16,0 -40.29,14.65 -42.5,33.56 2.18,3.51 20.31,6.22 42.5,6.22 h 0.56 c 22.19,0 40.32,-2.71 42.5,-6.22 -2.21,-18.91 -20.34,-33.56 -42.5,-33.56 z"
         id="path4424-2-8"
         inkscape:connector-curvature="0" />
      <path
         style="fill:#a5514d;fill-opacity:1;stroke:#000000;stroke-width:3.5999999;stroke-miterlimit:4;stroke-dasharray:none;stroke-opacity:1"
         d="m 4506.72,-1931.97 c -18.05,0 -33.41,9.71 -39.69,23.53 8.35,2.06 22.25,3.53 38.13,3.72 l 1.87,0.03 c 17.17,0.2 32.09,-1.14 40.16,-3.28 -6.14,-14.07 -21.66,-24 -39.91,-24 z"
         id="path4426-8-1"
         inkscape:connector-curvature="0" />
      <path
         style="fill:#000000;fill-opacity:0.2;stroke:#000000;stroke-width:3.5999999;stroke-linecap:round;stroke-linejoin:round;stroke-miterlimit:4;stroke-dasharray:none;stroke-opacity:1"
         d="m 4506.47,-1932.65 c -3.96,0 -7.78,0.48 -11.42,1.35 6.09,10.3 11.2,18.64 11.7,18.64 0.52,0 5.63,-8.34 11.71,-18.64 -3.62,-0.87 -7.47,-1.35 -11.42,-1.35 z"
         id="path4428-9-0"
         inkscape:connector-curvature="0" />
    </g>
    <g
       id="g4896-7-3"
       transform="matrix(0.3382281,0,0,0.3382281,-1546.6702,960.81148)"
       style="fill:#6c5d53">
      <path
         style="fill:#6c5d53;fill-opacity:1"
         inkscape:connector-curvature="0"
         d="m 4692.82,-2185.72 c 7.15,-0.33 14.3,-0.51 21.47,-0.54 3.63,-0.07 7.24,0.02 10.88,0.05 6.38,0.13 12.81,0.34 19.16,1.02 2.88,0.29 5.71,0.85 8.42,1.78 2.88,0.98 5.57,2.33 8.42,3.37 5.06,1.91 10.73,2.12 15.92,0.63 2.84,-0.84 5.47,-2.13 8.2,-3.21 2.47,-1 5.09,-1.75 7.73,-2.19 2.94,-0.46 5.88,-0.7 8.87,-0.9 6.96,-0.44 13.94,-0.54 20.91,-0.58 13.85,0.05 27.7,0.44 41.48,1.72 4.32,0.43 8.65,0.93 12.89,1.88 -0.17,5.79 -0.32,11.6 -0.95,17.37 -0.17,1.45 -0.38,2.91 -0.82,4.3 -0.24,0.71 -0.6,1.45 -1.29,1.8 -0.69,0.32 -1.47,0.27 -2.19,0.51 -1.13,0.37 -2.01,1.26 -2.68,2.18 -1.12,1.59 -1.91,3.36 -2.64,5.12 -0.82,2.07 -1.42,4.2 -2.07,6.31 -0.61,2.02 -1.33,4.06 -2.57,5.79 -0.91,1.24 -1.95,2.42 -3.3,3.18 -0.56,0.34 -1.19,0.6 -1.77,0.89 -3.99,1.57 -8.22,2.3 -12.44,2.9 -5.92,0.83 -11.95,1.21 -17.94,1.32 -1.74,0.07 -3.44,0.07 -5.17,0.01 -6.41,-0.12 -12.86,-0.55 -19.19,-1.71 -2.86,-0.54 -5.7,-1.23 -8.39,-2.35 -1.76,-0.77 -3.54,-1.73 -4.71,-3.27 -1.64,-2.26 -2.86,-4.76 -3.78,-7.35 -0.91,-2.47 -1.57,-5.01 -2.51,-7.47 -0.74,-1.88 -1.72,-3.71 -3.08,-5.24 -0.82,-0.78 -1.56,-1.67 -2.51,-2.3 -0.18,-0.15 -0.35,-0.28 -0.53,-0.4 -0.37,-0.31 -0.77,-0.54 -1.19,-0.79 -0.29,-0.22 -0.63,-0.41 -0.94,-0.55 -0.92,-0.59 -1.96,-1.03 -2.94,-1.49 -0.84,-0.01 -1.71,0 -2.54,0 -0.47,-0.03 -0.9,0.23 -1.33,0.39 -0.67,0.35 -1.4,0.66 -2.06,1.1 -0.32,0.14 -0.62,0.32 -0.91,0.5 -0.94,0.55 -1.8,1.21 -2.61,1.89 -0.87,0.88 -1.81,1.69 -2.48,2.7 -1.3,1.76 -2.16,3.8 -2.83,5.83 -0.89,2.58 -1.61,5.2 -2.65,7.72 -0.82,1.95 -1.86,3.82 -3.11,5.52 -1.38,1.72 -3.4,2.72 -5.4,3.51 -2.89,1.14 -5.96,1.8 -9.03,2.3 -6.58,1.1 -13.27,1.44 -19.93,1.49 -6.77,-0.03 -13.55,-0.36 -20.26,-1.26 -3.24,-0.44 -6.44,-1.01 -9.6,-1.86 -2.15,-0.61 -4.36,-1.3 -6.22,-2.6 -1.99,-1.59 -3.4,-3.83 -4.28,-6.21 -0.97,-2.61 -1.57,-5.3 -2.57,-7.92 -0.84,-2.13 -1.75,-4.29 -3.22,-6.1 -0.54,-0.78 -1.32,-1.33 -2.17,-1.68 -0.82,-0.25 -1.7,-0.29 -2.51,-0.55 -0.35,-0.33 -0.65,-0.68 -0.91,-1.1 -0.2,-0.51 -0.41,-1.03 -0.53,-1.58 -0.49,-2.3 -0.73,-4.62 -0.86,-6.94 -0.17,-0.77 -0.06,-1.58 -0.18,-2.35 -0.08,-0.79 -0.01,-1.59 -0.15,-2.39 -0.06,-0.97 -0.03,-1.97 -0.06,-2.94 -0.12,-1.19 -0.06,-2.39 -0.13,-3.6 -0.03,-0.86 -0.07,-1.75 -0.06,-2.63 3.22,-0.73 6.52,-1.17 9.8,-1.54 6.66,-0.74 13.35,-1.17 20.04,-1.49 m 4.24,4.21 c -3.22,0.22 -6.44,0.6 -9.53,1.6 -1.57,0.52 -3.09,1.25 -4.46,2.18 l 0.01,0.09 c -0.36,0.2 -0.68,0.43 -0.97,0.74 -0.45,0.45 -0.97,0.88 -1.34,1.43 -0.29,0.32 -0.55,0.64 -0.78,1 -1.58,2.36 -2.29,5.16 -2.55,7.92 -0.33,3.43 -0.09,6.89 0.39,10.28 0.63,4.46 1.9,8.96 4.57,12.64 1.47,2.05 3.38,3.75 5.59,5.01 4.11,2.39 8.9,3.28 13.59,3.73 3.52,0.35 7.06,0.42 10.59,0.43 3.79,-0.01 7.55,-0.01 11.32,-0.16 3.16,-0.04 6.34,-0.21 9.49,-0.57 2.72,-0.34 5.43,-0.81 7.96,-1.8 1.9,-0.73 3.71,-1.75 5.18,-3.15 2.08,-1.89 3.53,-4.36 4.55,-6.92 0.94,-2.35 1.62,-4.73 2.15,-7.19 0.09,-0.39 0.18,-0.78 0.26,-1.19 0.57,-2.79 1.1,-5.59 1.24,-8.44 -0.03,-2.77 -0.48,-5.61 -1.86,-8.07 -0.09,-0.1 -0.17,-0.23 -0.25,-0.34 -0.4,-0.73 -0.9,-1.4 -1.49,-1.98 -0.25,-0.39 -0.57,-0.76 -1.01,-1 l 0.05,-0.03 c -0.29,-0.22 -0.55,-0.45 -0.84,-0.61 l 0.05,-0.09 c -0.18,-0.09 -0.38,-0.22 -0.57,-0.3 l 0.01,-0.07 c -0.84,-0.56 -1.68,-1.1 -2.6,-1.55 -0.4,-0.18 -0.78,-0.36 -1.21,-0.53 -0.22,-0.09 -0.42,-0.18 -0.64,-0.25 -3.73,-1.43 -7.71,-2.05 -11.63,-2.45 -3.27,-0.29 -6.55,-0.46 -9.82,-0.46 -1.41,-0.07 -2.82,-0.03 -4.24,-0.05 -3.98,-0.01 -7.94,-0.04 -11.93,-0.05 -3.1,0 -6.19,-0.01 -9.28,0.2 m 107.34,0.8 c -2.79,0.4 -5.57,0.97 -8.2,2.02 -0.22,0.07 -0.45,0.15 -0.64,0.25 -0.52,0.2 -1,0.44 -1.47,0.68 -1.1,0.51 -2.1,1.21 -3.06,1.93 -0.15,0.13 -0.29,0.29 -0.44,0.41 -0.38,0.29 -0.74,0.61 -1.1,0.96 -0.01,0.07 -0.04,0.17 -0.06,0.22 -0.34,0.23 -0.57,0.53 -0.8,0.87 l -0.04,0.01 c -0.88,1.18 -1.57,2.49 -2.01,3.88 -0.93,2.89 -0.93,5.99 -0.49,8.96 0.39,2.53 0.86,5.05 1.48,7.54 0.64,2.57 1.41,5.1 2.57,7.5 1.03,2.13 2.39,4.14 4.19,5.68 1.43,1.24 3.12,2.17 4.88,2.83 2.6,0.99 5.34,1.47 8.1,1.79 3.08,0.35 6.16,0.51 9.26,0.56 3.85,0.15 7.69,0.15 11.54,0.16 3.3,0 6.62,-0.08 9.91,-0.37 4.35,-0.4 8.75,-1.12 12.73,-3.05 3.54,-1.69 6.53,-4.51 8.34,-7.99 0.27,-0.46 0.52,-0.89 0.67,-1.4 h 0.05 c 1.72,-3.9 2.46,-8.13 2.82,-12.34 0.16,-0.98 0.06,-1.97 0.17,-2.93 0.07,-0.69 0.07,-1.4 -0.04,-2.1 -0.06,-2.64 -0.48,-5.36 -1.57,-7.78 -0.18,-0.53 -0.46,-1.01 -0.74,-1.47 -0.66,-1.18 -1.55,-2.21 -2.55,-3.12 -0.13,-0.08 -0.26,-0.16 -0.36,-0.27 -0.56,-0.48 -1.15,-0.86 -1.75,-1.26 -0.03,0 -0.09,0 -0.12,-0.01 -0.44,-0.3 -0.93,-0.53 -1.44,-0.74 -2.37,-1.03 -4.91,-1.55 -7.46,-1.87 -3.46,-0.45 -6.96,-0.55 -10.45,-0.55 -3.88,-0.01 -7.77,0.03 -11.65,0.04 -6.77,0.04 -13.56,-0.02 -20.27,0.96 z"
         id="path7-3-0" />
      <path
         style="fill:#6c5d53;fill-opacity:1;stroke:none"
         d="m 4672.03,-2181.5 -23.25,1.66 v 7.91 l 24.44,3.21"
         id="use4172-6-4"
         inkscape:connector-curvature="0"
         sodipodi:nodetypes="cccc" />
      <path
         sodipodi:nodetypes="cccc"
         inkscape:connector-curvature="0"
         id="use4430-1-4"
         d="m 4869.31,-2181.5 23.24,1.66 v 7.91 l -24.43,3.21"
         style="fill:#6c5d53;fill-opacity:1;stroke:none" />
    </g>
    <path
       style="fill:#000000;fill-opacity:1;fill-rule:evenodd;stroke:none;stroke-width:2.2027576"
       d="m 84.047308,228.28677 a 5.5068944,5.5068944 0 0 0 -5.50701,5.50678 5.5068944,5.5068944 0 0 0 0.21356,1.51118 5.5068944,5.5068944 0 0 1 -10e-4,-0.0239 5.5068944,5.5068944 0 0 1 5.506767,-5.50676 5.5068944,5.5068944 0 0 1 5.29345,3.99558 5.5068944,5.5068944 0 0 0 -5.505847,-5.48283 z"
       id="path7024-0-3-2-4"
       inkscape:connector-curvature="0" />
    <path
       style="fill:#000000;fill-opacity:1;fill-rule:evenodd;stroke:none;stroke-width:2.2027576"
       d="m 47.206215,228.10398 a 5.5068944,5.5068944 0 0 0 -5.507006,5.50677 5.5068944,5.5068944 0 0 0 0.213561,1.51119 5.5068944,5.5068944 0 0 1 -0.001,-0.0239 5.5068944,5.5068944 0 0 1 5.506773,-5.50678 5.5068944,5.5068944 0 0 1 5.293445,3.99559 5.5068944,5.5068944 0 0 0 -5.505843,-5.48283 z"
       id="path7024-0-3-7-9-4"
       inkscape:connector-curvature="0" />
  </g>
</svg>
