<?xml version="1.0" encoding="UTF-8" standalone="no"?>
<!-- Created with Inkscape (http://www.inkscape.org/) -->

<svg
   xmlns:dc="http://purl.org/dc/elements/1.1/"
   xmlns:cc="http://creativecommons.org/ns#"
   xmlns:rdf="http://www.w3.org/1999/02/22-rdf-syntax-ns#"
   xmlns:svg="http://www.w3.org/2000/svg"
   xmlns="http://www.w3.org/2000/svg"
   xmlns:sodipodi="http://sodipodi.sourceforge.net/DTD/sodipodi-0.dtd"
   xmlns:inkscape="http://www.inkscape.org/namespaces/inkscape"
   width="194mm"
   height="190.808mm"
   viewBox="0 0 194 190.808"
   version="1.1"
   id="svg1285"
   inkscape:version="0.92.1 r15371"
   sodipodi:docname="step-amendment-2.svg">
  <defs
     id="defs1279">
    <filter
       inkscape:collect="always"
       style="color-interpolation-filters:sRGB"
       id="filter1176"
       x="-0.015230539"
       width="1.0304611"
       y="-0.015230539"
       height="1.0304611">
      <feGaussianBlur
         inkscape:collect="always"
         stdDeviation="1.1313822"
         id="feGaussianBlur1178" />
    </filter>
    <filter
       inkscape:collect="always"
       style="color-interpolation-filters:sRGB"
       id="filter1172"
       x="-0.059266813"
       width="1.1185336"
       y="-0.051785156"
       height="1.1035703">
      <feGaussianBlur
         inkscape:collect="always"
         stdDeviation="1.1313822"
         id="feGaussianBlur1174" />
    </filter>
    <filter
       inkscape:collect="always"
       style="color-interpolation-filters:sRGB"
       id="filter1168"
       x="-0.047513694"
       width="1.0950274"
       y="-0.069365412"
       height="1.1387308">
      <feGaussianBlur
         inkscape:collect="always"
         stdDeviation="1.1313822"
         id="feGaussianBlur1170" />
    </filter>
    <filter
       inkscape:collect="always"
       style="color-interpolation-filters:sRGB"
       id="filter1164"
       x="-0.058937643"
       width="1.1178753"
       y="-0.058437567"
       height="1.1168751">
      <feGaussianBlur
         inkscape:collect="always"
         stdDeviation="1.1313822"
         id="feGaussianBlur1166" />
    </filter>
  </defs>
  <sodipodi:namedview
     id="base"
     pagecolor="#ffffff"
     bordercolor="#666666"
     borderopacity="1.0"
     inkscape:pageopacity="0.0"
     inkscape:pageshadow="2"
     inkscape:zoom="0.98994949"
     inkscape:cx="292.47733"
     inkscape:cy="358.53612"
     inkscape:document-units="mm"
     inkscape:current-layer="layer1"
     showgrid="false"
     inkscape:window-width="1855"
     inkscape:window-height="1056"
     inkscape:window-x="65"
     inkscape:window-y="24"
     inkscape:window-maximized="1" />
  <metadata
     id="metadata1282">
    <rdf:RDF>
      <cc:Work
         rdf:about="">
        <dc:format>image/svg+xml</dc:format>
        <dc:type
           rdf:resource="http://purl.org/dc/dcmitype/StillImage" />
        <dc:title />
      </cc:Work>
    </rdf:RDF>
  </metadata>
  <g
     inkscape:label="Calque 1"
     inkscape:groupmode="layer"
     id="layer1"
     transform="translate(0,-106.19199)">
    <g
       id="g1184"
       transform="translate(447.23585,-11.481009)">
      <path
         id="path53-6-3-9"
         d="m -346.1108,129.91205 a 89.140507,89.140507 0 0 0 -89.1403,89.14029 89.140507,89.140507 0 0 0 0.42116,7.71529 l 12.93668,-20.74912 14.58051,15.27091 a 61.502413,61.502413 0 0 1 -0.0749,-2.10117 61.502413,61.502413 0 0 1 61.5027,-61.5027 61.502413,61.502413 0 0 1 12.1388,1.21388 l 11.41481,-25.75399 a 89.140507,89.140507 0 0 0 -23.77943,-3.23339 z m 41.02023,10.0893 11.96671,21.32532 -20.67935,5.50871 a 61.502413,61.502413 0 0 1 29.42042,52.35287 61.502413,61.502413 0 0 1 -9.1922,32.19855 l 18.156,21.86637 a 89.140507,89.140507 0 0 0 18.449,-54.20083 89.140507,89.140507 0 0 0 -48.12058,-79.05099 z m -97.2752,103.35287 -28.75742,2.44171 a 89.140507,89.140507 0 0 0 85.01239,62.39723 89.140507,89.140507 0 0 0 57.36291,-20.99666 l -24.213,1.22939 4.10053,-20.19929 a 61.502413,61.502413 0 0 1 -37.02462,12.46384 61.502413,61.502413 0 0 1 -56.48079,-37.33622 z"
         style="opacity:0.65499998;fill:#808080;stroke-width:0.26324153;filter:url(#filter1176)"
         inkscape:connector-curvature="0" />
      <path
         inkscape:connector-curvature="0"
         id="path6080-6-1-1"
         d="m -317.81565,120.03926 -23.24003,52.43428 45.81514,-12.20521 z"
         style="opacity:0.65499998;fill:#808080;fill-opacity:1;stroke:none;stroke-width:0.26458332;filter:url(#filter1172)" />
      <path
         inkscape:connector-curvature="0"
         id="path6080-7-2-9-2"
         d="m -445.9435,247.58357 57.1481,-4.8526 -32.74168,-34.29252 z"
         style="opacity:0.65499998;fill:#808080;fill-opacity:1;stroke:none;stroke-width:0.26458332;filter:url(#filter1168)" />
      <path
         inkscape:connector-curvature="0"
         id="path6080-7-9-4-7"
         d="m -264.58423,283.44018 -36.6385,-44.12566 -9.43252,46.46527 z"
         style="opacity:0.65499998;fill:#808080;fill-opacity:1;stroke:none;stroke-width:0.26458332;filter:url(#filter1164)" />
    </g>
    <path
       style="fill:#cccccc;stroke-width:0.26324153"
       d="m 102.18343,116.84354 a 89.140505,89.140505 0 0 0 -89.140299,89.14029 89.140505,89.140505 0 0 0 0.421163,7.71529 L 26.400972,192.95 40.981476,208.22091 a 61.502411,61.502411 0 0 1 -0.07493,-2.10117 61.502411,61.502411 0 0 1 61.502704,-61.5027 61.502411,61.502411 0 0 1 12.1388,1.21388 l 11.4148,-25.75399 a 89.140505,89.140505 0 0 0 -23.77942,-3.23339 z m 41.02023,10.08931 11.96671,21.32531 -20.67936,5.50871 a 61.502411,61.502411 0 0 1 29.42043,52.35287 61.502411,61.502411 0 0 1 -9.1922,32.19855 l 18.15599,21.86637 a 89.140505,89.140505 0 0 0 18.44901,-54.20083 89.140505,89.140505 0 0 0 -48.12058,-79.05098 z m -97.275198,103.35286 -28.757417,2.44171 a 89.140505,89.140505 0 0 0 85.012385,62.39722 89.140505,89.140505 0 0 0 57.3629,-20.99665 l -24.21299,1.22938 4.10052,-20.19928 a 61.502411,61.502411 0 0 1 -37.02461,12.46384 61.502411,61.502411 0 0 1 -56.480788,-37.33622 z"
       id="path53-6"
       inkscape:connector-curvature="0" />
    <path
       style="fill:#3a84b6;fill-opacity:1;stroke-width:0.26324153"
       d="m 45.928276,230.28546 -28.757393,2.4417 a 89.140506,89.140506 0 0 0 85.012357,62.39722 89.140506,89.140506 0 0 0 58.59902,-22.05498 l -24.20162,1.22939 4.06124,-20.00499 a 61.502412,61.502412 0 0 1 -38.23281,13.32786 61.502412,61.502412 0 0 1 -56.480794,-37.3362 z"
       id="path53-6-0-0"
       inkscape:connector-curvature="0" />
    <path
       style="fill:#cccccc;fill-opacity:1;stroke:none;stroke-width:0.26458332"
       d="m 130.32527,107.31704 -23.24003,52.43428 45.81514,-12.20522 z"
       id="path6080-6"
       inkscape:connector-curvature="0" />
    <path
       style="fill:#3a84b6;fill-opacity:1;stroke:none;stroke-width:0.26458332"
       d="M 2.3507405,235.04423 59.498844,230.19162 26.757162,195.89911 Z"
       id="path6080-7-2"
       inkscape:connector-curvature="0" />
    <path
       style="fill:#cccccc;fill-opacity:1;stroke:none;stroke-width:0.26458332"
       d="m 183.18083,271.43 -36.6385,-44.12565 -9.43252,46.46526 z"
       id="path6080-7-9"
       inkscape:connector-curvature="0" />
  </g>
</svg>
