<?xml version="1.0" encoding="UTF-8" standalone="no"?>
<!-- Created with Inkscape (http://www.inkscape.org/) -->

<svg
   xmlns:dc="http://purl.org/dc/elements/1.1/"
   xmlns:cc="http://creativecommons.org/ns#"
   xmlns:rdf="http://www.w3.org/1999/02/22-rdf-syntax-ns#"
   xmlns:svg="http://www.w3.org/2000/svg"
   xmlns="http://www.w3.org/2000/svg"
   xmlns:sodipodi="http://sodipodi.sourceforge.net/DTD/sodipodi-0.dtd"
   xmlns:inkscape="http://www.inkscape.org/namespaces/inkscape"
   width="194mm"
   height="190.808mm"
   viewBox="0 0 194 190.808"
   version="1.1"
   id="svg1285"
   inkscape:version="0.92.1 r15371"
   sodipodi:docname="step-empty.svg">
  <defs
     id="defs1279">
    <filter
       inkscape:collect="always"
       style="color-interpolation-filters:sRGB"
       id="filter2283"
       x="-0.053976563"
       width="1.1079531"
       y="-0.053518581"
       height="1.1070372">
      <feGaussianBlur
         inkscape:collect="always"
         stdDeviation="1.0361481"
         id="feGaussianBlur2285" />
    </filter>
    <filter
       inkscape:collect="always"
       style="color-interpolation-filters:sRGB"
       id="filter2287"
       x="-0.043514226"
       width="1.0870285"
       y="-0.063526573"
       height="1.1270531">
      <feGaussianBlur
         inkscape:collect="always"
         stdDeviation="1.0361481"
         id="feGaussianBlur2289" />
    </filter>
    <filter
       inkscape:collect="always"
       style="color-interpolation-filters:sRGB"
       id="filter2291"
       x="-0.054278025"
       width="1.1085561"
       y="-0.047426137"
       height="1.0948523">
      <feGaussianBlur
         inkscape:collect="always"
         stdDeviation="1.0361481"
         id="feGaussianBlur2293" />
    </filter>
    <filter
       inkscape:collect="always"
       style="color-interpolation-filters:sRGB"
       id="filter2295"
       x="-0.013948507"
       width="1.027897"
       y="-0.013948507"
       height="1.027897">
      <feGaussianBlur
         inkscape:collect="always"
         stdDeviation="1.0361481"
         id="feGaussianBlur2297" />
    </filter>
  </defs>
  <sodipodi:namedview
     id="base"
     pagecolor="#ffffff"
     bordercolor="#666666"
     borderopacity="1.0"
     inkscape:pageopacity="0.0"
     inkscape:pageshadow="2"
     inkscape:zoom="0.7"
     inkscape:cx="140.66225"
     inkscape:cy="158.60129"
     inkscape:document-units="mm"
     inkscape:current-layer="layer1"
     showgrid="false"
     inkscape:window-width="1855"
     inkscape:window-height="1056"
     inkscape:window-x="65"
     inkscape:window-y="24"
     inkscape:window-maximized="1" />
  <metadata
     id="metadata1282">
    <rdf:RDF>
      <cc:Work
         rdf:about="">
        <dc:format>image/svg+xml</dc:format>
        <dc:type
           rdf:resource="http://purl.org/dc/dcmitype/StillImage" />
        <dc:title></dc:title>
      </cc:Work>
    </rdf:RDF>
  </metadata>
  <g
     inkscape:label="Calque 1"
     inkscape:groupmode="layer"
     id="layer1"
     transform="translate(0,-106.19199)">
    <path
       inkscape:connector-curvature="0"
       style="opacity:0.34800002;fill:#808080;stroke-width:0.26324153;filter:url(#filter2295)"
       d="m 101.65426,117.37271 a 89.140506,89.140506 0 0 0 -89.140302,89.14029 89.140506,89.140506 0 0 0 0.42116,7.71529 l 12.93668,-20.74912 14.58051,15.27091 a 61.502412,61.502412 0 0 1 -0.0749,-2.10117 61.502412,61.502412 0 0 1 61.502702,-61.5027 61.502412,61.502412 0 0 1 12.1388,1.21388 l 11.41481,-25.75399 a 89.140506,89.140506 0 0 0 -23.77943,-3.23339 z m 41.02023,10.0893 11.96671,21.32532 -20.67935,5.50871 a 61.502412,61.502412 0 0 1 29.42042,52.35287 61.502412,61.502412 0 0 1 -9.1922,32.19855 l 18.156,21.86637 a 89.140506,89.140506 0 0 0 18.449,-54.20083 89.140506,89.140506 0 0 0 -48.12058,-79.05099 z m -97.275202,103.35287 -28.75742,2.44171 a 89.140506,89.140506 0 0 0 85.012392,62.39723 89.140506,89.140506 0 0 0 57.36291,-20.99666 l -24.213,1.22939 4.10053,-20.19929 A 61.502412,61.502412 0 0 1 101.88008,268.1511 61.502412,61.502412 0 0 1 45.399288,230.81488 Z"
       id="path53-6-3" />
    <path
       style="opacity:0.34800002;fill:#808080;fill-opacity:1;stroke:none;stroke-width:0.26458332;filter:url(#filter2291)"
       d="m 129.7961,107.84621 -23.24003,52.43428 45.81514,-12.20521 z"
       id="path6080-6-1"
       inkscape:connector-curvature="0" />
    <path
       style="opacity:0.34800002;fill:#808080;fill-opacity:1;stroke:none;stroke-width:0.26458332;filter:url(#filter2287)"
       d="M 1.8215683,235.5734 58.969668,230.7208 26.227988,196.42828 Z"
       id="path6080-7-2-9"
       inkscape:connector-curvature="0" />
    <path
       style="opacity:0.34800002;fill:#808080;fill-opacity:1;stroke:none;stroke-width:0.26458332;filter:url(#filter2283)"
       d="m 182.65166,271.95918 -36.6385,-44.12566 -9.43252,46.46527 z"
       id="path6080-7-9-4"
       inkscape:connector-curvature="0" />
    <path
       style="fill:#cccccc;stroke-width:0.26324153"
       d="m 102.18343,116.84354 a 89.140505,89.140505 0 0 0 -89.140299,89.14029 89.140505,89.140505 0 0 0 0.421163,7.71529 L 26.400972,192.95 40.981476,208.22091 a 61.502411,61.502411 0 0 1 -0.07493,-2.10117 61.502411,61.502411 0 0 1 61.502704,-61.5027 61.502411,61.502411 0 0 1 12.1388,1.21388 l 11.4148,-25.75399 a 89.140505,89.140505 0 0 0 -23.77942,-3.23339 z m 41.02023,10.08931 11.96671,21.32531 -20.67936,5.50871 a 61.502411,61.502411 0 0 1 29.42043,52.35287 61.502411,61.502411 0 0 1 -9.1922,32.19855 l 18.15599,21.86637 a 89.140505,89.140505 0 0 0 18.44901,-54.20083 89.140505,89.140505 0 0 0 -48.12058,-79.05098 z m -97.275198,103.35286 -28.757417,2.44171 a 89.140505,89.140505 0 0 0 85.012385,62.39722 89.140505,89.140505 0 0 0 57.3629,-20.99665 l -24.21299,1.22938 4.10052,-20.19928 a 61.502411,61.502411 0 0 1 -37.02461,12.46384 61.502411,61.502411 0 0 1 -56.480788,-37.33622 z"
       id="path53-6"
       inkscape:connector-curvature="0" />
    <path
       style="fill:#cccccc;fill-opacity:1;stroke:none;stroke-width:0.26458332"
       d="m 130.32527,107.31704 -23.24003,52.43428 45.81514,-12.20522 z"
       id="path6080-6"
       inkscape:connector-curvature="0" />
    <path
       style="fill:#cccccc;fill-opacity:1;stroke:none;stroke-width:0.26458332"
       d="M 2.3507405,235.04423 59.498844,230.19162 26.757162,195.89911 Z"
       id="path6080-7-2"
       inkscape:connector-curvature="0" />
    <path
       style="fill:#cccccc;fill-opacity:1;stroke:none;stroke-width:0.26458332"
       d="m 183.18083,271.43 -36.6385,-44.12565 -9.43252,46.46526 z"
       id="path6080-7-9"
       inkscape:connector-curvature="0" />
  </g>
</svg>
