<?xml version="1.0" encoding="UTF-8" standalone="no"?>
<!-- Created with Inkscape (http://www.inkscape.org/) -->

<svg
   xmlns:dc="http://purl.org/dc/elements/1.1/"
   xmlns:cc="http://creativecommons.org/ns#"
   xmlns:rdf="http://www.w3.org/1999/02/22-rdf-syntax-ns#"
   xmlns:svg="http://www.w3.org/2000/svg"
   xmlns="http://www.w3.org/2000/svg"
   xmlns:xlink="http://www.w3.org/1999/xlink"
   xmlns:sodipodi="http://sodipodi.sourceforge.net/DTD/sodipodi-0.dtd"
   xmlns:inkscape="http://www.inkscape.org/namespaces/inkscape"
   width="972"
   height="631"
   id="svg2"
   version="1.1"
   inkscape:version="0.48.4 r9939"
   sodipodi:docname="background_challenge_w.svg">
  <defs
     id="defs4">
    <linearGradient
       inkscape:collect="always"
       id="linearGradient3985">
      <stop
         style="stop-color:#cccccc;stop-opacity:1;"
         offset="0"
         id="stop3987" />
      <stop
         style="stop-color:#cccccc;stop-opacity:0;"
         offset="1"
         id="stop3989" />
    </linearGradient>
    <linearGradient
       id="linearGradient3967">
      <stop
         style="stop-color:#0b6ed4;stop-opacity:1;"
         offset="0"
         id="stop3969" />
      <stop
         style="stop-color:#3282da;stop-opacity:0;"
         offset="1"
         id="stop3971" />
    </linearGradient>
    <linearGradient
       inkscape:collect="always"
       id="linearGradient3784">
      <stop
         style="stop-color:#ee6018;stop-opacity:1;"
         offset="0"
         id="stop3786" />
      <stop
         style="stop-color:#ee6018;stop-opacity:0;"
         offset="1"
         id="stop3788" />
    </linearGradient>
    <linearGradient
       inkscape:collect="always"
       xlink:href="#linearGradient3784"
       id="linearGradient3796"
       gradientUnits="userSpaceOnUse"
       gradientTransform="translate(427.14286,-124.28572)"
       x1="639.5"
       y1="455.21933"
       x2="-113.78568"
       y2="512.36218" />
    <linearGradient
       inkscape:collect="always"
       xlink:href="#linearGradient3985"
       id="linearGradient3993"
       x1="1016.8343"
       y1="1357.0945"
       x2="157.86644"
       y2="1837.9271"
       gradientUnits="userSpaceOnUse"
       gradientTransform="translate(-137.38075,-798.02051)" />
  </defs>
  <sodipodi:namedview
     id="base"
     pagecolor="#ffffff"
     bordercolor="#666666"
     borderopacity="1.0"
     inkscape:pageopacity="0.0"
     inkscape:pageshadow="2"
     inkscape:zoom="1.4"
     inkscape:cx="535.58927"
     inkscape:cy="314.8292"
     inkscape:document-units="px"
     inkscape:current-layer="layer1"
     showgrid="false"
     inkscape:window-width="1855"
     inkscape:window-height="1056"
     inkscape:window-x="65"
     inkscape:window-y="24"
     inkscape:window-maximized="1" />
  <metadata
     id="metadata7">
    <rdf:RDF>
      <cc:Work
         rdf:about="">
        <dc:format>image/svg+xml</dc:format>
        <dc:type
           rdf:resource="http://purl.org/dc/dcmitype/StillImage" />
        <dc:title></dc:title>
      </cc:Work>
    </rdf:RDF>
  </metadata>
  <g
     inkscape:label="Calque 1"
     inkscape:groupmode="layer"
     id="layer1"
     transform="translate(0,-421.36218)">
    <rect
       style="fill:#ffffff;fill-opacity:1;fill-rule:evenodd;stroke:none"
       id="rect2996-3"
       width="971.42859"
       height="631.42859"
       x="-0.10742116"
       y="419.39771" />
    <rect
       style="fill:url(#linearGradient3993);fill-opacity:1;fill-rule:evenodd;stroke:none"
       id="rect2996-3-1"
       width="971.42859"
       height="631.42859"
       x="2.6411037"
       y="421.14648" />
    <rect
       style="opacity:0.16129032;fill:#e2e2e2;fill-opacity:1;stroke:none"
       id="rect3798-6-5"
       width="809.75439"
       height="1.0001177"
       x="2.3544679"
       y="768.33514"
       ry="0.036963236" />
    <rect
       style="opacity:0.16129032;fill:#cccccc;fill-opacity:1;stroke:none"
       id="rect3798-6-5-6"
       width="367.73636"
       height="1.2745483"
       x="1.8439524"
       y="811.30756"
       ry="0.04710589" />
    <rect
       style="opacity:0.16129032;fill:#fefefe;fill-opacity:1;stroke:none"
       id="rect3798-6-5-6-0"
       width="490.09167"
       height="1.2600837"
       x="395.19803"
       y="-843.99005"
       ry="0.046571292"
       transform="scale(1,-1)" />
    <rect
       style="opacity:0.16129032;fill:#fefefe;fill-opacity:1;stroke:none"
       id="rect3798-6-5-6-6"
       width="364.73453"
       height="0.52851164"
       x="259.51575"
       y="645.20917"
       ry="0.019533204" />
    <rect
       style="opacity:0.16129032;fill:#cccccc;fill-opacity:1;stroke:none"
       id="rect3798-6-5-6-2"
       width="45.308193"
       height="1.9477487"
       x="1.9596041"
       y="711.10352"
       ry="0.071986623" />
    <rect
       style="opacity:0.16129032;fill:#fafafa;fill-opacity:1;stroke:none"
       id="rect3798-6-5-6-61"
       width="364.73453"
       height="2.2265973"
       x="434.82211"
       y="554.01416"
       ry="0.082292572" />
    <rect
       style="opacity:0.16129032;fill:#cccccc;fill-opacity:1;stroke:none"
       id="rect3798-6-5-6-8"
       width="455.98987"
       height="1.5044822"
       x="0.15852316"
       y="896.7702"
       ry="0.055603985" />
    <path
       inkscape:connector-curvature="0"
       style="opacity:0.16129032;fill:#f1f1f1;fill-opacity:1;stroke:none"
       d="m 605.62636,695.99329 0,48.97466 24.42861,-25.22938 c 0.0246,-0.0255 0.0253,-0.0714 0,-0.0961 l -24.42861,-23.6492 z"
       id="rect4033-9" />
    <path
       inkscape:connector-curvature="0"
       style="opacity:0.16129032;fill:#f1f1f1;fill-opacity:1;stroke:none"
       d="m 555.89915,970.50655 0,57.54975 28.70588,-29.64682 c 0.0289,-0.0299 0.0297,-0.0839 0,-0.11292 l -28.70588,-27.79001 z"
       id="rect4033-2" />
    <path
       inkscape:connector-curvature="0"
       style="opacity:0.16129032;fill:#cccccc;fill-opacity:1;stroke:none"
       d="m 143.98909,846.8906 0,38.19835 19.05337,-19.67794 c 0.0192,-0.0199 0.0197,-0.0557 0,-0.075 l -19.05337,-18.44547 z"
       id="rect4033-0" />
    <path
       inkscape:connector-curvature="0"
       style="opacity:0.11111111;fill:#ffffff;fill-opacity:1;stroke:none"
       d="m 749.93428,695.49338 0,51.49541 25.68595,-26.52793 c 0.026,-0.0268 0.0267,-0.0751 0,-0.10105 l -25.68595,-24.86643 z"
       id="rect4033-9-3" />
    <path
       inkscape:connector-curvature="0"
       style="opacity:0.16129032;fill:#f8f8f8;fill-opacity:1;stroke:none"
       d="m 629.72927,619.37394 0,37.04637 18.47878,-19.08449 c 0.0187,-0.0193 0.0191,-0.054 0,-0.0727 l -18.47878,-17.88919 z"
       id="rect4033-9-3-6" />
    <path
       inkscape:connector-curvature="0"
       style="opacity:0.16129032;fill:#cccccc;fill-opacity:1;stroke:none"
       d="m 162.48848,641.79944 0,50.24616 25.06283,-25.88439 c 0.0252,-0.0261 0.0259,-0.0733 0,-0.0986 l -25.06283,-24.26319 z"
       id="rect4033-7-7" />
    <path
       inkscape:connector-curvature="0"
       style="opacity:0.16129032;fill:#cccccc;fill-opacity:1;stroke:none"
       d="m 42.773428,726.68706 0,34.13102 17.024581,-17.58265 c 0.01715,-0.0177 0.01757,-0.0498 0,-0.067 L 42.773428,726.68706 z"
       id="rect4033-7-5" />
    <path
       inkscape:connector-curvature="0"
       style="opacity:0.16129032;fill:#cccccc;fill-opacity:1;stroke:none"
       d="m 89.470788,821.67978 0,50.36293 25.121072,-25.94454 c 0.0253,-0.0262 0.026,-0.0735 0,-0.0988 L 89.470788,821.67978 z"
       id="rect4033-7-3" />
    <rect
       style="opacity:0.16129032;fill:#ffffff;fill-opacity:1;stroke:none"
       id="rect3798-6-5-6-0-2"
       width="146.53049"
       height="1.8604476"
       x="660.00995"
       y="-683.57446"
       ry="0.068760082"
       transform="scale(1,-1)" />
    <path
       inkscape:connector-curvature="0"
       style="opacity:0.16129032;fill:#ffffff;fill-opacity:1;stroke:none"
       d="m 666.28828,784.16975 0,45.57293 22.73183,-23.47696 c 0.0229,-0.0237 0.0235,-0.0665 0,-0.0894 l -22.73183,-22.00655 z"
       id="rect4033-9-3-9" />
    <path
       inkscape:connector-curvature="0"
       style="opacity:0.16129032;fill:#cccccc;fill-opacity:1;stroke:none"
       d="m 203.95446,724.02574 0,41.82729 20.86349,-21.54739 c 0.021,-0.0218 0.0215,-0.061 0,-0.082 l -20.86349,-20.19784 z"
       id="rect4033-7-7-0" />
    <path
       inkscape:connector-curvature="0"
       style="opacity:0.16129032;fill:#cccccc;fill-opacity:1;stroke:none"
       d="m 120.54653,772.65345 0,33.40844 16.66415,-17.2104 c 0.0167,-0.0174 0.0172,-0.0488 0,-0.0656 l -16.66415,-16.13249 z"
       id="rect4033-7-7-1" />
    <rect
       style="opacity:0.16129032;fill:#cccccc;fill-opacity:1;stroke:none"
       id="rect3798-6-5-6-0-0"
       width="120.38637"
       height="1.5602658"
       x="20.920187"
       y="-687.62744"
       ry="0.057665691"
       transform="scale(1,-1)" />
    <rect
       style="opacity:0.16129032;fill:#fafafa;fill-opacity:1;stroke:none"
       id="rect3798-6-5-6-0-2-2"
       width="421.62039"
       height="1.2902534"
       x="212.62627"
       y="-601.77667"
       ry="0.047686335"
       transform="scale(1,-1)" />
    <path
       inkscape:connector-curvature="0"
       style="opacity:0.16129032;fill:#f1f1f1;fill-opacity:1;stroke:none"
       d="m 421.08397,684.92751 0,68.10525 33.97096,-35.08453 c 0.0342,-0.0354 0.0351,-0.0993 0,-0.13362 l -33.97096,-32.8871 z"
       id="rect4033-7-51" />
    <rect
       style="opacity:0.16129032;fill:#cccccc;fill-opacity:1;stroke:none"
       id="rect3798-6-5-6-2-7"
       width="138.96408"
       height="1.6475666"
       x="87.277206"
       y="558.146"
       ry="0.060892232" />
    <rect
       style="opacity:0.16129032;fill:#cccccc;fill-opacity:1;stroke:none"
       id="rect3798-6-5-6-2-1"
       width="245.52869"
       height="1.3473846"
       x="2.3256848"
       y="537.43341"
       ry="0.049797837" />
    <path
       inkscape:connector-curvature="0"
       style="opacity:0.16129032;fill:#cccccc;fill-opacity:1;stroke:none"
       d="m 77.506292,908.15488 0,80.79094 40.298608,-41.61958 c 0.0406,-0.042 0.0417,-0.11781 0,-0.15852 L 77.506292,908.15488 z"
       id="rect4033-7-0" />
    <path
       inkscape:connector-curvature="0"
       style="opacity:0.16129032;fill:#cccccc;fill-opacity:1;stroke:none"
       d="m 165.58757,959.78543 0,50.24617 25.06282,-25.88439 c 0.0252,-0.0261 0.0259,-0.0733 0,-0.0986 l -25.06282,-24.26319 z"
       id="rect4033-7-7-6" />
    <rect
       style="opacity:0.16129032;fill:#cccccc;fill-opacity:1;stroke:none"
       id="rect3798-6-5-6-0-0-9"
       width="113.78236"
       height="0.85366899"
       x="20.447836"
       y="-1012.4068"
       ry="0.031550657"
       transform="scale(1,-1)" />
    <rect
       style="opacity:0.16129032;fill:#cccccc;fill-opacity:1;stroke:none"
       id="rect3798-6-5-6-2-3-2"
       width="158.77609"
       height="1.7976576"
       x="-1.4794239"
       y="998.6062"
       ry="0.066439427" />
    <rect
       style="opacity:0.16129032;fill:#cccccc;fill-opacity:1;stroke:none"
       id="rect3798-6-5-6-2-12-4"
       width="70.372498"
       height="2.5481126"
       x="2.2728567"
       y="942.77234"
       ry="0.094175413" />
    <path
       inkscape:connector-curvature="0"
       style="opacity:0.11111111;fill:#ffffff;fill-opacity:1;stroke:none"
       d="m 744.47603,571.35865 0,47.23489 23.56081,-24.33313 c 0.0238,-0.0245 0.0243,-0.0689 0,-0.0927 l -23.56081,-22.80907 z"
       id="rect4033-9-3-6-4" />
    <path
       inkscape:connector-curvature="0"
       style="opacity:0.16129032;fill:#ffffff;fill-opacity:1;stroke:none"
       d="m 686.73279,574.75482 0,37.04637 18.47877,-19.08449 c 0.0187,-0.0192 0.0191,-0.054 0,-0.0727 l -18.47877,-17.88919 z"
       id="rect4033-9-3-6-5" />
    <rect
       style="opacity:0.16129032;fill:#ffffff;fill-opacity:1;stroke:none"
       id="rect3798-6-5-6-0-2-9"
       width="112.56876"
       height="2.4608119"
       x="702.52399"
       y="-630.1167"
       ry="0.090948872"
       transform="scale(1,-1)" />
    <rect
       style="opacity:0.16129032;fill:#f0f0f0;fill-opacity:1;stroke:none"
       id="rect3798-6-5-6-6-1"
       width="364.73453"
       height="2.2265975"
       x="261.11777"
       y="964.90161"
       ry="0.082292572" />
    <rect
       style="opacity:0.16129032;fill:#f0f0f0;fill-opacity:1;stroke:none"
       id="rect3798-6-5-6-61-2"
       width="364.73453"
       height="1.2745482"
       x="436.42413"
       y="873.70667"
       ry="0.04710589" />
    <path
       inkscape:connector-curvature="0"
       style="opacity:0.16129032;fill:#ffffff;fill-opacity:1;stroke:none"
       d="m 663.65618,945.12733 0,37.04638 18.47878,-19.0845 c 0.0185,-0.0192 0.0193,-0.054 0,-0.0727 l -18.47878,-17.88919 z"
       id="rect4033-9-3-6-8" />
    <rect
       style="opacity:0.16129032;fill:#ffffff;fill-opacity:1;stroke:none"
       id="rect3798-6-5-6-0-2-96"
       width="217.24117"
       height="1.5679547"
       x="661.61194"
       y="-1002.9744"
       ry="0.057949863"
       transform="scale(1,-1)" />
    <path
       inkscape:connector-curvature="0"
       style="opacity:0.11111111;fill:#ffffff;fill-opacity:1;stroke:none"
       d="m 746.07808,891.05112 0,47.23489 23.56083,-24.33312 c 0.0235,-0.0245 0.0244,-0.0689 0,-0.0927 l -23.56083,-22.80908 z"
       id="rect4033-9-3-6-4-0" />
    <path
       inkscape:connector-curvature="0"
       style="opacity:0.16129032;fill:#ffffff;fill-opacity:1;stroke:none"
       d="m 688.33481,894.44729 0,37.04638 18.47878,-19.0845 c 0.0185,-0.0193 0.0193,-0.054 0,-0.0727 l -18.47878,-17.88919 z"
       id="rect4033-9-3-6-5-6" />
    <rect
       style="opacity:0.16129032;fill:#ffffff;fill-opacity:1;stroke:none"
       id="rect3798-6-5-6-0-2-9-4"
       width="112.56876"
       height="1.5602657"
       x="704.12604"
       y="-948.90863"
       ry="0.057665691"
       transform="scale(1,-1)" />
    <path
       id="path3057"
       d="m 130.93436,717.86463 v -3.50857 h -17.54284 v 3.50857 h -5.26286 v 3.50857 c 0,2.90684 2.35601,5.26285 5.26286,5.26285 0.54997,0 1.08064,-0.0842 1.57973,-0.24122 1.26572,1.80955 3.19631,3.11912 5.43741,3.57436 v 5.43827 h -1.75429 c -1.93761,0 -3.50857,1.57097 -3.50857,3.50858 h 14.03428 c 0,-1.93761 -1.57096,-3.50858 -3.50857,-3.50858 h -1.75428 v -5.43827 c 2.2411,-0.45524 4.17168,-1.76481 5.4374,-3.57436 0.49822,0.15702 1.02889,0.24122 1.57973,0.24122 2.90685,0 5.26285,-2.35601 5.26285,-5.26285 v -3.50857 h -5.26285 z m -17.54284,6.68821 c -1.75341,0 -3.17964,-1.42624 -3.17964,-3.17964 v -1.75429 h 3.17964 v 1.75429 c 0,1.10169 0.2035,2.15513 0.57453,3.127 -0.18683,0.0342 -0.37805,0.0526 -0.57453,0.0526 z M 134.114,721.3732 c 0,1.7534 -1.42623,3.17964 -3.17964,3.17964 -0.19647,0 -0.3877,-0.0184 -0.57452,-0.0526 0.37103,-0.971 0.57452,-2.02533 0.57452,-3.12702 v -1.75427 h 3.17964 v 1.75427 z"
       inkscape:connector-curvature="0"
       style="opacity:0.16129032;fill:#cccccc;fill-opacity:1" />
    <path
       id="path3068"
       d="m 692.65036,747.2208 v -2.98436 h -3.97914 v -3.97914 c 3.29672,0 5.96872,-2.66901 5.96872,-5.96176 v -0.0105 c 3.48175,-1.49218 3.97914,-8.95309 3.97914,-8.95309 h -20.89051 c 0,0 0.49738,7.46091 3.97914,8.95309 v 0.0105 c 0,3.29076 2.67697,5.95877 5.96872,5.96176 v 3.97914 h -3.97915 v 2.98436 h -2.98435 v 3.97915 h 14.92179 v -3.97915 h -2.98436 z m -10.94265,-20.8905 v 6.86402 c -2.33376,-1.67026 -2.88488,-6.86402 -2.88488,-6.86402 h 2.88488 z m 12.91433,0 h 2.88487 c 0,0 -0.55211,5.17388 -2.88487,6.84412 v -6.84412 z"
       inkscape:connector-curvature="0"
       style="opacity:0.16129032;fill:#ffffff;fill-opacity:1" />
    <path
       id="path3079"
       d="m 546.42778,714.50619 h 6.92619 v 9.23492 h -34.63091 v -9.23492 h 6.92618 V 707.58 h 9.23491 v -9.23492 c -7.63958,0 -13.85236,-6.19892 -13.85236,-13.83616 v -0.0231 c -8.08055,-3.46307 -9.2349,-20.77853 -9.2349,-20.77853 h 48.48326 c 0,0 -1.15437,17.31546 -9.23492,20.77853 v 0.0231 c 0,7.64185 -6.20123,13.8293 -13.85236,13.83616 V 707.58 h 9.23491 v 6.92619 z m -23.08726,-48.48328 v 18.45135 c 0,6.38596 5.16925,11.5621 11.54595,11.5621 h 2.30409 c 6.37671,0 11.54596,-5.15997 11.54596,-11.5621 v -18.45135 h -25.396 z m -2.30873,0 h -6.6953 c 0,0 1.27904,12.05389 6.6953,15.93024 v -15.93024 z m 29.97189,0 v 15.88403 c 5.41628,-3.87634 6.69531,-15.88403 6.69531,-15.88403 h -6.69531 z m -23.04571,43.86586 v 4.61742 h 16.16109 v -4.61742 h -16.16109 z m -6.92618,6.92612 v 4.6175 h 30.01344 v -4.6175 h -30.01344 z"
       inkscape:connector-curvature="0"
       style="opacity:0.16129032;fill:#f1f1f1;fill-opacity:1" />
    <path
       id="path3068-3"
       d="m 777.07036,665.60611 v -2.91509 h -3.8868 v -3.88679 c 3.22021,0 5.8302,-2.60707 5.8302,-5.82339 v -0.0103 c 3.40094,-1.45755 3.88679,-8.74529 3.88679,-8.74529 h -20.40567 c 0,0 0.48584,7.28774 3.8868,8.74529 v 0.0103 c 0,3.21438 2.61483,5.82048 5.83019,5.82339 v 3.88679 h -3.8868 v 2.91509 h -2.9151 v 3.88681 h 14.57548 v -3.88681 h -2.91509 z m -10.68868,-20.40565 v 6.70472 c -2.27961,-1.6315 -2.81794,-6.70472 -2.81794,-6.70472 h 2.81794 z m 12.61459,0 h 2.81792 c 0,0 -0.53929,5.0538 -2.81792,6.68528 v -6.68528 z"
       inkscape:connector-curvature="0"
       style="opacity:0.11111111;fill:#ffffff;fill-opacity:1" />
    <path
       id="path3068-6"
       d="m 555.9291,631.20049 v -2.1532 h -2.87093 v -2.87093 c 2.37857,0 4.3064,-1.92567 4.3064,-4.30137 v -0.008 c 2.51207,-1.0766 2.87093,-6.4596 2.87093,-6.4596 h -15.0724 c 0,0 0.35887,5.383 2.87094,6.4596 v 0.008 c 0,2.37426 1.93142,4.29922 4.30639,4.30137 v 2.87093 h -2.87093 v 2.1532 h -2.1532 v 2.87094 h 10.766 v -2.87094 h -2.1532 z m -7.89506,-15.07239 v 4.95236 c -1.6838,-1.20508 -2.08143,-4.95236 -2.08143,-4.95236 h 2.08143 z m 9.31761,0 h 2.08142 c 0,0 -0.39834,3.73293 -2.08142,4.93801 v -4.93801 z"
       inkscape:connector-curvature="0"
       style="opacity:0.16129032;fill:#f1f1f1;fill-opacity:1" />
    <path
       id="path3068-7"
       d="m 360.41649,574.35109 v -4.71593 h -6.28791 v -6.28792 c 5.20954,0 9.43189,-4.21761 9.43189,-9.42088 v -0.0166 c 5.50192,-2.35797 6.28791,-14.14784 6.28791,-14.14784 h -33.01159 c 0,0 0.78598,11.78987 6.28793,14.14784 v 0.0166 c 0,5.20011 4.23019,9.41617 9.43187,9.42088 v 6.28792 h -6.28792 v 4.71593 h -4.71594 v 6.28794 h 23.57971 v -6.28794 h -4.71595 z m -17.29177,-33.01157 v 10.84666 c -3.68787,-2.63936 -4.55875,-10.84666 -4.55875,-10.84666 h 4.55875 z m 20.40745,0 h 4.55874 c 0,0 -0.87245,8.17587 -4.55874,10.81522 v -10.81522 z"
       inkscape:connector-curvature="0"
       style="opacity:0.16129032;fill:#cccccc;fill-opacity:1" />
    <path
       id="path3068-5"
       d="m 556.52946,808.90824 v -2.1532 h -2.87093 v -2.87093 c 2.37857,0 4.3064,-1.92568 4.3064,-4.30138 v -0.008 c 2.51207,-1.0766 2.87093,-6.4596 2.87093,-6.4596 h -15.0724 c 0,0 0.35887,5.383 2.87094,6.4596 v 0.008 c 0,2.37427 1.93142,4.29923 4.30639,4.30138 v 2.87093 h -2.87093 v 2.1532 h -2.1532 v 2.87094 h 10.766 v -2.87094 h -2.1532 z m -7.89506,-15.07239 v 4.95236 c -1.6838,-1.20508 -2.08143,-4.95236 -2.08143,-4.95236 h 2.08143 z m 9.31761,0 h 2.08142 c 0,0 -0.39834,3.73293 -2.08142,4.938 v -4.938 z"
       inkscape:connector-curvature="0"
       style="opacity:0.16129032;fill:#f1f1f1;fill-opacity:1" />
    <path
       id="path3068-7-6"
       d="m 73.86431,627.44042 v -4.07269 h -5.43025 v -5.43026 c 4.498965,0 8.145394,-3.64233 8.145394,-8.13588 v -0.0143 c 4.751472,-2.03635 5.430251,-12.21809 5.430251,-12.21809 H 53.500838 c 0,0 0.678779,10.18174 5.430272,12.21809 v 0.0143 c 0,4.49082 3.653194,8.13182 8.145379,8.13588 v 5.43026 h -5.430258 v 4.07269 h -4.072693 v 5.43027 H 77.93701 v -5.43027 h -4.0727 z m -14.9332,-28.50885 v 9.3672 c -3.18485,-2.27937 -3.936948,-9.3672 -3.936948,-9.3672 h 3.936948 z m 17.623903,0 h 3.936936 c 0,0 -0.753448,7.06069 -3.936936,9.34005 v -9.34005 z"
       inkscape:connector-curvature="0"
       style="opacity:0.16129032;fill:#cccccc;fill-opacity:1" />
    <path
       id="path3068-6-2"
       d="m 150.72731,628.58926 v -2.1532 h -2.87092 v -2.87093 c 2.37856,0 4.3064,-1.92568 4.3064,-4.30138 v -0.008 c 2.51206,-1.0766 2.87093,-6.45961 2.87093,-6.45961 h -15.0724 c 0,0 0.35886,5.38301 2.87094,6.45961 v 0.008 c 0,2.37426 1.93141,4.29922 4.30639,4.30138 v 2.87093 h -2.87093 v 2.1532 h -2.1532 v 2.87093 h 10.76599 v -2.87093 h -2.1532 z m -7.89505,-15.07239 v 4.95236 c -1.68381,-1.20508 -2.08143,-4.95236 -2.08143,-4.95236 h 2.08143 z m 9.31761,0 h 2.08142 c 0,0 -0.39834,3.73293 -2.08142,4.938 v -4.938 z"
       inkscape:connector-curvature="0"
       style="opacity:0.16129032;fill:#cccccc;fill-opacity:1" />
    <path
       id="path3068-6-9"
       d="m 303.13052,716.04068 v -2.1532 h -2.87093 v -2.87093 c 2.37857,0 4.3064,-1.92567 4.3064,-4.30137 v -0.008 c 2.51207,-1.0766 2.87093,-6.4596 2.87093,-6.4596 h -15.0724 c 0,0 0.35887,5.383 2.87094,6.4596 v 0.008 c 0,2.37426 1.93142,4.29922 4.30639,4.30137 v 2.87093 h -2.87093 v 2.1532 h -2.1532 v 2.87094 h 10.766 v -2.87094 h -2.1532 z m -7.89506,-15.07238 v 4.95235 c -1.6838,-1.20508 -2.08143,-4.95235 -2.08143,-4.95235 h 2.08143 z m 9.31761,0 h 2.08142 c 0,0 -0.39834,3.73293 -2.08142,4.938 v -4.938 z"
       inkscape:connector-curvature="0"
       style="opacity:0.16129032;fill:#cccccc;fill-opacity:1" />
    <path
       id="path3068-6-1"
       d="m 302.28148,837.45382 v -2.1532 h -2.87093 v -2.87093 c 2.37856,0 4.3064,-1.92568 4.3064,-4.30138 v -0.008 c 2.51206,-1.0766 2.87093,-6.4596 2.87093,-6.4596 h -15.0724 c 0,0 0.35887,5.383 2.87094,6.4596 v 0.008 c 0,2.37427 1.93141,4.29923 4.30639,4.30138 v 2.87093 h -2.87093 v 2.1532 h -2.1532 v 2.87094 h 10.766 v -2.87094 h -2.1532 z m -7.89506,-15.07239 v 4.95236 c -1.6838,-1.20508 -2.08143,-4.95236 -2.08143,-4.95236 h 2.08143 z m 9.31761,0 h 2.08142 c 0,0 -0.39834,3.73293 -2.08142,4.938 v -4.938 z"
       inkscape:connector-curvature="0"
       style="opacity:0.16129032;fill:#cccccc;fill-opacity:1" />
    <path
       id="path3068-6-27"
       d="m 216.52814,877.78336 v -2.1532 h -2.87093 v -2.87093 c 2.37857,0 4.3064,-1.92567 4.3064,-4.30137 v -0.008 c 2.51207,-1.0766 2.87093,-6.4596 2.87093,-6.4596 h -15.0724 c 0,0 0.35887,5.383 2.87094,6.4596 v 0.008 c 0,2.37426 1.93142,4.29922 4.30639,4.30137 v 2.87093 h -2.87092 v 2.1532 h -2.15321 v 2.87094 h 10.766 v -2.87094 h -2.1532 z m -7.89506,-15.07239 v 4.95236 c -1.6838,-1.20508 -2.08143,-4.95236 -2.08143,-4.95236 h 2.08143 z m 9.31761,0 h 2.08142 c 0,0 -0.39834,3.73293 -2.08142,4.93801 v -4.93801 z"
       inkscape:connector-curvature="0"
       style="opacity:0.16129032;fill:#cccccc;fill-opacity:1" />
    <path
       id="path3068-6-0"
       d="m 39.502689,866.32128 v -2.1532 h -2.870928 v -2.87093 c 2.378566,0 4.306401,-1.92567 4.306401,-4.30137 v -0.008 c 2.512065,-1.0766 2.870929,-6.4596 2.870929,-6.4596 H 28.736694 c 0,0 0.358864,5.383 2.870937,6.4596 v 0.008 c 0,2.37426 1.931416,4.29922 4.306393,4.30137 v 2.87093 h -2.870928 v 2.1532 h -2.153201 v 2.87094 H 41.65589 v -2.87094 h -2.153201 z m -7.895058,-15.07239 v 4.95236 c -1.683801,-1.20508 -2.081429,-4.95236 -2.081429,-4.95236 h 2.081429 z m 9.317612,0 h 2.081422 c 0,0 -0.398343,3.73293 -2.081422,4.93801 v -4.93801 z"
       inkscape:connector-curvature="0"
       style="opacity:0.16129032;fill:#cccccc;fill-opacity:1" />
    <path
       id="path3068-6-93"
       d="m 257.2822,940.61254 v -2.1532 h -2.87093 v -2.87093 c 2.37857,0 4.3064,-1.92567 4.3064,-4.30138 v -0.008 c 2.51207,-1.0766 2.87093,-6.4596 2.87093,-6.4596 h -15.0724 c 0,0 0.35887,5.383 2.87094,6.4596 v 0.008 c 0,2.37427 1.93141,4.29923 4.30639,4.30138 v 2.87093 h -2.87093 v 2.1532 h -2.1532 v 2.87094 h 10.766 v -2.87094 h -2.1532 z m -7.89506,-15.07239 v 4.95236 c -1.6838,-1.20508 -2.08143,-4.95236 -2.08143,-4.95236 h 2.08143 z m 9.31761,0 h 2.08142 c 0,0 -0.39834,3.73293 -2.08142,4.938 v -4.938 z"
       inkscape:connector-curvature="0"
       style="opacity:0.16129032;fill:#cccccc;fill-opacity:1" />
    <path
       id="path3068-6-6"
       d="m 19.762876,563.21285 v -1.51651 h -2.022003 v -2.02201 c 1.675231,0 3.03301,-1.35625 3.03301,-3.02946 v -0.005 c 1.769255,-0.75826 2.022003,-4.54952 2.022003,-4.54952 H 12.180357 c 0,0 0.252749,3.79126 2.022009,4.54952 v 0.005 c 0,1.67219 1.360301,3.02795 3.033004,3.02946 v 2.02201 h -2.022003 v 1.51651 h -1.516505 v 2.022 h 7.582519 v -2.022 h -1.516505 z m -5.56051,-10.61553 v 3.48796 c -1.185906,-0.84874 -1.465957,-3.48796 -1.465957,-3.48796 h 1.465957 z m 6.562419,0 h 1.46595 c 0,0 -0.280553,2.62911 -1.46595,3.47785 v -3.47785 z"
       inkscape:connector-curvature="0"
       style="opacity:0.16129032;fill:#cccccc;fill-opacity:1" />
    <path
       id="path3068-6-06"
       d="m 33.559389,978.39494 v -2.1532 H 30.68846 v -2.87093 c 2.378567,0 4.306401,-1.92567 4.306401,-4.30137 v -0.008 c 2.512065,-1.0766 2.870929,-6.4596 2.870929,-6.4596 H 22.793393 c 0,0 0.358864,5.383 2.870938,6.4596 v 0.008 c 0,2.37426 1.931415,4.29922 4.306393,4.30137 v 2.87093 h -2.870929 v 2.1532 h -2.153201 v 2.87094 h 10.765995 v -2.87094 h -2.1532 z m -7.895058,-15.07239 v 4.95236 c -1.683802,-1.20508 -2.08143,-4.95236 -2.08143,-4.95236 h 2.08143 z m 9.317612,0 h 2.081421 c 0,0 -0.398343,3.73293 -2.081421,4.93801 v -4.93801 z"
       inkscape:connector-curvature="0"
       style="opacity:0.16129032;fill:#cccccc;fill-opacity:1" />
    <path
       id="path3068-6-26"
       d="m 63.325042,795.75271 v -1.90832 h -2.544419 v -2.54442 c 2.108053,0 3.816636,-1.70667 3.816636,-3.81218 v -0.007 c 2.226368,-0.95417 2.544418,-5.72496 2.544418,-5.72496 H 53.78346 c 0,0 0.318051,4.77079 2.544426,5.72496 v 0.007 c 0,2.10423 1.711756,3.81028 3.816628,3.81218 v 2.54442 h -2.544418 v 1.90832 h -1.908318 v 2.54442 h 9.541582 v -2.54442 H 63.325042 z M 56.327886,782.3945 v 4.38912 c -1.492303,-1.06803 -1.844709,-4.38912 -1.844709,-4.38912 h 1.844709 z m 8.257923,0 h 1.844702 c 0,0 -0.353039,3.30839 -1.844702,4.3764 v -4.3764 z"
       inkscape:connector-curvature="0"
       style="opacity:0.16129032;fill:#cccccc;fill-opacity:1" />
    <path
       id="path3068-6-18"
       d="m 576.89385,934.47716 v -4.78522 h -6.38026 v -6.38027 c 5.28606,0 9.57042,-4.27955 9.57042,-9.55924 v -0.0168 c 5.58273,-2.3926 6.38026,-14.35562 6.38026,-14.35562 h -33.49644 c 0,0 0.79753,11.96302 6.38029,14.35562 v 0.0168 c 0,5.2765 4.29232,9.55447 9.57039,9.55924 v 6.38027 h -6.38026 v 4.78522 h -4.78521 v 6.38028 h 23.92602 v -6.38028 h -4.78521 z m -17.54573,-33.49643 v 11.00598 c -3.74203,-2.67814 -4.62571,-11.00598 -4.62571,-11.00598 h 4.62571 z m 20.70718,0 h 4.62568 c 0,0 -0.88526,8.29596 -4.62568,10.97407 v -10.97407 z"
       inkscape:connector-curvature="0"
       style="opacity:0.16129032;fill:#f1f1f1;fill-opacity:1" />
    <path
       id="path3079-7"
       d="m 375.24177,960.45245 h 6.92619 v 9.23491 h -34.63092 v -9.23491 h 6.92619 v -6.92619 h 9.23491 v -9.23492 c -7.63958,0 -13.85237,-6.19893 -13.85237,-13.83617 v -0.0231 c -8.08054,-3.46307 -9.23489,-20.77853 -9.23489,-20.77853 h 48.48325 c 0,0 -1.15437,17.31546 -9.23491,20.77853 v 0.0231 c 0,7.64186 -6.20124,13.82931 -13.85236,13.83617 v 9.23492 h 9.23491 v 6.92619 z m -23.08726,-48.48328 v 18.45135 c 0,6.38596 5.16924,11.5621 11.54595,11.5621 h 2.30409 c 6.37671,0 11.54596,-5.15997 11.54596,-11.5621 v -18.45135 h -25.396 z m -2.30874,0 h -6.69529 c 0,0 1.27903,12.05389 6.69529,15.93024 v -15.93024 z m 29.9719,0 v 15.88403 c 5.41627,-3.87635 6.69531,-15.88403 6.69531,-15.88403 h -6.69531 z m -23.04571,43.86586 v 4.61742 h 16.16108 v -4.61742 h -16.16108 z m -6.92619,6.92612 v 4.61749 h 30.01345 v -4.61749 h -30.01345 z"
       inkscape:connector-curvature="0"
       style="opacity:0.16129032;fill:#cccccc;fill-opacity:1" />
    <path
       id="path3079-7-9"
       d="m 248.4918,1026.516 h 4.50034 v 6.0005 h -22.50172 v -6.0005 h 4.50034 v -4.5003 h 6.00046 v -6.0004 c -4.96387,0 -9.00069,-4.0279 -9.00069,-8.9902 v -0.015 c -5.25039,-2.2502 -6.00045,-13.50103 -6.00045,-13.50103 h 31.5024 c 0,0 -0.75006,11.25083 -6.00046,13.50103 v 0.015 c 0,4.9653 -4.0293,8.9856 -9.00069,8.9902 v 6.0004 h 6.00047 v 4.5003 z m -15.00114,-31.50233 v 11.98893 c 0,4.1492 3.35876,7.5125 7.50207,7.5125 h 1.4971 c 4.14332,0 7.50209,-3.3528 7.50209,-7.5125 v -11.98893 h -16.50126 z m -1.50013,0 h -4.35032 c 0,0 0.83107,7.83213 4.35032,10.35073 v -10.35073 z m 19.47449,0 v 10.32073 c 3.51927,-2.5186 4.35034,-10.32073 4.35034,-10.32073 h -4.35034 z m -14.97414,28.50213 v 3.0002 h 10.5008 v -3.0002 h -10.5008 z m -4.50035,4.5004 v 3.0002 h 19.50149 v -3.0002 h -19.50149 z"
       inkscape:connector-curvature="0"
       style="opacity:0.16129032;fill:#cccccc;fill-opacity:1" />
    <path
       id="path3079-7-2"
       d="m 249.58342,690.4568 h 6.92618 v 9.23491 h -34.63091 v -9.23491 h 6.92618 v -6.9262 h 9.23491 v -9.23491 c -7.63958,0 -13.85236,-6.19893 -13.85236,-13.83617 v -0.0231 c -8.08054,-3.46307 -9.2349,-20.77853 -9.2349,-20.77853 h 48.48326 c 0,0 -1.15437,17.31546 -9.23492,20.77853 v 0.0231 c 0,7.64186 -6.20123,13.82931 -13.85236,13.83617 v 9.23491 h 9.23492 v 6.9262 z m -23.08727,-48.48328 v 18.45135 c 0,6.38596 5.16925,11.5621 11.54595,11.5621 h 2.30409 c 6.37671,0 11.54596,-5.15997 11.54596,-11.5621 v -18.45135 h -25.396 z m -2.30873,0 h -6.6953 c 0,0 1.27904,12.05389 6.6953,15.93024 v -15.93024 z m 29.97189,0 v 15.88403 c 5.41628,-3.87635 6.69531,-15.88403 6.69531,-15.88403 h -6.69531 z m -23.04571,43.86585 v 4.61743 h 16.16109 v -4.61743 H 231.1136 z m -6.92618,6.92613 v 4.61749 h 30.01344 v -4.61749 h -30.01344 z"
       inkscape:connector-curvature="0"
       style="opacity:0.16129032;fill:#cccccc;fill-opacity:1" />
    <path
       inkscape:connector-curvature="0"
       style="opacity:0.11111111;fill:#ffffff;fill-opacity:1;stroke:none"
       d="m 892.84821,548.28955 0,51.49541 25.68595,-26.52793 c 0.026,-0.0268 0.0267,-0.0751 0,-0.10105 l -25.68595,-24.86643 z"
       id="rect4033-9-3-2" />
    <path
       inkscape:connector-curvature="0"
       style="opacity:0.11111111;fill:#ffffff;fill-opacity:1;stroke:none"
       d="m 804.96808,478.23103 0,37.04637 18.47878,-19.08449 c 0.0187,-0.0193 0.0191,-0.054 0,-0.0727 l -18.47878,-17.88919 z"
       id="rect4033-9-3-6-3" />
    <rect
       style="opacity:0.11111111;fill:#ffffff;fill-opacity:1;stroke:none"
       id="rect3798-6-5-6-0-6-7"
       width="66.720436"
       height="2.1606297"
       x="893.77148"
       y="-659.7821"
       ry="0.079854473"
       transform="scale(1,-1)" />
    <rect
       style="opacity:0.11111111;fill:#ffffff;fill-opacity:1;stroke:none"
       id="rect3798-6-5-6-0-2-5"
       width="146.53049"
       height="1.8604476"
       x="802.92389"
       y="-536.37061"
       ry="0.068760082"
       transform="scale(1,-1)" />
    <path
       inkscape:connector-curvature="0"
       style="opacity:0.11111111;fill:#ffffff;fill-opacity:1;stroke:none"
       d="m 843.5474,636.96592 0,45.57293 22.73183,-23.47696 c 0.0229,-0.0237 0.0235,-0.0665 0,-0.0894 L 843.5474,636.96594 z"
       id="rect4033-9-3-9-9" />
    <path
       inkscape:connector-curvature="0"
       style="opacity:0.11111111;fill:#ffffff;fill-opacity:1;stroke:none"
       d="m 887.38996,424.15482 0,47.23489 23.56081,-24.33313 c 0.0238,-0.0245 0.0243,-0.0689 0,-0.0927 l -23.56081,-22.80907 z"
       id="rect4033-9-3-6-4-2" />
    <path
       inkscape:connector-curvature="0"
       style="opacity:0.11111111;fill:#ffffff;fill-opacity:1;stroke:none"
       d="m 829.64672,427.55099 0,37.04637 18.47877,-19.08449 c 0.0187,-0.0192 0.0191,-0.054 0,-0.0727 l -18.47877,-17.88919 z"
       id="rect4033-9-3-6-5-2" />
    <rect
       style="opacity:0.11111111;fill:#ffffff;fill-opacity:1;stroke:none"
       id="rect3798-6-5-6-0-2-9-8"
       width="112.56876"
       height="2.4608119"
       x="845.43793"
       y="-482.91284"
       ry="0.090948872"
       transform="scale(1,-1)" />
    <path
       id="path3068-9"
       d="m 835.56429,600.01697 v -2.98436 h -3.97914 v -3.97914 c 3.29672,0 5.96872,-2.66901 5.96872,-5.96176 v -0.0105 c 3.48175,-1.49218 3.97914,-8.95309 3.97914,-8.95309 H 820.6425 c 0,0 0.49738,7.46091 3.97914,8.95309 v 0.0105 c 0,3.29076 2.67697,5.95877 5.96872,5.96176 v 3.97914 h -3.97915 v 2.98436 h -2.98435 v 3.97915 h 14.92179 v -3.97915 h -2.98436 z m -10.94265,-20.8905 v 6.86402 c -2.33376,-1.67026 -2.88488,-6.86402 -2.88488,-6.86402 h 2.88488 z m 12.91433,0 h 2.88487 c 0,0 -0.55211,5.17388 -2.88487,6.84412 v -6.84412 z"
       inkscape:connector-curvature="0"
       style="opacity:0.11111111;fill:#ffffff;fill-opacity:1" />
    <path
       id="path3068-3-7"
       d="m 919.98429,518.40228 v -2.91509 h -3.8868 v -3.88679 c 3.22021,0 5.8302,-2.60707 5.8302,-5.82339 v -0.0103 c 3.40094,-1.45755 3.88679,-8.74529 3.88679,-8.74529 h -20.40567 c 0,0 0.48584,7.28774 3.8868,8.74529 v 0.0103 c 0,3.21438 2.61483,5.82048 5.83019,5.82339 v 3.88679 h -3.8868 v 2.91509 h -2.9151 v 3.88681 h 14.57548 v -3.88681 h -2.91509 z m -10.68868,-20.40565 v 6.70472 c -2.27961,-1.6315 -2.81794,-6.70472 -2.81794,-6.70472 h 2.81794 z m 12.61459,0 h 2.81792 c 0,0 -0.53929,5.0538 -2.81792,6.68528 v -6.68528 z"
       inkscape:connector-curvature="0"
       style="opacity:0.11111111;fill:#ffffff;fill-opacity:1" />
    <path
       id="path3068-5-6"
       d="m 699.44339,661.70441 v -2.1532 h -2.87093 v -2.87093 c 2.37857,0 4.3064,-1.92568 4.3064,-4.30138 v -0.008 c 2.51207,-1.0766 2.87093,-6.4596 2.87093,-6.4596 h -15.0724 c 0,0 0.35887,5.383 2.87094,6.4596 v 0.008 c 0,2.37427 1.93142,4.29923 4.30639,4.30138 v 2.87093 h -2.87093 v 2.1532 h -2.1532 v 2.87094 h 10.766 v -2.87094 h -2.1532 z m -7.89506,-15.07239 v 4.95236 c -1.6838,-1.20508 -2.08143,-4.95236 -2.08143,-4.95236 h 2.08143 z m 9.31761,0 h 2.08142 c 0,0 -0.39834,3.73293 -2.08142,4.938 v -4.938 z"
       inkscape:connector-curvature="0"
       style="opacity:0.16129032;fill:#ffffff;fill-opacity:1" />
    <path
       inkscape:connector-curvature="0"
       style="opacity:0.11111111;fill:#ffffff;fill-opacity:1;stroke:none"
       d="m 901.0847,821.03073 0,51.49541 25.68594,-26.52793 c 0.026,-0.0268 0.0267,-0.0751 0,-0.10105 L 901.0847,821.03073 z"
       id="rect4033-9-3-2-1" />
    <path
       inkscape:connector-curvature="0"
       style="opacity:0.11111111;fill:#ffffff;fill-opacity:1;stroke:none"
       d="m 813.20457,750.97221 0,37.04637 18.47878,-19.08449 c 0.0187,-0.0193 0.0191,-0.054 0,-0.0727 L 813.20457,750.9722 z"
       id="rect4033-9-3-6-3-2" />
    <rect
       style="opacity:0.11111111;fill:#ffffff;fill-opacity:1;stroke:none"
       id="rect3798-6-5-6-0-6-7-9"
       width="66.720436"
       height="2.1606297"
       x="902.008"
       y="-932.52325"
       ry="0.079854473"
       transform="scale(1,-1)" />
    <rect
       style="opacity:0.11111111;fill:#ffffff;fill-opacity:1;stroke:none"
       id="rect3798-6-5-6-0-2-5-3"
       width="241.48483"
       height="1.8604476"
       x="716.20605"
       y="-809.11182"
       ry="0.068760082"
       transform="scale(1,-1)" />
    <path
       inkscape:connector-curvature="0"
       style="opacity:0.11111111;fill:#ffffff;fill-opacity:1;stroke:none"
       d="m 851.78389,909.7071 0,45.57293 22.73183,-23.47696 c 0.0229,-0.0237 0.0235,-0.0665 0,-0.0894 l -22.73183,-22.00655 z"
       id="rect4033-9-3-9-9-1" />
    <path
       inkscape:connector-curvature="0"
       style="opacity:0.11111111;fill:#ffffff;fill-opacity:1;stroke:none"
       d="m 895.62645,696.896 0,47.23489 23.5608,-24.33313 c 0.0238,-0.0245 0.0243,-0.0689 0,-0.0927 l -23.5608,-22.80907 z"
       id="rect4033-9-3-6-4-2-9" />
    <rect
       style="opacity:0.11111111;fill:#ffffff;fill-opacity:1;stroke:none"
       id="rect3798-6-5-6-0-2-9-8-7"
       width="112.56876"
       height="2.4608119"
       x="853.67444"
       y="-755.65399"
       ry="0.090948872"
       transform="scale(1,-1)" />
    <path
       id="path3068-9-8"
       d="m 850.58649,877.40101 v -2.98436 h -3.97914 v -3.97914 c 3.29672,0 5.96872,-2.66901 5.96872,-5.96176 v -0.0105 c 3.48175,-1.49218 3.97914,-8.95309 3.97914,-8.95309 H 835.6647 c 0,0 0.49738,7.46091 3.97914,8.95309 v 0.0105 c 0,3.29076 2.67697,5.95877 5.96872,5.96176 v 3.97914 h -3.97915 v 2.98436 h -2.98435 v 3.97915 h 14.92179 v -3.97915 h -2.98436 z m -10.94265,-20.8905 v 6.86402 c -2.33376,-1.67026 -2.88488,-6.86402 -2.88488,-6.86402 h 2.88488 z m 12.91433,0 h 2.88487 c 0,0 -0.55211,5.17388 -2.88487,6.84412 v -6.84412 z"
       inkscape:connector-curvature="0"
       style="opacity:0.11111111;fill:#ffffff;fill-opacity:1" />
    <path
       id="path3068-3-7-4"
       d="m 928.22077,791.14346 v -2.91509 h -3.8868 v -3.88679 c 3.22021,0 5.8302,-2.60707 5.8302,-5.82339 v -0.0103 c 3.40094,-1.45755 3.88679,-8.74529 3.88679,-8.74529 h -20.40567 c 0,0 0.48584,7.28774 3.8868,8.74529 v 0.0103 c 0,3.21438 2.61483,5.82048 5.83019,5.82339 v 3.88679 h -3.8868 v 2.91509 h -2.9151 v 3.88681 h 14.57548 v -3.88681 h -2.91509 z m -10.68868,-20.40565 v 6.70472 c -2.27961,-1.6315 -2.81794,-6.70472 -2.81794,-6.70472 h 2.81794 z m 12.61459,0 h 2.81792 c 0,0 -0.53929,5.0538 -2.81792,6.68528 v -6.68528 z"
       inkscape:connector-curvature="0"
       style="opacity:0.11111111;fill:#ffffff;fill-opacity:1" />
    <path
       id="path3068-3-0"
       d="m 954.92619,710.58627 v -2.91509 h -3.8868 v -3.88679 c 3.22021,0 5.8302,-2.60707 5.8302,-5.82339 v -0.0103 c 3.40094,-1.45755 3.88679,-8.74529 3.88679,-8.74529 h -20.40567 c 0,0 0.48584,7.28774 3.8868,8.74529 v 0.0103 c 0,3.21438 2.61483,5.82048 5.83019,5.82339 v 3.88679 h -3.8868 v 2.91509 h -2.9151 v 3.88681 h 14.57548 v -3.88681 h -2.91509 z m -10.68868,-20.40565 v 6.70472 c -2.27961,-1.6315 -2.81794,-6.70472 -2.81794,-6.70472 h 2.81794 z m 12.61459,0 h 2.81792 c 0,0 -0.53929,5.0538 -2.81792,6.68528 v -6.68528 z"
       inkscape:connector-curvature="0"
       style="opacity:0.11111111;fill:#ffffff;fill-opacity:1" />
    <path
       inkscape:connector-curvature="0"
       style="opacity:0.11111111;fill:#ffffff;fill-opacity:1;stroke:none"
       d="m 847.94133,1007.9535 0,37.0463 18.47878,-19.0845 c 0.0185,-0.019 0.0193,-0.054 0,-0.073 l -18.47878,-17.8892 z"
       id="rect4033-9-3-6-8-6" />
    <path
       inkscape:connector-curvature="0"
       style="opacity:0.11111111;fill:#ffffff;fill-opacity:1;stroke:none"
       d="m 980.70628,959.29371 0,37.04638 18.47878,-19.0845 c 0.0185,-0.0193 0.0193,-0.054 0,-0.0727 L 980.70628,959.2937 z"
       id="rect4033-9-3-6-5-6-1" />
    <path
       id="path3068-6-18-0"
       d="m 933.91509,993.26267 v -4.78522 h -6.38026 v -6.38027 c 5.28606,0 9.57042,-4.27955 9.57042,-9.55924 v -0.0168 c 5.58273,-2.3926 6.38026,-14.35562 6.38026,-14.35562 h -33.49644 c 0,0 0.79753,11.96302 6.38029,14.35562 v 0.0168 c 0,5.2765 4.29232,9.55447 9.57039,9.55924 v 6.38027 h -6.38026 v 4.78522 h -4.78521 v 6.38028 h 23.92602 v -6.38028 h -4.78521 z m -17.54573,-33.49643 v 11.00598 c -3.74203,-2.67814 -4.62571,-11.00598 -4.62571,-11.00598 h 4.62571 z m 20.70718,0 h 4.62568 c 0,0 -0.88526,8.29596 -4.62568,10.97407 v -10.97407 z"
       inkscape:connector-curvature="0"
       style="opacity:0.11111111;fill:#ffffff;fill-opacity:1" />
    <rect
       style="opacity:0.16129032;fill:#cccccc;fill-opacity:1;stroke:none"
       id="rect3798-6-5-6-2-6"
       width="45.308193"
       height="1.9477487"
       x="16.966969"
       y="516.30634"
       ry="0.071986623" />
    <path
       inkscape:connector-curvature="0"
       style="opacity:0.16129032;fill:#cccccc;fill-opacity:1;stroke:none"
       d="m 177.49585,447.00227 0,50.24616 25.06283,-25.88439 c 0.0252,-0.0261 0.0259,-0.0733 0,-0.0986 l -25.06283,-24.26319 z"
       id="rect4033-7-7-3" />
    <rect
       style="opacity:0.16129032;fill:#cccccc;fill-opacity:1;stroke:none"
       id="rect3798-6-5-6-0-0-2"
       width="120.38637"
       height="1.5602658"
       x="35.927551"
       y="-492.83026"
       ry="0.057665691"
       transform="scale(1,-1)" />
    <path
       id="path3068-7-6-0"
       d="m 61.597555,458.90721 v -4.07269 h -5.43025 v -5.43026 c 4.498965,0 8.145394,-3.64233 8.145394,-8.13588 v -0.0143 c 4.751472,-2.03635 5.430251,-12.21809 5.430251,-12.21809 H 41.234083 c 0,0 0.678779,10.18174 5.430272,12.21809 v 0.0143 c 0,4.49082 3.653194,8.13182 8.145379,8.13588 v 5.43026 h -5.430258 v 4.07269 h -4.072693 v 5.43027 h 20.363472 v -5.43027 h -4.0727 z m -14.9332,-28.50885 v 9.3672 c -3.18485,-2.27937 -3.936948,-9.3672 -3.936948,-9.3672 h 3.936948 z m 17.623903,0 h 3.936936 c 0,0 -0.753448,7.06069 -3.936936,9.34005 v -9.34005 z"
       inkscape:connector-curvature="0"
       style="opacity:0.16129032;fill:#cccccc;fill-opacity:1" />
    <path
       id="path3068-6-2-6"
       d="m 139.47071,450.96469 v -2.1532 h -2.87092 v -2.87093 c 2.37856,0 4.3064,-1.92568 4.3064,-4.30138 v -0.008 c 2.51206,-1.0766 2.87093,-6.45961 2.87093,-6.45961 h -15.0724 c 0,0 0.35886,5.38301 2.87094,6.45961 v 0.008 c 0,2.37426 1.93141,4.29922 4.30639,4.30138 v 2.87093 h -2.87093 v 2.1532 h -2.1532 v 2.87093 h 10.76599 v -2.87093 h -2.1532 z m -7.89505,-15.07239 v 4.95236 c -1.68381,-1.20508 -2.08143,-4.95236 -2.08143,-4.95236 h 2.08143 z m 9.31761,0 h 2.08142 c 0,0 -0.39834,3.73293 -2.08142,4.938 v -4.938 z"
       inkscape:connector-curvature="0"
       style="opacity:0.16129032;fill:#cccccc;fill-opacity:1" />
    <path
       id="path3068-6-9-1"
       d="m 318.13789,521.24351 v -2.1532 h -2.87093 v -2.87093 c 2.37857,0 4.3064,-1.92567 4.3064,-4.30137 v -0.008 c 2.51207,-1.0766 2.87093,-6.4596 2.87093,-6.4596 h -15.0724 c 0,0 0.35887,5.383 2.87094,6.4596 v 0.008 c 0,2.37426 1.93142,4.29922 4.30639,4.30137 v 2.87093 h -2.87093 v 2.1532 h -2.1532 v 2.87094 h 10.766 v -2.87094 h -2.1532 z m -7.89506,-15.07238 v 4.95235 c -1.6838,-1.20508 -2.08143,-4.95235 -2.08143,-4.95235 h 2.08143 z m 9.31761,0 h 2.08142 c 0,0 -0.39834,3.73293 -2.08142,4.938 v -4.938 z"
       inkscape:connector-curvature="0"
       style="opacity:0.16129032;fill:#cccccc;fill-opacity:1" />
    <path
       id="path3079-7-2-5"
       d="m 264.59079,495.65963 h 6.92618 v 9.23491 h -34.63091 v -9.23491 h 6.92618 v -6.9262 h 9.23491 v -9.23491 c -7.63958,0 -13.85236,-6.19893 -13.85236,-13.83617 v -0.0231 c -8.08054,-3.46307 -9.2349,-20.77853 -9.2349,-20.77853 h 48.48326 c 0,0 -1.15437,17.31546 -9.23492,20.77853 v 0.0231 c 0,7.64186 -6.20123,13.82931 -13.85236,13.83617 v 9.23491 h 9.23492 v 6.9262 z m -23.08727,-48.48328 v 18.45135 c 0,6.38596 5.16925,11.5621 11.54595,11.5621 h 2.30409 c 6.37671,0 11.54596,-5.15997 11.54596,-11.5621 v -18.45135 h -25.396 z m -2.30873,0 h -6.6953 c 0,0 1.27904,12.05389 6.6953,15.93024 v -15.93024 z m 29.97189,0 v 15.88403 c 5.41628,-3.87635 6.69531,-15.88403 6.69531,-15.88403 h -6.69531 z m -23.04571,43.86585 v 4.61743 h 16.16109 v -4.61743 h -16.16109 z m -6.92618,6.92613 v 4.61749 h 30.01344 v -4.61749 h -30.01344 z"
       inkscape:connector-curvature="0"
       style="opacity:0.16129032;fill:#cccccc;fill-opacity:1" />
    <path
       inkscape:connector-curvature="0"
       style="opacity:0.16129032;fill:#f1f1f1;fill-opacity:1;stroke:none"
       d="m 402.30495,478.58415 0,37.04637 18.47878,-19.08449 c 0.0187,-0.0193 0.0191,-0.054 0,-0.0727 l -18.47878,-17.88919 z"
       id="rect4033-9-3-6-3-5" />
    <rect
       style="opacity:0.16129032;fill:#f1f1f1;fill-opacity:1;stroke:none"
       id="rect3798-6-5-6-0-2-5-4"
       width="146.53049"
       height="1.8604476"
       x="400.26077"
       y="-536.72375"
       ry="0.068760082"
       transform="scale(1,-1)" />
    <path
       inkscape:connector-curvature="0"
       style="opacity:0.16129032;fill:#f1f1f1;fill-opacity:1;stroke:none"
       d="m 484.72683,424.50794 0,47.23489 23.56081,-24.33313 c 0.0238,-0.0245 0.0243,-0.0689 0,-0.0927 l -23.56081,-22.80907 z"
       id="rect4033-9-3-6-4-2-7" />
    <path
       inkscape:connector-curvature="0"
       style="opacity:0.16129032;fill:#f1f1f1;fill-opacity:1;stroke:none"
       d="m 426.98359,427.90411 0,37.04637 18.47877,-19.08449 c 0.0187,-0.0192 0.0191,-0.054 0,-0.0727 L 426.98359,427.9041 z"
       id="rect4033-9-3-6-5-2-6" />
    <rect
       style="opacity:0.16129032;fill:#f8f8f8;fill-opacity:1;stroke:none"
       id="rect3798-6-5-6-0-2-9-8-5"
       width="253.99013"
       height="2.4608119"
       x="442.77481"
       y="-483.26593"
       ry="0.090948872"
       transform="scale(1,-1)" />
    <path
       id="path3068-3-7-6"
       d="m 517.32116,518.7554 v -2.91509 h -3.8868 v -3.88679 c 3.22021,0 5.8302,-2.60707 5.8302,-5.82339 v -0.0103 c 3.40094,-1.45755 3.88679,-8.74529 3.88679,-8.74529 h -20.40567 c 0,0 0.48584,7.28774 3.8868,8.74529 v 0.0103 c 0,3.21438 2.61483,5.82048 5.83019,5.82339 v 3.88679 h -3.8868 v 2.91509 h -2.9151 v 3.88681 h 14.57548 v -3.88681 h -2.91509 z m -10.68868,-20.40565 v 6.70472 c -2.27961,-1.6315 -2.81794,-6.70472 -2.81794,-6.70472 h 2.81794 z m 12.61459,0 h 2.81792 c 0,0 -0.53929,5.0538 -2.81792,6.68528 v -6.68528 z"
       inkscape:connector-curvature="0"
       style="opacity:0.16129032;fill:#f1f1f1;fill-opacity:1" />
    <rect
       style="opacity:0.16129032;fill:#ffffff;fill-opacity:1;stroke:none"
       id="rect3798-6-5-6-0-6-7-93"
       width="66.720436"
       height="2.1606297"
       x="667.21326"
       y="-455.54959"
       ry="0.079854473"
       transform="scale(1,-1)" />
    <path
       inkscape:connector-curvature="0"
       style="opacity:0.16129032;fill:#f1f1f1;fill-opacity:1;stroke:none"
       d="m 598.41777,427.73341 0,45.57293 22.73183,-23.47696 c 0.0229,-0.0237 0.0235,-0.0665 0,-0.0894 l -22.73183,-22.00655 z"
       id="rect4033-9-3-9-9-7" />
    <path
       inkscape:connector-curvature="0"
       style="opacity:0.16129032;fill:#ffffff;fill-opacity:1;stroke:none"
       d="m 669.06825,492.66349 0,47.23489 23.5608,-24.33313 c 0.0238,-0.0245 0.0243,-0.0689 0,-0.0927 l -23.5608,-22.80907 z"
       id="rect4033-9-3-6-4-2-9-4" />
    <path
       inkscape:connector-curvature="0"
       style="opacity:0.16129032;fill:#f1f1f1;fill-opacity:1;stroke:none"
       d="m 611.32501,496.05966 0,37.04637 18.47877,-19.08449 c 0.0187,-0.0192 0.0191,-0.054 0,-0.0727 l -18.47877,-17.88919 z"
       id="rect4033-9-3-6-5-2-4-5" />
    <path
       id="path3068-3-5-2"
       d="m 778.87561,456.85629 v -2.91509 h -3.8868 v -3.88679 c 3.22021,0 5.8302,-2.60707 5.8302,-5.82339 v -0.0103 c 3.40094,-1.45755 3.88679,-8.74529 3.88679,-8.74529 h -20.40567 c 0,0 0.48584,7.28774 3.8868,8.74529 v 0.0103 c 0,3.21438 2.61483,5.82048 5.83019,5.82339 v 3.88679 h -3.8868 v 2.91509 h -2.9151 v 3.88681 h 14.57548 v -3.88681 h -2.91509 z m -10.68868,-20.40565 v 6.70472 c -2.27961,-1.6315 -2.81794,-6.70472 -2.81794,-6.70472 h 2.81794 z m 12.61459,0 h 2.81792 c 0,0 -0.53929,5.0538 -2.81792,6.68528 v -6.68528 z"
       inkscape:connector-curvature="0"
       style="opacity:0.11111111;fill:#ffffff;fill-opacity:1" />
    <path
       id="path3068-3-0-5"
       d="m 728.36799,506.35376 v -2.91509 h -3.8868 v -3.88679 c 3.22021,0 5.8302,-2.60707 5.8302,-5.82339 v -0.0103 c 3.40094,-1.45755 3.88679,-8.74529 3.88679,-8.74529 h -20.40567 c 0,0 0.48584,7.28774 3.8868,8.74529 v 0.0103 c 0,3.21438 2.61483,5.82048 5.83019,5.82339 v 3.88679 h -3.8868 v 2.91509 h -2.9151 v 3.88681 h 14.57548 v -3.88681 h -2.91509 z m -10.68868,-20.40565 v 6.70472 c -2.27961,-1.6315 -2.81794,-6.70472 -2.81794,-6.70472 h 2.81794 z m 12.61459,0 h 2.81792 c 0,0 -0.53929,5.0538 -2.81792,6.68528 v -6.68528 z"
       inkscape:connector-curvature="0"
       style="opacity:0.11111111;fill:#ffffff;fill-opacity:1" />
    <path
       id="path3079-4"
       d="m 948.85865,628.55234 h 4.47722 v 5.96961 h -22.38602 v -5.96961 h 4.47721 v -4.47721 h 5.9696 v -5.96961 c -4.93835,0 -8.9544,-4.00708 -8.9544,-8.94392 v -0.0149 c -5.22341,-2.23859 -5.9696,-13.43159 -5.9696,-13.43159 h 31.3404 c 0,0 -0.7462,11.193 -5.96961,13.43159 v 0.0149 c 0,4.93982 -4.00858,8.93949 -8.9544,8.94392 v 5.96961 h 5.9696 v 4.47721 z m -14.92399,-31.34041 v 11.92726 c 0,4.128 3.34149,7.47394 7.4635,7.47394 h 1.4894 c 4.12201,0 7.4635,-3.3355 7.4635,-7.47394 v -11.92726 h -16.4164 z m -1.4924,0 h -4.32796 c 0,0 0.82679,7.79184 4.32796,10.29757 v -10.29757 z m 19.37434,0 v 10.2677 c 3.50117,-2.50573 4.32795,-10.2677 4.32795,-10.2677 h -4.32795 z m -14.89715,28.35563 v 2.98478 h 10.44681 v -2.98478 h -10.44681 z m -4.47719,4.47716 v 2.98483 h 19.40119 v -2.98483 h -19.40119 z"
       inkscape:connector-curvature="0"
       style="opacity:0.16129031;fill:#f1f1f1;fill-opacity:1" />
    <path
       id="path3079-74"
       d="m 855.59334,738.04213 h 5.39558 v 7.1941 h -26.97785 v -7.1941 h 5.39557 v -5.39558 h 7.19409 v -7.1941 c -5.95131,0 -10.79113,-4.82902 -10.79113,-10.77851 v -0.018 c -6.29484,-2.69777 -7.19409,-16.18669 -7.19409,-16.18669 h 37.76897 c 0,0 -0.89926,13.48892 -7.1941,16.18669 v 0.018 c 0,5.95308 -4.83082,10.77317 -10.79113,10.77851 v 7.1941 h 7.19409 v 5.39558 z m -17.98522,-37.76899 v 14.3738 c 0,4.97473 4.0269,9.007 8.99442,9.007 h 1.79491 c 4.96752,0 8.99442,-4.01968 8.99442,-9.007 v -14.3738 h -19.78375 z m -1.79852,0 h -5.21571 c 0,0 0.99638,9.39011 5.21571,12.40983 v -12.40983 z m 23.34842,0 v 12.37383 c 4.21934,-3.01971 5.21571,-12.37383 5.21571,-12.37383 h -5.21571 z m -17.95286,34.17197 v 3.59702 h 12.58966 v -3.59702 h -12.58966 z m -5.39556,5.39552 v 3.59708 h 23.38078 v -3.59708 H 835.8096 z"
       inkscape:connector-curvature="0"
       style="opacity:0.16129031;fill:#f1f1f1;fill-opacity:1" />
  </g>
</svg>
