<?xml version="1.0" encoding="UTF-8" standalone="no"?>
<!-- Created with Inkscape (http://www.inkscape.org/) -->

<svg
   xmlns:dc="http://purl.org/dc/elements/1.1/"
   xmlns:cc="http://creativecommons.org/ns#"
   xmlns:rdf="http://www.w3.org/1999/02/22-rdf-syntax-ns#"
   xmlns:svg="http://www.w3.org/2000/svg"
   xmlns="http://www.w3.org/2000/svg"
   xmlns:xlink="http://www.w3.org/1999/xlink"
   xmlns:sodipodi="http://sodipodi.sourceforge.net/DTD/sodipodi-0.dtd"
   xmlns:inkscape="http://www.inkscape.org/namespaces/inkscape"
   width="32"
   height="32"
   id="svg2"
   version="1.1"
   inkscape:version="0.48.3.1 r9886"
   sodipodi:docname="del_button_disabled.svg">
  <defs
     id="defs4">
    <linearGradient
       inkscape:collect="always"
       id="linearGradient3787">
      <stop
         style="stop-color:#808080;stop-opacity:1;"
         offset="0"
         id="stop3789" />
      <stop
         style="stop-color:#808080;stop-opacity:0;"
         offset="1"
         id="stop3791" />
    </linearGradient>
    <linearGradient
       inkscape:collect="always"
       id="linearGradient3926">
      <stop
         style="stop-color:#aa0000;stop-opacity:1;"
         offset="0"
         id="stop3928" />
      <stop
         style="stop-color:#aa0000;stop-opacity:0;"
         offset="1"
         id="stop3930" />
    </linearGradient>
    <linearGradient
       inkscape:collect="always"
       id="linearGradient3898">
      <stop
         style="stop-color:#ffffff;stop-opacity:1;"
         offset="0"
         id="stop3900" />
      <stop
         style="stop-color:#ffffff;stop-opacity:0;"
         offset="1"
         id="stop3902" />
    </linearGradient>
    <filter
       inkscape:collect="always"
       id="filter3805"
       color-interpolation-filters="sRGB">
      <feGaussianBlur
         inkscape:collect="always"
         stdDeviation="2.8398125"
         id="feGaussianBlur3807" />
    </filter>
    <filter
       inkscape:collect="always"
       id="filter3851"
       color-interpolation-filters="sRGB">
      <feGaussianBlur
         inkscape:collect="always"
         stdDeviation="5.6531333"
         id="feGaussianBlur3853" />
    </filter>
    <linearGradient
       inkscape:collect="always"
       xlink:href="#linearGradient3898"
       id="linearGradient3906"
       x1="125.62508"
       y1="256.10114"
       x2="139.48335"
       y2="369.85986"
       gradientUnits="userSpaceOnUse"
       gradientTransform="matrix(0.78043869,0.19110607,-0.19110607,0.78043869,103.36652,30.51934)" />
    <linearGradient
       inkscape:collect="always"
       xlink:href="#linearGradient3926"
       id="linearGradient3934"
       x1="235.70728"
       y1="466.33252"
       x2="237.58711"
       y2="276.52542"
       gradientUnits="userSpaceOnUse" />
    <linearGradient
       inkscape:collect="always"
       xlink:href="#linearGradient3898"
       id="linearGradient3007"
       gradientUnits="userSpaceOnUse"
       gradientTransform="matrix(0.1137459,0.02771877,-0.02785297,0.11319786,13.709821,987.96991)"
       x1="125.62508"
       y1="256.10114"
       x2="139.48335"
       y2="369.85986" />
    <linearGradient
       inkscape:collect="always"
       xlink:href="#linearGradient3787"
       id="linearGradient3793"
       x1="246.16714"
       y1="431.98318"
       x2="245.88506"
       y2="315.401"
       gradientUnits="userSpaceOnUse" />
  </defs>
  <sodipodi:namedview
     id="base"
     pagecolor="#ffffff"
     bordercolor="#666666"
     borderopacity="1.0"
     inkscape:pageopacity="0.0"
     inkscape:pageshadow="2"
     inkscape:zoom="11.2"
     inkscape:cx="2.564318"
     inkscape:cy="19.613"
     inkscape:document-units="px"
     inkscape:current-layer="layer1"
     showgrid="false"
     inkscape:window-width="1855"
     inkscape:window-height="1056"
     inkscape:window-x="65"
     inkscape:window-y="24"
     inkscape:window-maximized="1" />
  <metadata
     id="metadata7">
    <rdf:RDF>
      <cc:Work
         rdf:about="">
        <dc:format>image/svg+xml</dc:format>
        <dc:type
           rdf:resource="http://purl.org/dc/dcmitype/StillImage" />
        <dc:title />
      </cc:Work>
    </rdf:RDF>
  </metadata>
  <g
     inkscape:label="Calque 1"
     inkscape:groupmode="layer"
     id="layer1"
     transform="translate(0,-1020.3622)">
    <path
       sodipodi:type="arc"
       style="fill:#999999;fill-rule:evenodd;stroke:none;filter:url(#filter3851)"
       id="path2985-5"
       sodipodi:cx="255.71428"
       sodipodi:cy="308.07648"
       sodipodi:rx="101.42857"
       sodipodi:ry="98.571426"
       d="m 357.14285,308.07648 c 0,54.43949 -45.41112,98.57142 -101.42857,98.57142 -56.01746,0 -101.42857,-44.13193 -101.42857,-98.57142 0,-54.4395 45.41111,-98.57143 101.42857,-98.57143 56.01745,0 101.42857,44.13193 101.42857,98.57143 z"
       transform="matrix(0.13806248,0,0,0.1413798,-19.696257,992.8089)" />
    <path
       sodipodi:type="arc"
       style="fill:#b3b3b3;fill-opacity:1;fill-rule:evenodd;stroke:#000000;stroke-width:1px;stroke-linecap:butt;stroke-linejoin:miter;stroke-opacity:1"
       id="path2985"
       sodipodi:cx="255.71428"
       sodipodi:cy="308.07648"
       sodipodi:rx="101.42857"
       sodipodi:ry="98.571426"
       d="m 357.14285,308.07648 c 0,54.43949 -45.41112,98.57142 -101.42857,98.57142 -56.01746,0 -101.42857,-44.13193 -101.42857,-98.57142 0,-54.4395 45.41111,-98.57143 101.42857,-98.57143 56.01745,0 101.42857,44.13193 101.42857,98.57143 z"
       transform="matrix(0.14284712,0,0,0.14627941,-20.328136,990.91907)" />
    <g
       id="g3956"
       transform="matrix(0.10068983,-0.10486537,0.10537308,0.10020469,-83.969621,1009.1169)">
      <rect
         y="309.90009"
         x="108.08631"
         height="103.03556"
         width="19.192898"
         id="rect3936"
         style="fill:#ffffff;fill-opacity:1;stroke:none" />
      <rect
         transform="matrix(0,1,-1,0,0,0)"
         y="-168.94801"
         x="352.65765"
         height="103.03556"
         width="19.192898"
         id="rect3936-6"
         style="fill:#ffffff;fill-opacity:1;stroke:none" />
    </g>
    <g
       id="g4095"
       transform="translate(39.470732,-22.717459)">
      <g
         id="g4090">
        <path
           style="fill:#ffffff;fill-opacity:1;stroke:none"
           d="m -31.4375,37.5625 0,2.03125 1,0 0,-2.03125 -1,0 z m 1.625,0 0,2.03125 5.4375,0 c -0.202778,-0.229445 -0.379206,-0.499312 -0.53125,-0.78125 -0.21986,-0.407683 -0.326918,-0.8134 -0.40625,-1.25 l -4.5,0 z m 6.03125,0 c -0.182708,0.669214 -0.252561,1.348874 -0.15625,2.03125 l 8.21875,0 0,-2.03125 -8.0625,0 z"
           transform="translate(0,1020.3622)"
           id="rect3946-2"
           inkscape:connector-curvature="0" />
        <path
           style="fill:#ffffff;fill-opacity:1;stroke:none"
           d="m -31.437,1060.5959 0,2.0312 1,0 0,-2.0312 -1,0 z m 1.625,0 0,2.0312 14.09375,0 0,-2.0312 -14.09375,0 z"
           id="rect3946-2-4"
           inkscape:connector-curvature="0" />
        <path
           style="fill:#ffffff;fill-opacity:1;stroke:none"
           d="m -31.437,1063.279 0,2.0312 1,0 0,-2.0312 -1,0 z m 1.625,0 0,2.0312 14.09375,0 0,-2.0312 -14.09375,0 z"
           id="rect3946-2-5"
           inkscape:connector-curvature="0" />
      </g>
      <g
         transform="matrix(0.917329,-0.39813003,0.39813003,0.917329,-403.00099,73.892196)"
         id="g4056">
        <path
           style="fill:#ffffff;fill-opacity:1;stroke:none"
           d="m -38.539014,1051.5265 -3.314983,-3.0547 0.258956,6.3385 3.056027,-3.2838 z"
           id="rect4032"
           inkscape:connector-curvature="0" />
        <path
           inkscape:connector-curvature="0"
           style="fill:#ffffff;fill-opacity:1;stroke:none"
           d="m -41.375,30 c -2.179265,0 -3.96875,1.720406 -3.96875,3.8125 0,0.488638 0.105754,0.946142 0.28125,1.375 0.448386,-1.777151 2.064196,-3.139724 4.09375,-3.34375 l 0,-1.8125 C -41.100257,30.018358 -41.239605,30 -41.375,30 z"
           transform="translate(0,1020.3622)"
           id="path4037" />
      </g>
    </g>
    <path
       sodipodi:type="arc"
       style="fill:url(#linearGradient3793);fill-opacity:1;fill-rule:evenodd;stroke:none"
       id="path2985-7"
       sodipodi:cx="255.71428"
       sodipodi:cy="308.07648"
       sodipodi:rx="101.42857"
       sodipodi:ry="98.571426"
       d="m 357.14285,308.07648 a 101.42857,98.571426 0 1 1 -202.85714,0 101.42857,98.571426 0 1 1 202.85714,0 z"
       transform="matrix(0.14284712,0,0,0.14627941,-20.689422,990.81024)" />
    <path
       style="fill:#ffffff;fill-rule:evenodd;stroke:#000000;stroke-width:0.01453946;stroke-linecap:butt;stroke-linejoin:miter;stroke-miterlimit:4;stroke-opacity:1;stroke-dasharray:none"
       d="m 16.093088,1021.1076 c -8.1637436,0 -14.78412,6.5839 -14.78412,14.7083 0,8.1244 6.6203764,14.7129 14.78412,14.7129 8.163744,0 14.779566,-6.5885 14.779566,-14.7129 0,-8.1244 -6.615822,-14.7083 -14.779566,-14.7083 z m -0.223174,2.7694 c 6.747889,0 12.219901,5.4457 12.219901,12.161 0,6.7154 -5.472012,12.1565 -12.219901,12.1565 -6.7478898,0 -12.2153445,-5.4411 -12.2153445,-12.1565 0,-6.7153 5.4674547,-12.161 12.2153445,-12.161 z"
       id="path2985-9-8"
       inkscape:connector-curvature="0" />
    <path
       style="fill:#ffffff;fill-rule:evenodd;stroke:#000000;stroke-width:0.1;stroke-linecap:butt;stroke-linejoin:miter;stroke-miterlimit:4;stroke-opacity:1;stroke-dasharray:none;filter:url(#filter3805)"
       d="m 115.67291,257.47699 c -56.013454,0 -101.437493,45.39279 -101.437493,101.40625 0,56.01346 45.424039,101.4375 101.437493,101.4375 56.01346,0 101.40625,-45.42404 101.40625,-101.4375 0,-56.01346 -45.39279,-101.40625 -101.40625,-101.40625 z m -1.53125,19.09375 c 46.29893,0 83.84375,37.54482 83.84375,83.84375 0,46.29893 -37.54482,83.8125 -83.84375,83.8125 -46.298934,0 -83.812493,-37.51357 -83.812493,-83.8125 0,-46.29893 37.513559,-83.84375 83.812493,-83.84375 z"
       id="path2985-9"
       inkscape:connector-curvature="0"
       transform="matrix(0.14479225,0,0,0.14409461,-0.76403087,984.17699)" />
    <path
       style="fill:url(#linearGradient3007);fill-opacity:1;fill-rule:evenodd;stroke:none"
       d="m 18.410804,1024.796 c -3.028577,-0.738 -6.07074,-0.2248 -8.5753238,1.2099 l 1.9657588,3.7861 c 2.201385,-0.9006 4.698806,-1.1384 7.187767,-0.5318 4.020095,0.9796 7.036321,3.9263 8.267328,7.5602 0.376437,-5.5142 -3.266328,-10.6648 -8.84553,-12.0244 z"
       id="path2985-54"
       inkscape:connector-curvature="0" />
  </g>
</svg>
