<?xml version="1.0" encoding="UTF-8" standalone="no"?>
<!-- Created with Inkscape (http://www.inkscape.org/) -->

<svg
   xmlns:dc="http://purl.org/dc/elements/1.1/"
   xmlns:cc="http://creativecommons.org/ns#"
   xmlns:rdf="http://www.w3.org/1999/02/22-rdf-syntax-ns#"
   xmlns:svg="http://www.w3.org/2000/svg"
   xmlns="http://www.w3.org/2000/svg"
   xmlns:xlink="http://www.w3.org/1999/xlink"
   xmlns:sodipodi="http://sodipodi.sourceforge.net/DTD/sodipodi-0.dtd"
   xmlns:inkscape="http://www.inkscape.org/namespaces/inkscape"
   width="32"
   height="32"
   id="svg2"
   version="1.1"
   inkscape:version="0.48.3.1 r9886"
   sodipodi:docname="Nouveau document 1">
  <defs
     id="defs4">
    <linearGradient
       inkscape:collect="always"
       id="linearGradient3926">
      <stop
         style="stop-color:#aa0000;stop-opacity:1;"
         offset="0"
         id="stop3928" />
      <stop
         style="stop-color:#aa0000;stop-opacity:0;"
         offset="1"
         id="stop3930" />
    </linearGradient>
    <linearGradient
       inkscape:collect="always"
       id="linearGradient3898">
      <stop
         style="stop-color:#ffffff;stop-opacity:1;"
         offset="0"
         id="stop3900" />
      <stop
         style="stop-color:#ffffff;stop-opacity:0;"
         offset="1"
         id="stop3902" />
    </linearGradient>
    <filter
       inkscape:collect="always"
       id="filter3805"
       color-interpolation-filters="sRGB">
      <feGaussianBlur
         inkscape:collect="always"
         stdDeviation="2.8398125"
         id="feGaussianBlur3807" />
    </filter>
    <filter
       inkscape:collect="always"
       id="filter3851"
       color-interpolation-filters="sRGB">
      <feGaussianBlur
         inkscape:collect="always"
         stdDeviation="5.6531333"
         id="feGaussianBlur3853" />
    </filter>
    <linearGradient
       inkscape:collect="always"
       xlink:href="#linearGradient3898"
       id="linearGradient3906"
       x1="125.62508"
       y1="256.10114"
       x2="139.48335"
       y2="369.85986"
       gradientUnits="userSpaceOnUse"
       gradientTransform="matrix(0.78043869,0.19110607,-0.19110607,0.78043869,103.36652,30.51934)" />
    <linearGradient
       inkscape:collect="always"
       xlink:href="#linearGradient3926"
       id="linearGradient3934"
       x1="235.70728"
       y1="466.33252"
       x2="237.58711"
       y2="276.52542"
       gradientUnits="userSpaceOnUse" />
    <linearGradient
       inkscape:collect="always"
       xlink:href="#linearGradient3926"
       id="linearGradient3971"
       gradientUnits="userSpaceOnUse"
       x1="235.70728"
       y1="466.33252"
       x2="237.58711"
       y2="276.52542" />
    <linearGradient
       inkscape:collect="always"
       xlink:href="#linearGradient3898"
       id="linearGradient3973"
       gradientUnits="userSpaceOnUse"
       gradientTransform="matrix(0.78043869,0.19110607,-0.19110607,0.78043869,103.36652,30.51934)"
       x1="125.62508"
       y1="256.10114"
       x2="139.48335"
       y2="369.85986" />
  </defs>
  <sodipodi:namedview
     id="base"
     pagecolor="#ffffff"
     bordercolor="#666666"
     borderopacity="1.0"
     inkscape:pageopacity="0.0"
     inkscape:pageshadow="2"
     inkscape:zoom="3.959798"
     inkscape:cx="-21.789918"
     inkscape:cy="26.87051"
     inkscape:document-units="px"
     inkscape:current-layer="layer1"
     showgrid="false"
     inkscape:window-width="1301"
     inkscape:window-height="744"
     inkscape:window-x="65"
     inkscape:window-y="24"
     inkscape:window-maximized="1" />
  <metadata
     id="metadata7">
    <rdf:RDF>
      <cc:Work
         rdf:about="">
        <dc:format>image/svg+xml</dc:format>
        <dc:type
           rdf:resource="http://purl.org/dc/dcmitype/StillImage" />
        <dc:title></dc:title>
      </cc:Work>
    </rdf:RDF>
  </metadata>
  <g
     inkscape:label="Calque 1"
     inkscape:groupmode="layer"
     id="layer1"
     transform="translate(0,-1020.3622)">
    <g
       id="g3960"
       transform="matrix(0.14574611,0,0,0.14504388,-1.3554468,983.54327)">
      <path
         transform="matrix(0.9472807,0,0,0.97473814,-125.84082,63.881565)"
         d="m 357.14285,308.07648 c 0,54.43949 -45.41112,98.57142 -101.42857,98.57142 -56.01746,0 -101.42857,-44.13193 -101.42857,-98.57142 0,-54.4395 45.41111,-98.57143 101.42857,-98.57143 56.01745,0 101.42857,44.13193 101.42857,98.57143 z"
         sodipodi:ry="98.571426"
         sodipodi:rx="101.42857"
         sodipodi:cy="308.07648"
         sodipodi:cx="255.71428"
         id="path2985-5"
         style="fill:#999999;fill-rule:evenodd;stroke:none;filter:url(#filter3851)"
         sodipodi:type="arc" />
      <path
         transform="matrix(0.98010931,0,0,1.0085183,-130.1763,50.852175)"
         d="m 357.14285,308.07648 c 0,54.43949 -45.41112,98.57142 -101.42857,98.57142 -56.01746,0 -101.42857,-44.13193 -101.42857,-98.57142 0,-54.4395 45.41111,-98.57143 101.42857,-98.57143 56.01745,0 101.42857,44.13193 101.42857,98.57143 z"
         sodipodi:ry="98.571426"
         sodipodi:rx="101.42857"
         sodipodi:cy="308.07648"
         sodipodi:cx="255.71428"
         id="path2985"
         style="fill:#ff2300;fill-opacity:1;fill-rule:evenodd;stroke:#000000;stroke-width:1px;stroke-linecap:butt;stroke-linejoin:miter;stroke-opacity:1"
         sodipodi:type="arc" />
      <g
         transform="matrix(0.69085778,-0.72299069,0.72299069,0.69085778,-224.99911,196.63049)"
         id="g3956">
        <rect
           style="fill:#ffffff;fill-opacity:1;stroke:none"
           id="rect3936"
           width="19.192898"
           height="103.03556"
           x="108.08631"
           y="309.90009" />
        <rect
           style="fill:#ffffff;fill-opacity:1;stroke:none"
           id="rect3936-6"
           width="19.192898"
           height="103.03556"
           x="352.65765"
           y="-168.94801"
           transform="matrix(0,1,-1,0,0,0)" />
      </g>
      <path
         transform="matrix(0.98010931,0,0,1.0085183,-131.42995,50.717076)"
         d="m 357.14285,308.07648 c 0,54.43949 -45.41112,98.57142 -101.42857,98.57142 -56.01746,0 -101.42857,-44.13193 -101.42857,-98.57142 0,-54.4395 45.41111,-98.57143 101.42857,-98.57143 56.01745,0 101.42857,44.13193 101.42857,98.57143 z"
         sodipodi:ry="98.571426"
         sodipodi:rx="101.42857"
         sodipodi:cy="308.07648"
         sodipodi:cx="255.71428"
         id="path2985-7"
         style="fill:url(#linearGradient3971);fill-opacity:1;fill-rule:evenodd;stroke:none"
         sodipodi:type="arc" />
      <path
         inkscape:connector-curvature="0"
         id="path2985-9-8"
         d="m 119.7187,258.98581 c -56.013458,0 -101.437493,45.39279 -101.437493,101.40625 0,56.01346 45.424035,101.4375 101.437493,101.4375 56.01346,0 101.40625,-45.42404 101.40625,-101.4375 0,-56.01346 -45.39279,-101.40625 -101.40625,-101.40625 z m -1.53125,19.09375 c 46.29893,0 83.84375,37.54482 83.84375,83.84375 0,46.29893 -37.54482,83.8125 -83.84375,83.8125 -46.298938,0 -83.812493,-37.51357 -83.812493,-83.8125 0,-46.29893 37.513555,-83.84375 83.812493,-83.84375 z"
         style="fill:#ffffff;fill-rule:evenodd;stroke:#000000;stroke-width:0.1;stroke-linecap:butt;stroke-linejoin:miter;stroke-miterlimit:4;stroke-opacity:1;stroke-dasharray:none" />
      <path
         transform="matrix(0.99345532,0,0,0.99345532,4.0578505,4.3691853)"
         inkscape:connector-curvature="0"
         id="path2985-9"
         d="m 115.67291,257.47699 c -56.013454,0 -101.437493,45.39279 -101.437493,101.40625 0,56.01346 45.424039,101.4375 101.437493,101.4375 56.01346,0 101.40625,-45.42404 101.40625,-101.4375 0,-56.01346 -45.39279,-101.40625 -101.40625,-101.40625 z m -1.53125,19.09375 c 46.29893,0 83.84375,37.54482 83.84375,83.84375 0,46.29893 -37.54482,83.8125 -83.84375,83.8125 -46.298934,0 -83.812493,-37.51357 -83.812493,-83.8125 0,-46.29893 37.513559,-83.84375 83.812493,-83.84375 z"
         style="fill:#ffffff;fill-rule:evenodd;stroke:#000000;stroke-width:0.1;stroke-linecap:butt;stroke-linejoin:miter;stroke-miterlimit:4;stroke-opacity:1;stroke-dasharray:none;filter:url(#filter3805)" />
      <path
         inkscape:connector-curvature="0"
         id="path2985-54"
         d="m 135.62112,284.41579 c -20.77981,-5.08835 -41.652841,-1.55036 -58.83741,8.34145 l 13.487557,26.10335 c 15.104243,-6.20928 32.239663,-7.84879 49.317043,-3.66705 27.58286,6.75422 48.27793,27.07014 56.72417,52.12381 2.58283,-38.01774 -22.41108,-73.52787 -60.69136,-82.90156 z"
         style="fill:url(#linearGradient3973);fill-opacity:1;fill-rule:evenodd;stroke:none" />
    </g>
  </g>
</svg>
