<?xml version="1.0" encoding="UTF-8" standalone="no"?>
<!-- Created with Inkscape (http://www.inkscape.org/) -->

<svg
   xmlns:dc="http://purl.org/dc/elements/1.1/"
   xmlns:cc="http://creativecommons.org/ns#"
   xmlns:rdf="http://www.w3.org/1999/02/22-rdf-syntax-ns#"
   xmlns:svg="http://www.w3.org/2000/svg"
   xmlns="http://www.w3.org/2000/svg"
   xmlns:xlink="http://www.w3.org/1999/xlink"
   xmlns:sodipodi="http://sodipodi.sourceforge.net/DTD/sodipodi-0.dtd"
   xmlns:inkscape="http://www.inkscape.org/namespaces/inkscape"
   id="svg4151"
   viewBox="0 0 700 700"
   version="1.1"
   inkscape:version="0.48.4 r9939"
   sodipodi:docname="kangaroo-Sign.svg"
   width="100%"
   height="100%">
  <sodipodi:namedview
     id="base"
     bordercolor="#666666"
     inkscape:pageshadow="2"
     inkscape:window-y="24"
     pagecolor="#ffffff"
     inkscape:window-height="754"
     inkscape:window-maximized="0"
     inkscape:zoom="0.84285714"
     inkscape:window-x="65"
     showgrid="false"
     borderopacity="1.0"
     inkscape:current-layer="layer1"
     inkscape:cx="382.41225"
     inkscape:cy="318.12712"
     inkscape:window-width="1440"
     inkscape:pageopacity="0.0"
     inkscape:document-units="px" />
  <defs
     id="defs4153">
    <linearGradient
       id="linearGradient8658">
      <stop
         id="stop8660"
         style="stop-color:#000000"
         offset="0" />
      <stop
         id="stop8666"
         style="stop-color:#818181"
         offset=".84167" />
      <stop
         id="stop8662"
         style="stop-color:#bdbdbd"
         offset="1" />
    </linearGradient>
    <linearGradient
       id="linearGradient8650"
       inkscape:collect="always">
      <stop
         id="stop8652"
         style="stop-color:#ffffff"
         offset="0" />
      <stop
         id="stop8654"
         style="stop-color:#ffffff;stop-opacity:0"
         offset="1" />
    </linearGradient>
    <linearGradient
       id="linearGradient6272"
       y2="-855.77"
       gradientUnits="userSpaceOnUse"
       x2="-395.43"
       gradientTransform="matrix(.70711 -.70711 -.70711 -.70711 0 0)"
       y1="-761.35"
       x1="-154.13"
       inkscape:collect="always">
      <stop
         id="stop6264"
         style="stop-color:#ffed00"
         offset="0" />
      <stop
         id="stop6266"
         style="stop-color:#ff8100"
         offset="1" />
    </linearGradient>
    <linearGradient
       id="linearGradient6291"
       y2="703.52"
       gradientUnits="userSpaceOnUse"
       x2="554.4"
       gradientTransform="matrix(0 .76056 -0.75 0 883.34 389.25)"
       y1="702.57"
       x1="56.368"
       inkscape:collect="always">
      <stop
         id="stop8791"
         style="stop-color:#ffffff;stop-opacity:.91250"
         offset="0" />
      <stop
         id="stop8793"
         style="stop-color:#ffffff;stop-opacity:0"
         offset="1" />
    </linearGradient>
    <linearGradient
       id="linearGradient6295"
       y2="731.45"
       gradientUnits="userSpaceOnUse"
       x2="264.25"
       gradientTransform="matrix(0 -.33830 .33361 0 121 629.72)"
       y1="736.09"
       x1="125.98"
       inkscape:collect="always">
      <stop
         id="stop6278"
         style="stop-color:#ffffff"
         offset="0" />
      <stop
         id="stop6280"
         style="stop-color:#ffffff;stop-opacity:0"
         offset="1" />
    </linearGradient>
    <filter
       id="filter8758"
       inkscape:collect="always">
      <feGaussianBlur
         id="feGaussianBlur8760"
         stdDeviation="1.4461571"
         inkscape:collect="always" />
    </filter>
    <linearGradient
       id="linearGradient8769"
       y2="519.63"
       xlink:href="#linearGradient8658"
       gradientUnits="userSpaceOnUse"
       x2="337.67"
       y1="481.88"
       x1="337.67"
       inkscape:collect="always" />
    <linearGradient
       id="linearGradient8771"
       y2="519.63"
       xlink:href="#linearGradient8650"
       gradientUnits="userSpaceOnUse"
       x2="337.67"
       y1="481.88"
       x1="337.67"
       inkscape:collect="always" />
  </defs>
  <g
     id="layer1"
     inkscape:label="Layer 1"
     transform="translate(0 -352.36)"
     inkscape:groupmode="layer">
    <path
       id="rect6177"
       style="color:#000000;fill:url(#linearGradient6272)"
       d="m374.03 965.98 245.73-245.74c9.7934-9.7934 9.7934-25.562 0-35.355l-245.73-245.72c-9.7934-9.7934-25.562-9.7934-35.355 0l-245.74 245.73c-9.7934 9.7934-9.7934 25.562 0 35.355l245.73 245.73c9.7934 9.7934 25.562 9.7934 35.355 0z" />
    <text
       xml:space="preserve"
       style="font-size:50.65499496px;font-style:normal;font-weight:normal;line-height:125%;letter-spacing:0px;word-spacing:0px;fill:#000000;fill-opacity:1;stroke:none;font-family:Sans"
       x="200.64601"
       y="762.15094"
       id="text3020"
       sodipodi:linespacing="125%"><tspan
         sodipodi:role="line"
         id="tspan3022"
         x="200.64601"
         y="762.15094"
         style="font-size:182.35798645px;font-style:normal;font-variant:normal;font-weight:bold;font-stretch:normal;font-family:Umpush;-inkscape-font-specification:Umpush Bold">404</tspan></text>
    <path
       id="path6274"
       style="color:#000000;fill:url(#linearGradient6291)"
       d="m356.42 454.36c-4.7929 0-9.594 1.8483-13.267 5.5725l-184.31 186.89c-7.3451 7.4485-10.969 27.814 0 26.901 11.078-0.92219 24.064-1.1652 37.933-0.99004 6.7369-0.79842 13.773-1.4144 21.668-1.4144 15.359 0 28.043 1.8367 43.562 4.5825 19.976 1.5186 38.852 3.3236 54.509 4.9785 24.97-3.3561 51.689-13.574 73.772-12.786 30.07 1.0739 52.607 7.5243 77.308 7.5243s46.2-6.4456 54.792-2.1498c1.4263 0.71314 2.993 1.3276 4.6956 1.8386l26.901-1.5841c7.3451-7.4485 7.3451-19.452 0-26.901l-184.32-186.89c-3.6726-3.7242-8.4454-5.5725-13.238-5.5725z" />
    <path
       id="path6293"
       style="opacity:.39344;color:#000000;fill:url(#linearGradient6295)"
       sodipodi:nodetypes="ccsccc"
       d="m286.78 534.69 62.72 63.59c1.6336 1.6566 3.7431 2.4688 5.875 2.4688s4.2727-0.81217 5.9062-2.4688l81.969-83.125c-38.536 47.755-105.64 65.479-156.47 19.531z"
       transform="translate(0 352.36)" />
    <g
       id="g8762"
       transform="matrix(1.9588 0 0 1.9588 -341.67 -845.71)">
      <path
         id="path8736"
         sodipodi:rx="18.876156"
         sodipodi:ry="18.876156"
         style="color:#000000;filter:url(#filter8758);fill:#1e1e1e"
         sodipodi:type="arc"
         d="m 356.54962,500.75168 c 0,10.42501 -8.45115,18.87615 -18.87616,18.87615 -10.42501,0 -18.87615,-8.45114 -18.87615,-18.87615 0,-10.42501 8.45114,-18.87616 18.87615,-18.87616 10.42501,0 18.87616,8.45115 18.87616,18.87616 z"
         transform="matrix(.16389 0 0 .16389 301.01 799.99)"
         sodipodi:cy="500.75168"
         sodipodi:cx="337.67346" />
      <path
         id="path8678"
         sodipodi:rx="18.876156"
         sodipodi:ry="18.876156"
         style="color:#000000;fill:#151515"
         sodipodi:type="arc"
         d="m 356.54962,500.75168 c 0,10.42501 -8.45115,18.87615 -18.87616,18.87615 -10.42501,0 -18.87615,-8.45114 -18.87615,-18.87615 0,-10.42501 8.45114,-18.87616 18.87615,-18.87616 10.42501,0 18.87616,8.45115 18.87616,18.87616 z"
         transform="matrix(.15556 0 0 .15556 303.83 804.16)"
         sodipodi:cy="500.75168"
         sodipodi:cx="337.67346" />
      <g
         id="g8668"
         transform="matrix(.14583 0 0 .14583 304.39 753.42)">
        <path
           id="path8646"
           sodipodi:rx="18.876156"
           sodipodi:ry="18.876156"
           style="color:#000000;fill:url(#linearGradient8769)"
           sodipodi:type="arc"
           d="m 356.54962,500.75168 c 0,10.42501 -8.45115,18.87615 -18.87616,18.87615 -10.42501,0 -18.87615,-8.45114 -18.87615,-18.87615 0,-10.42501 8.45114,-18.87616 18.87615,-18.87616 10.42501,0 18.87616,8.45115 18.87616,18.87616 z"
           transform="translate(18.681 381.31)"
           sodipodi:cy="500.75168"
           sodipodi:cx="337.67346" />
        <path
           id="path8648"
           sodipodi:rx="18.876156"
           sodipodi:ry="18.876156"
           style="color:#000000;fill:url(#linearGradient8771)"
           sodipodi:type="arc"
           d="m 356.54962,500.75168 c 0,10.42501 -8.45115,18.87615 -18.87616,18.87615 -10.42501,0 -18.87615,-8.45114 -18.87615,-18.87615 0,-10.42501 8.45114,-18.87616 18.87615,-18.87616 10.42501,0 18.87616,8.45115 18.87616,18.87616 z"
           transform="matrix(.74444 0 0 .50556 104.87 620.51)"
           sodipodi:cy="500.75168"
           sodipodi:cx="337.67346" />
      </g>
    </g>
    <g
       id="g8773"
       transform="matrix(1.9588 0 0 1.9588 -341.67 -1232)">
      <path
         id="path8775"
         sodipodi:rx="18.876156"
         sodipodi:ry="18.876156"
         style="color:#000000;filter:url(#filter8758);fill:#1e1e1e"
         sodipodi:type="arc"
         d="m 356.54962,500.75168 c 0,10.42501 -8.45115,18.87615 -18.87616,18.87615 -10.42501,0 -18.87615,-8.45114 -18.87615,-18.87615 0,-10.42501 8.45114,-18.87616 18.87615,-18.87616 10.42501,0 18.87616,8.45115 18.87616,18.87616 z"
         transform="matrix(.16389 0 0 .16389 301.01 799.99)"
         sodipodi:cy="500.75168"
         sodipodi:cx="337.67346" />
      <path
         id="path8777"
         sodipodi:rx="18.876156"
         sodipodi:ry="18.876156"
         style="color:#000000;fill:#151515"
         sodipodi:type="arc"
         d="m 356.54962,500.75168 c 0,10.42501 -8.45115,18.87615 -18.87616,18.87615 -10.42501,0 -18.87615,-8.45114 -18.87615,-18.87615 0,-10.42501 8.45114,-18.87616 18.87615,-18.87616 10.42501,0 18.87616,8.45115 18.87616,18.87616 z"
         transform="matrix(.15556 0 0 .15556 303.83 804.16)"
         sodipodi:cy="500.75168"
         sodipodi:cx="337.67346" />
      <g
         id="g8779"
         transform="matrix(.14583 0 0 .14583 304.39 753.42)">
        <path
           id="path8781"
           sodipodi:rx="18.876156"
           sodipodi:ry="18.876156"
           style="color:#000000;fill:url(#linearGradient8769)"
           sodipodi:type="arc"
           d="m 356.54962,500.75168 c 0,10.42501 -8.45115,18.87615 -18.87616,18.87615 -10.42501,0 -18.87615,-8.45114 -18.87615,-18.87615 0,-10.42501 8.45114,-18.87616 18.87615,-18.87616 10.42501,0 18.87616,8.45115 18.87616,18.87616 z"
           transform="translate(18.681 381.31)"
           sodipodi:cy="500.75168"
           sodipodi:cx="337.67346" />
        <path
           id="path8783"
           sodipodi:rx="18.876156"
           sodipodi:ry="18.876156"
           style="color:#000000;fill:url(#linearGradient8771)"
           sodipodi:type="arc"
           d="m 356.54962,500.75168 c 0,10.42501 -8.45115,18.87615 -18.87616,18.87615 -10.42501,0 -18.87615,-8.45114 -18.87615,-18.87615 0,-10.42501 8.45114,-18.87616 18.87615,-18.87616 10.42501,0 18.87616,8.45115 18.87616,18.87616 z"
           transform="matrix(.74444 0 0 .50556 104.87 620.51)"
           sodipodi:cy="500.75168"
           sodipodi:cx="337.67346" />
      </g>
    </g>
    <path
       id="path6226"
       style="block-progression:tb;text-indent:0;color:#000000;text-transform:none;fill:#000000"
       d="m354.9 441.6c-6.631 0.57197-11.418 4.4316-15.378 8.5808-3.9603 4.1492-7.3203 8.6674-11.134 11.503l-0.15378 0.12302-0.12302 0.12302c-76.6 76.55-153.56 152.86-229.59 229.96l-0.18453 0.18453-0.15378 0.21529c-5.7974 9.1785-2.2324 21.533 6.4895 27.373 0.0121 0.008 0.0187 0.0227 0.0307 0.0307 80.18 80.388 160.25 161 241.03 240.76l0.18453 0.18453 0.21529 0.15378c5.0639 3.1775 10.939 3.4242 16.116 1.7531 5.024-1.6218 9.4636-5.0133 12.456-9.3805 0.0307-0.0308 0.0615-0.0615 0.0922-0.0922 79.66-79.72 159.64-159.2 239.04-239.16l0.15378-0.15377 0.12302-0.18454c6.1873-9.2066 3.0048-22.138-6.0589-28.111-0.0205-0.0206-0.041-0.0409-0.0615-0.0615-79.851-80.194-159.95-160.25-240.08-240.11l-0.18453-0.18454-0.21529-0.15378c-3.6745-2.3269-8.028-3.6536-12.548-3.3524h-0.0307-0.0307zm0.36907 4.9209c0.0205-0.00098 0.041 0.00099 0.0615 0 3.2798-0.20405 6.5492 0.7703 9.4112 2.5527 80.051 79.789 160.06 159.75 239.83 239.86l0.18453 0.18453 0.24605 0.15378c6.9496 4.2798 9.5966 14.563 5.1054 21.406-79.349 79.897-159.26 159.32-238.88 239l-0.18454 0.18453-0.15378 0.21529c-2.3457 3.5795-6.1053 6.445-10.149 7.7504-4.0003 1.2913-8.1428 1.0996-11.841-1.1687-80.68-79.65-160.65-160.16-240.76-240.47l-0.18454-0.18454-0.24604-0.15378c-6.7073-4.2238-9.5788-14.028-5.413-20.791 75.833-76.895 152.57-153.03 229.01-229.41 0.0761-0.0566 0.13983-0.12727 0.21529-0.18453l0.0615-0.0615c4.5096-3.4435 7.9244-8.092 11.503-11.841 3.6408-3.8146 7.2387-6.5961 12.179-7.0431z" />
  </g>
  <metadata
     id="metadata43">
    <rdf:RDF>
      <cc:Work>
        <dc:format>image/svg+xml</dc:format>
        <dc:type
           rdf:resource="http://purl.org/dc/dcmitype/StillImage" />
        <cc:license
           rdf:resource="http://creativecommons.org/licenses/publicdomain/" />
        <dc:publisher>
          <cc:Agent
             rdf:about="http://openclipart.org/">
            <dc:title>Openclipart</dc:title>
          </cc:Agent>
        </dc:publisher>
        <dc:title></dc:title>
        <dc:date>2010-05-21T14:56:38</dc:date>
        <dc:description>Australian  road sign. Warning Kangaroos Ahead.</dc:description>
        <dc:source>https://openclipart.org/detail/61759/kangaroo-sign-by-djcowan</dc:source>
        <dc:creator>
          <cc:Agent>
            <dc:title>djcowan</dc:title>
          </cc:Agent>
        </dc:creator>
        <dc:subject>
          <rdf:Bag>
            <rdf:li>Anzac</rdf:li>
            <rdf:li>Aussicon</rdf:li>
            <rdf:li>Aussie</rdf:li>
            <rdf:li>Australia</rdf:li>
            <rdf:li>caution</rdf:li>
            <rdf:li>glass</rdf:li>
            <rdf:li>kangaroo</rdf:li>
            <rdf:li>road sign</rdf:li>
            <rdf:li>roo</rdf:li>
            <rdf:li>shiny</rdf:li>
            <rdf:li>sign</rdf:li>
            <rdf:li>traffic</rdf:li>
            <rdf:li>warning</rdf:li>
          </rdf:Bag>
        </dc:subject>
      </cc:Work>
      <cc:License
         rdf:about="http://creativecommons.org/licenses/publicdomain/">
        <cc:permits
           rdf:resource="http://creativecommons.org/ns#Reproduction" />
        <cc:permits
           rdf:resource="http://creativecommons.org/ns#Distribution" />
        <cc:permits
           rdf:resource="http://creativecommons.org/ns#DerivativeWorks" />
      </cc:License>
    </rdf:RDF>
  </metadata>
</svg>
