<?xml version="1.0" encoding="UTF-8" standalone="no"?>
<svg
   xmlns:dc="http://purl.org/dc/elements/1.1/"
   xmlns:cc="http://creativecommons.org/ns#"
   xmlns:rdf="http://www.w3.org/1999/02/22-rdf-syntax-ns#"
   xmlns:svg="http://www.w3.org/2000/svg"
   xmlns="http://www.w3.org/2000/svg"
   xmlns:sodipodi="http://sodipodi.sourceforge.net/DTD/sodipodi-0.dtd"
   xmlns:inkscape="http://www.inkscape.org/namespaces/inkscape"
   id="svg4708"
   viewBox="0 0 18 32"
   version="1.1"
   inkscape:version="0.48.3.1 r9886"
   width="100%"
   height="100%"
   sodipodi:docname="idea_picto32.png">
  <defs
     id="defs17" />
  <sodipodi:namedview
     pagecolor="#ffffff"
     bordercolor="#666666"
     borderopacity="1"
     objecttolerance="10"
     gridtolerance="10"
     guidetolerance="10"
     inkscape:pageopacity="0"
     inkscape:pageshadow="2"
     inkscape:window-width="1855"
     inkscape:window-height="1056"
     id="namedview15"
     showgrid="false"
     inkscape:zoom="15.08942"
     inkscape:cx="-8.2910661"
     inkscape:cy="3.5731734"
     inkscape:window-x="65"
     inkscape:window-y="24"
     inkscape:window-maximized="1"
     inkscape:current-layer="svg4708" />
  <path
     id="rect4735"
     d="m 9.0179435,0.49090448 c -0.077989,1.3792e-4 -8.5014889,0.0357585 -8.5014889,8.89899642 0,5.7057151 3.872221,7.8205581 3.6019135,8.3160741 l 0.8474997,3.005959 h 0.1853915 c -0.6589796,0 -1.1918333,0.532791 -1.1918333,1.191821 0,0.658981 0.5328093,1.191841 1.1918333,1.191841 H 6.528423 l -1.8274142,0.701842 c -0.6150411,0.236587 -0.9251765,0.934301 -0.6885903,1.549367 0.2365931,0.615036 0.9210923,0.911969 1.5360801,0.675353 l 7.3626584,-2.833826 c 0.07303,-0.02807 0.134736,-0.066 0.198632,-0.105945 0.0043,-2.57e-4 0.009,3.84e-4 0.01323,0 0.616368,-0.046 1.099123,-0.550041 1.099123,-1.178543 0,-0.640895 -0.504954,-1.163678 -1.138832,-1.191821 l 0.8475,-3.005959 c -0.270315,-0.495585 3.601912,-2.610448 3.601912,-8.3160744 0,-8.86250901 -8.4234643,-8.89812959 -8.5014887,-8.89899646 z M 5.9721963,2.5566515 c -2.541e-4,0.00887 0,0.01714 0,0.026499 0.4315084,-0.1069014 0.6313313,0.5957972 0.070167,0.761754 C 4.3547514,3.8220192 3.3502472,5.959953 3.3502472,5.959953 3.0043487,6.5602228 2.354431,6.1470399 2.6009994,5.718273 2.8897435,4.9354281 4.1306501,2.9933089 5.9722288,2.5567008 z M 12.527062,23.890085 c -0.154467,-0.0049 -0.309718,0.02029 -0.463474,0.0794 L 4.7009309,26.80332 c -0.615041,0.236597 -0.9251774,0.921101 -0.6885912,1.536078 0.088726,0.230657 0.2493834,0.411764 0.4369914,0.542938 0.09999,0.122515 0.214873,0.232568 0.3575395,0.317817 l 3.4959121,2.079046 c 0.2374462,0.194485 0.5318203,0.306183 0.8342573,0.304567 0.2949907,0.0049 0.5851433,-0.09555 0.8210156,-0.278078 l 3.5224124,-2.105545 c 0.649344,-0.388024 0.871741,-1.233017 0.503198,-1.893623 -0.368496,-0.660626 -1.19131,-0.877994 -1.840707,-0.489951 L 9.1370045,28.604275 8.157091,28.021618 12.911044,26.194192 c 0.61504,-0.236587 0.925176,-0.921091 0.68859,-1.536078 -0.177442,-0.461274 -0.609228,-0.753332 -1.072624,-0.768049 z"
     inkscape:connector-curvature="0"
     style="fill:#ffffff;stroke:#000000;stroke-width:0.48850194;stroke-miterlimit:4;stroke-opacity:1;stroke-dasharray:none" />
  <metadata
     id="metadata13">
    <rdf:RDF>
      <cc:Work>
        <dc:format>image/svg+xml</dc:format>
        <dc:type
           rdf:resource="http://purl.org/dc/dcmitype/StillImage" />
        <cc:license
           rdf:resource="http://creativecommons.org/licenses/publicdomain/" />
        <dc:publisher>
          <cc:Agent
             rdf:about="http://openclipart.org/">
            <dc:title>Openclipart</dc:title>
          </cc:Agent>
        </dc:publisher>
        <dc:title></dc:title>
        <dc:date>2013-10-21T15:14:24</dc:date>
        <dc:description>Light Bulb Icon</dc:description>
        <dc:source>https://openclipart.org/detail/185271/light-bulb-icon-2-by-minduka-185271</dc:source>
        <dc:creator>
          <cc:Agent>
            <dc:title>Minduka</dc:title>
          </cc:Agent>
        </dc:creator>
        <dc:subject>
          <rdf:Bag>
            <rdf:li>Light Bulb Icon</rdf:li>
            <rdf:li>idea</rdf:li>
            <rdf:li>lamp</rdf:li>
            <rdf:li>light</rdf:li>
          </rdf:Bag>
        </dc:subject>
      </cc:Work>
      <cc:License
         rdf:about="http://creativecommons.org/licenses/publicdomain/">
        <cc:permits
           rdf:resource="http://creativecommons.org/ns#Reproduction" />
        <cc:permits
           rdf:resource="http://creativecommons.org/ns#Distribution" />
        <cc:permits
           rdf:resource="http://creativecommons.org/ns#DerivativeWorks" />
      </cc:License>
    </rdf:RDF>
  </metadata>
</svg>
