<?xml version="1.0" encoding="utf-8"?>
<!-- Generated by IcoMoon.io -->
<!DOCTYPE svg PUBLIC "-//W3C//DTD SVG 1.1//EN" "http://www.w3.org/Graphics/SVG/1.1/DTD/svg11.dtd">
<svg version="1.1" xmlns="http://www.w3.org/2000/svg" xmlns:xlink="http://www.w3.org/1999/xlink" width="25" height="32" viewBox="0 0 25 32">
<path d="M1.661 0.158c-0.373 0-0.679 0.117-0.938 0.375s-0.375 0.595-0.375 0.969v29.313c0 0.373 0.117 0.711 0.375 0.969s0.564 0.375 0.938 0.375h21.344c0.373 0 0.68-0.117 0.938-0.375s0.406-0.595 0.406-0.969v-17.313h-8c-0.729 0-1.35-0.288-1.875-0.813s-0.813-1.146-0.813-1.875v-10.656h-12zM16.349 2.815v6.688c0 0.373 0.117 0.68 0.375 0.938s0.564 0.375 0.938 0.375h6.688l-8-8zM6.911 9.033c0.044 0.001 4.719 0.012 4.719 4.938 0 3.171-2.15 4.349-2 4.625l-0.469 1.688c0.352 0.016 0.625 0.3 0.625 0.656 0 0.35-0.251 0.631-0.594 0.656-0.036 0.022-0.084 0.047-0.125 0.063l-4.094 1.563c-0.342 0.132-0.713-0.033-0.844-0.375s0.033-0.712 0.375-0.844l1.031-0.406h-0.781c-0.366 0-0.656-0.29-0.656-0.656 0-0.332 0.244-0.608 0.563-0.656l-0.469-1.688c0.15-0.275-2-1.454-2-4.625 0-4.925 4.675-4.938 4.719-4.938zM5.224 10.19c-1.023 0.243-1.714 1.315-1.875 1.75-0.137 0.238 0.214 0.458 0.406 0.125 0 0 0.562-1.172 1.5-1.438 0.312-0.092 0.208-0.497-0.031-0.438zM19.192 15.471c0.064-0.011 0.158 0.033 0.219 0.094l3.688 3.688c0.121 0.121 0.092 0.301-0.063 0.375l-1.031 0.5-3.469-3.469 0.5-1.031c0.037-0.077 0.092-0.145 0.156-0.156zM17.88 17.221l3.563 3.563-0.281 3.406c-0.028 0.227-0.078 0.435-0.375 0.5-4.452 0.927-8.813 4.063-8.813 4.063l-0.75-0.719 3.531-3.531c0.162 0.078 0.339 0.125 0.531 0.125 0.688 0 1.25-0.562 1.25-1.25s-0.562-1.25-1.25-1.25c-0.688 0-1.219 0.562-1.219 1.25 0 0.192 0.016 0.368 0.094 0.531l-3.531 3.531-0.719-0.75c0 0 3.136-4.329 4.063-8.781 0.065-0.297 0.273-0.347 0.5-0.375l3.406-0.313zM8.849 22.033c0.258 0.008 0.495 0.181 0.594 0.438 0.131 0.342-0.033 0.712-0.375 0.844l-2.625 1.031 0.531 0.313 1.656-1c0.361-0.216 0.826-0.086 1.031 0.281s0.079 0.847-0.281 1.063l-1.938 1.156c-0.131 0.101-0.305 0.159-0.469 0.156-0.168 0.001-0.337-0.048-0.469-0.156l-1.938-1.156c-0.079-0.047-0.132-0.12-0.188-0.188-0.104-0.073-0.201-0.184-0.25-0.313-0.131-0.342 0.033-0.712 0.375-0.844l4.094-1.563c0.085-0.033 0.164-0.065 0.25-0.063z"></path>
</svg>
