<?xml version="1.0" encoding="UTF-8" standalone="no"?>
<!-- Generated by IcoMoon.io -->

<svg
   xmlns:dc="http://purl.org/dc/elements/1.1/"
   xmlns:cc="http://creativecommons.org/ns#"
   xmlns:rdf="http://www.w3.org/1999/02/22-rdf-syntax-ns#"
   xmlns:svg="http://www.w3.org/2000/svg"
   xmlns="http://www.w3.org/2000/svg"
   xmlns:sodipodi="http://sodipodi.sourceforge.net/DTD/sodipodi-0.dtd"
   xmlns:inkscape="http://www.inkscape.org/namespaces/inkscape"
   version="1.1"
   width="28"
   height="32"
   viewBox="0 0 28 32"
   id="svg2"
   inkscape:version="0.48.4 r9939"
   sodipodi:docname="icon-proposal-ex.svg">
  <metadata
     id="metadata10">
    <rdf:RDF>
      <cc:Work
         rdf:about="">
        <dc:format>image/svg+xml</dc:format>
        <dc:type
           rdf:resource="http://purl.org/dc/dcmitype/StillImage" />
        <dc:title></dc:title>
      </cc:Work>
    </rdf:RDF>
  </metadata>
  <defs
     id="defs8" />
  <sodipodi:namedview
     pagecolor="#ffffff"
     bordercolor="#666666"
     borderopacity="1"
     objecttolerance="10"
     gridtolerance="10"
     guidetolerance="10"
     inkscape:pageopacity="0"
     inkscape:pageshadow="2"
     inkscape:window-width="1301"
     inkscape:window-height="744"
     id="namedview6"
     showgrid="false"
     inkscape:zoom="10.429825"
     inkscape:cx="12.5"
     inkscape:cy="16"
     inkscape:window-x="65"
     inkscape:window-y="24"
     inkscape:window-maximized="1"
     inkscape:current-layer="svg2" />
  <path
     d="M 1.84375 0.03125 C 1.47075 0.03125 1.133 0.1795 0.875 0.4375 C 0.617 0.6955 0.5 1.001 0.5 1.375 L 0.5 30.6875 C 0.5 31.0605 0.617 31.39825 0.875 31.65625 C 1.133 31.91425 1.46975 32.03125 1.84375 32.03125 L 23.15625 32.03125 C 23.52925 32.03125 23.867 31.91425 24.125 31.65625 C 24.383 31.39825 24.5 31.0615 24.5 30.6875 L 24.5 22.15625 L 24.5 22.125 L 28.0625 18.59375 L 26.28125 16.8125 L 24.5 18.59375 L 24.5 13.375 L 16.5 13.375 C 15.771 13.375 15.15 13.11775 14.625 12.59375 C 14.1 12.06975 13.84375 11.4155 13.84375 10.6875 L 13.84375 0.03125 L 1.84375 0.03125 z M 16.5 2.6875 L 16.5 9.375 C 16.5 9.748 16.617 10.0545 16.875 10.3125 C 17.133 10.5705 17.46975 10.6875 17.84375 10.6875 L 24.5 10.6875 L 16.5 2.6875 z M 6.40625 6.34375 C 6.45025 6.34475 11.125 6.3552499 11.125 11.28125 C 11.125 14.45225 8.975 15.63025 9.125 15.90625 L 8.65625 17.5625 C 9.00825 17.5785 9.28125 17.86275 9.28125 18.21875 C 9.28125 18.56875 9.0305 18.85 8.6875 18.875 L 8.65625 18.875 C 8.62025 18.897 8.6035 18.9215 8.5625 18.9375 L 4.46875 20.53125 C 4.12675 20.66325 3.72475 20.49825 3.59375 20.15625 C 3.46275 19.81425 3.658 19.41325 4 19.28125 L 5 18.90625 L 4.25 18.90625 C 3.884 18.90625 3.59375 18.58575 3.59375 18.21875 C 3.59375 17.89203 3.8163176 17.616713 4.125 17.5625 L 3.65625 15.90625 C 3.80625 15.63125 1.65625 14.45225 1.65625 11.28125 C 1.65625 6.3562497 6.36325 6.34375 6.40625 6.34375 z M 4.6875 7.46875 C 3.6645 7.71175 2.9735 8.815 2.8125 9.25 C 2.6755 9.488 3.057 9.708 3.25 9.375 C 3.25 9.375 3.812 8.17125 4.75 7.90625 C 5.062 7.81425 4.9275 7.44 4.6875 7.5 L 4.6875 7.46875 z M 24.40625 18.6875 L 24.40625 19 L 24.40625 21.78125 L 24.40625 22.21875 L 24.40625 22.25 L 16 30.65625 L 10.03125 24.71875 L 11.84375 23 L 16 27.15625 L 24.40625 18.6875 z M 8.34375 19.34375 C 8.60175 19.35175 8.8385 19.494 8.9375 19.75 C 9.0685 20.092 8.9045 20.493 8.5625 20.625 L 5.90625 21.625 L 6.46875 21.96875 L 8.125 20.96875 C 8.486 20.75275 8.95125 20.85175 9.15625 21.21875 C 9.36125 21.58575 9.235 22.06525 8.875 22.28125 L 6.90625 23.46875 C 6.77525 23.56975 6.63275 23.628 6.46875 23.625 C 6.30075 23.626 6.132 23.5465 6 23.4375 L 4.0625 22.28125 C 3.9835 22.23425 3.89975 22.16175 3.84375 22.09375 C 3.73975 22.02075 3.64275 21.9405 3.59375 21.8125 C 3.46275 21.4705 3.658 21.0695 4 20.9375 L 8.09375 19.375 C 8.17875 19.342 8.25775 19.34075 8.34375 19.34375 z "
     id="path4" />
</svg>
