<?xml version="1.0" encoding="utf-8"?>
<!-- Generated by IcoMoon.io -->
<!DOCTYPE svg PUBLIC "-//W3C//DTD SVG 1.1//EN" "http://www.w3.org/Graphics/SVG/1.1/DTD/svg11.dtd">
<svg version="1.1" xmlns="http://www.w3.org/2000/svg" xmlns:xlink="http://www.w3.org/1999/xlink" width="32" height="32" viewBox="0 0 32 32">
<path d="M14.738 0.102l0.497 0.637c-0.023 0.001-0.045 0.002-0.068 0.004-0.419-0.278-1.016-0.563-1.654-0.505-0.785 0.071-1.552 0.405-2.337 0.579-0.932 0.207 0.605 0.251 2.253 0.246-0.040 0.012-0.080 0.025-0.12 0.038-0.096-0.010-0.195-0.013-0.298-0.008-1.103 0.049-2.865 0.944-3.933 0.841-0.72-0.070 0.267 0.080 1.512 0.258-0.119 0.042-0.239 0.088-0.358 0.144-0.548 0.259-1.014 0.641-1.372 1.091-0.018 0.012-0.036 0.024-0.054 0.036-0.645 0.44-1.109 1.038-1.32 1.63l-0.004 0.006c0 0-0.002 0.012-0.002 0.012-0.107 0.306-0.145 0.61-0.108 0.889-0.050 0.497-0.093 1.107-0.068 1.58 0.052 0.98 0.29 2.907 0.29 2.907l0.284 1.628c-0.121-0.026-0.242-0.031-0.36-0.008-0.83 0.162-0.959 1.512-0.813 3.166 0.14 1.582 1.543 3.567 2.122 2.435 0.016-0.031 0.069-0.017 0.102-0.028 0.523 1.636 1.355 3.058 2.399 4.137v3.030l-8.115 2.116c-1.685 0.343-2.945 1.828-2.945 3.618v1.618c0 2.045 1.646 3.692 3.692 3.692h24.344c2.045 0 3.692-1.646 3.692-3.692v-1.618c0-1.839-1.331-3.354-3.086-3.642v-0.004l-7.969-2.078v-2.979c1.080-1.094 1.937-2.55 2.471-4.231 0.023 0.006 0.056-0.002 0.068 0.018 0.543 0.916 2.017-0.925 2.16-2.507 0.146-1.619 0.017-3.147-0.849-3.094-0.122 0.007-0.245 0.016-0.368 0.038 0 0 0.222-2.255 0.298-3.68 0.081-0.593 0.077-1.202-0.010-1.812 0-0.002 0-0.004 0-0.006s0-0.003 0-0.004c-0.031-0.511-0.376-0.824-0.376-0.824l-1.127-1.267c-0.279-0.998 2.613 2.094 1.872 1.24-0.699-0.806-1.529-2.634-2.794-3.482-2.042-1.369-4.727-2.029-6.163-1.629l-0.236-0.288-1.149-0.248z"></path>
</svg>
