<?xml version="1.0" encoding="UTF-8" standalone="no"?>
<!-- Generated by IcoMoon.io -->

<svg
   xmlns:dc="http://purl.org/dc/elements/1.1/"
   xmlns:cc="http://creativecommons.org/ns#"
   xmlns:rdf="http://www.w3.org/1999/02/22-rdf-syntax-ns#"
   xmlns:svg="http://www.w3.org/2000/svg"
   xmlns="http://www.w3.org/2000/svg"
   xmlns:sodipodi="http://sodipodi.sourceforge.net/DTD/sodipodi-0.dtd"
   xmlns:inkscape="http://www.inkscape.org/namespaces/inkscape"
   version="1.1"
   width="24"
   height="24"
   viewBox="0 0 24 24"
   id="svg2"
   inkscape:version="0.48.4 r9939"
   sodipodi:docname="sentiment_satisfied.svg">
  <metadata
     id="metadata10">
    <rdf:RDF>
      <cc:Work
         rdf:about="">
        <dc:format>image/svg+xml</dc:format>
        <dc:type
           rdf:resource="http://purl.org/dc/dcmitype/StillImage" />
        <dc:title></dc:title>
      </cc:Work>
    </rdf:RDF>
  </metadata>
  <defs
     id="defs8" />
  <sodipodi:namedview
     pagecolor="#ffffff"
     bordercolor="#666666"
     borderopacity="1"
     objecttolerance="10"
     gridtolerance="10"
     guidetolerance="10"
     inkscape:pageopacity="0"
     inkscape:pageshadow="2"
     inkscape:window-width="1855"
     inkscape:window-height="1056"
     id="namedview6"
     showgrid="false"
     inkscape:zoom="27.812867"
     inkscape:cx="6.9675749"
     inkscape:cy="13.25073"
     inkscape:window-x="65"
     inkscape:window-y="24"
     inkscape:window-maximized="1"
     inkscape:current-layer="svg2" />
  <path
     d="M 19 0.46875 L 19 3.625 L 15.84375 3.625 L 15.84375 5 L 19 5 L 19 8.03125 L 20.375 8.03125 L 20.375 5 L 23.40625 5 L 23.40625 3.625 L 20.375 3.625 L 20.375 0.46875 L 19 0.46875 z M 12 2.03125 C 6.469 2.03125 2.03125 6.469 2.03125 12 C 2.03125 17.531 6.469 21.96875 12 21.96875 C 17.531 21.96875 21.96875 17.531 21.96875 12 C 21.96875 10.481949 21.632356 9.0358617 21.03125 7.75 L 19.625 9.5 C 19.884863 10.286434 20.03125 11.129668 20.03125 12 C 20.03125 16.407 16.406 20.03125 12 20.03125 C 7.593 20.03125 3.96875 16.407 3.96875 12 C 3.96875 7.593 7.593 3.96875 12 3.96875 C 12.928187 3.96875 13.825123 4.1435773 14.65625 4.4375 L 15.96875 2.84375 C 14.756294 2.3224421 13.407779 2.03125 12 2.03125 z M 8.1875 8.03125 C 7.4965234 8.1683516 6.96875 8.79275 6.96875 9.53125 C 6.96875 10.37525 7.62475 11.03125 8.46875 11.03125 C 9.31275 11.03125 9.96875 10.37525 9.96875 9.53125 C 9.96875 8.68725 9.31275 8.03125 8.46875 8.03125 C 8.36325 8.03125 8.2862109 8.0116641 8.1875 8.03125 z M 15.21875 8.03125 C 14.527773 8.1683516 14.03125 8.79275 14.03125 9.53125 C 14.03125 10.37525 14.68725 11.03125 15.53125 11.03125 C 16.37525 11.03125 17.03125 10.37525 17.03125 9.53125 C 17.03125 9.1263581 16.875275 8.7354393 16.625 8.46875 L 16.40625 8.3125 C 16.393637 8.3034701 16.387916 8.2898889 16.375 8.28125 C 16.136055 8.1214297 15.84775 8.03125 15.53125 8.03125 C 15.42575 8.03125 15.317461 8.0116641 15.21875 8.03125 z M 6.90625 14 C 7.70225 16.063 9.657 17.46875 12 17.46875 C 14.343 17.46875 16.328 16.063 17.125 14 L 15.46875 14 C 14.76575 15.172 13.5 15.96875 12 15.96875 C 10.5 15.96875 9.23425 15.172 8.53125 14 L 6.90625 14 z "
     id="path4"
     style="fill:#4d4d4d" />
</svg>
