<?xml version="1.0" encoding="UTF-8" standalone="no"?>
<!-- Generated by IcoMoon.io -->

<svg
   xmlns:dc="http://purl.org/dc/elements/1.1/"
   xmlns:cc="http://creativecommons.org/ns#"
   xmlns:rdf="http://www.w3.org/1999/02/22-rdf-syntax-ns#"
   xmlns:svg="http://www.w3.org/2000/svg"
   xmlns="http://www.w3.org/2000/svg"
   xmlns:sodipodi="http://sodipodi.sourceforge.net/DTD/sodipodi-0.dtd"
   xmlns:inkscape="http://www.inkscape.org/namespaces/inkscape"
   version="1.1"
   width="22"
   height="32"
   viewBox="0 0 22 32"
   id="svg2"
   inkscape:version="0.48.4 r9939"
   sodipodi:docname="icon-idea-ex.svg">
  <metadata
     id="metadata10">
    <rdf:RDF>
      <cc:Work
         rdf:about="">
        <dc:format>image/svg+xml</dc:format>
        <dc:type
           rdf:resource="http://purl.org/dc/dcmitype/StillImage" />
        <dc:title></dc:title>
      </cc:Work>
    </rdf:RDF>
  </metadata>
  <defs
     id="defs8" />
  <sodipodi:namedview
     pagecolor="#ffffff"
     bordercolor="#666666"
     borderopacity="1"
     objecttolerance="10"
     gridtolerance="10"
     guidetolerance="10"
     inkscape:pageopacity="0"
     inkscape:pageshadow="2"
     inkscape:window-width="1301"
     inkscape:window-height="744"
     id="namedview6"
     showgrid="false"
     inkscape:zoom="14.75"
     inkscape:cx="14.888238"
     inkscape:cy="18.541001"
     inkscape:window-x="65"
     inkscape:window-y="24"
     inkscape:window-maximized="1"
     inkscape:current-layer="svg2" />
  <path
     d="M 8.5105932,0.51483051 C 6.8459332,0.64289501 0.38559322,1.665955 0.38559322,9.4210805 c 0,5.7060015 3.86374998,7.8175005 3.59374998,8.3125005 l 0.84375,3 0.1875,0 c -0.659,0 -1.1875,0.5285 -1.1875,1.1875 0,0.659 0.5285,1.1875 1.1875,1.1875 l 1.375,0 -1.8125,0.71875 c -0.615,0.237 -0.9235,0.91625 -0.6875,1.53125 0.236,0.615 0.91625,0.9245 1.53125,0.6875 l 7.3749998,-2.84375 c 0.073,-0.028 0.1235,-0.05375 0.1875,-0.09375 0.616,-0.046 1.125,-0.5585 1.125,-1.1875 0,-0.641 -0.52225,-1.1595 -1.15625,-1.1875 l 0.84375,-3 c -0.237856,-0.436951 2.725389,-2.139596 3.4375,-6.4375 l -7.7812498,7.8125 -6.09375,-6.09375 1.96875,-1.84375 4.125,4.09375 7.7812498,-7.8125005 C 16.075726,0.56987081 8.9894392,0.51574941 8.9168432,0.51483051 l -0.03125,0 c -0.0098,0 -0.137192,-0.018295 -0.375,0 z M 17.229343,7.4523305 c 0.111111,0.6304382 0.1875,1.3109143 0.1875,2.0625 0,0.6782115 -0.06051,1.2950325 -0.15625,1.8750005 l 4.40625,-4.4062505 -1.96875,-2 -2.46875,2.46875 z m -11.3749998,-4.875 0,0.03125 c 0.431,-0.107 0.6235,0.584 0.0625,0.75 -1.688,0.477 -2.6875,2.625 -2.6875,2.625 -0.346,0.6 -0.997,0.179 -0.75,-0.25 0.289,-0.783 1.534,-2.71925 3.375,-3.15625 z M 12.166843,23.921081 c -0.071,0.0089 -0.14225,0.033 -0.21875,0.0625 l -7.3749998,2.84375 c -0.615,0.237 -0.9235,0.91625 -0.6875,1.53125 0.089,0.231 0.2495,0.40025 0.4375,0.53125 0.1,0.122 0.20075,0.2275 0.34375,0.3125 l 3.5,2.09375 c 0.237,0.195 0.54175,0.3135 0.84375,0.3125 0.295,0.005 0.5765,-0.09925 0.8125,-0.28125 l 3.5312498,-2.125 c 0.649,-0.388 0.869,-1.214 0.5,-1.875 -0.369,-0.661 -1.19375,-0.888 -1.84375,-0.5 l -2.9999998,1.78125 -0.96875,-0.5625 4.7499998,-1.84375 c 0.615,-0.237 0.9235,-0.91625 0.6875,-1.53125 -0.177,-0.461 -0.62975,-0.735 -1.09375,-0.75 -0.077,-0.0025 -0.14775,-0.0089 -0.21875,0 z"
     id="path4-3"
     inkscape:connector-curvature="0" />
</svg>
