<?xml version="1.0" encoding="utf-8"?>
<!-- Generated by IcoMoon.io -->
<!DOCTYPE svg PUBLIC "-//W3C//DTD SVG 1.1//EN" "http://www.w3.org/Graphics/SVG/1.1/DTD/svg11.dtd">
<svg version="1.1" xmlns="http://www.w3.org/2000/svg" xmlns:xlink="http://www.w3.org/1999/xlink" width="18" height="32" viewBox="0 0 18 32">
<path d="M9.018 0.522c-0.078 0-8.502 0.036-8.502 8.899 0 5.706 3.872 7.821 3.602 8.316l0.848 3.006h0.185c-0.659 0-1.192 0.533-1.192 1.192s0.533 1.192 1.192 1.192h1.377l-1.827 0.702c-0.615 0.237-0.925 0.934-0.689 1.549s0.921 0.912 1.536 0.675l7.363-2.834c0.073-0.028 0.135-0.066 0.199-0.106 0.004 0 0.009 0 0.013 0 0.616-0.046 1.099-0.55 1.099-1.179 0-0.641-0.505-1.164-1.139-1.192l0.848-3.006c-0.27-0.496 3.602-2.61 3.602-8.316 0-8.863-8.423-8.898-8.502-8.899zM5.972 2.588c0 0.009 0 0.017 0 0.026 0.431-0.107 0.631 0.596 0.070 0.762-1.688 0.477-2.692 2.615-2.692 2.615-0.346 0.6-0.996 0.187-0.749-0.242 0.289-0.783 1.53-2.725 3.371-3.162zM12.527 23.921c-0.154-0.005-0.31 0.020-0.463 0.079l-7.363 2.834c-0.615 0.237-0.925 0.921-0.689 1.536 0.089 0.231 0.249 0.412 0.437 0.543 0.1 0.122 0.215 0.233 0.358 0.318l3.496 2.079c0.237 0.195 0.532 0.306 0.834 0.305 0.295 0.005 0.585-0.096 0.821-0.278l3.522-2.106c0.649-0.388 0.872-1.233 0.503-1.894s-1.191-0.878-1.841-0.49l-3.006 1.788-0.98-0.583 4.754-1.827c0.615-0.237 0.925-0.921 0.689-1.536-0.177-0.461-0.609-0.753-1.073-0.768z"></path>
</svg>
