<?xml version="1.0" encoding="utf-8"?>
<!-- Generated by IcoMoon.io -->
<!DOCTYPE svg PUBLIC "-//W3C//DTD SVG 1.1//EN" "http://www.w3.org/Graphics/SVG/1.1/DTD/svg11.dtd">
<svg version="1.1" xmlns="http://www.w3.org/2000/svg" xmlns:xlink="http://www.w3.org/1999/xlink" width="32" height="32" viewBox="0 0 32 32">
<path d="M16.441 0.591c-2.744 0-4.968 2.224-4.968 4.967s2.224 4.968 4.968 4.968c2.744 0 4.968-2.224 4.968-4.968s-2.224-4.967-4.968-4.967zM10.243 5.887c-1.59 0.967-2.93 2.304-3.9 3.892 2.887 0.655 5.042 3.236 5.042 6.322 0 2.98-2.011 5.491-4.751 6.248 0.932 1.378 2.151 2.544 3.571 3.415 0.648-2.896 3.234-5.060 6.326-5.060 2.991 0 5.51 2.026 6.257 4.781 1.22-0.825 2.276-1.874 3.107-3.090-2.725-0.767-4.723-3.27-4.723-6.24 0-3.097 2.172-5.687 5.075-6.33-0.864-1.43-2.027-2.658-3.402-3.599-0.743 2.761-3.264 4.794-6.26 4.794-3.117 0-5.721-2.201-6.342-5.134zM5.807 11.171c-2.744 0-4.968 2.224-4.968 4.968s2.224 4.968 4.968 4.968c2.744 0 4.968-2.224 4.968-4.968s-2.224-4.968-4.968-4.968zM26.698 11.171c-2.744 0-4.968 2.224-4.968 4.968s2.224 4.968 4.968 4.968c2.744 0 4.968-2.224 4.968-4.968s-2.224-4.968-4.968-4.968zM16.441 21.311c-2.744 0-4.968 2.224-4.968 4.967s2.224 4.968 4.968 4.968c2.744 0 4.968-2.224 4.968-4.968s-2.224-4.967-4.968-4.967z"></path>
</svg>
