<?xml version="1.0" encoding="UTF-8" standalone="no"?>
<!-- Created with Inkscape (http://www.inkscape.org/) -->

<svg
   xmlns:dc="http://purl.org/dc/elements/1.1/"
   xmlns:cc="http://creativecommons.org/ns#"
   xmlns:rdf="http://www.w3.org/1999/02/22-rdf-syntax-ns#"
   xmlns:svg="http://www.w3.org/2000/svg"
   xmlns="http://www.w3.org/2000/svg"
   xmlns:xlink="http://www.w3.org/1999/xlink"
   xmlns:sodipodi="http://sodipodi.sourceforge.net/DTD/sodipodi-0.dtd"
   xmlns:inkscape="http://www.inkscape.org/namespaces/inkscape"
   width="32"
   height="32"
   id="svg2"
   version="1.1"
   inkscape:version="0.48.3.1 r9886"
   sodipodi:docname="del_button_over2.svg">
  <defs
     id="defs4">
    <linearGradient
       id="linearGradient3926">
      <stop
         style="stop-color:#4c0000;stop-opacity:1;"
         offset="0"
         id="stop3928" />
      <stop
         style="stop-color:#aa0000;stop-opacity:0;"
         offset="1"
         id="stop3930" />
    </linearGradient>
    <linearGradient
       inkscape:collect="always"
       id="linearGradient3898">
      <stop
         style="stop-color:#ffffff;stop-opacity:1;"
         offset="0"
         id="stop3900" />
      <stop
         style="stop-color:#ffffff;stop-opacity:0;"
         offset="1"
         id="stop3902" />
    </linearGradient>
    <filter
       inkscape:collect="always"
       id="filter3851"
       color-interpolation-filters="sRGB">
      <feGaussianBlur
         inkscape:collect="always"
         stdDeviation="5.6531333"
         id="feGaussianBlur3853" />
    </filter>
    <linearGradient
       inkscape:collect="always"
       xlink:href="#linearGradient3898"
       id="linearGradient3906"
       x1="125.62508"
       y1="256.10114"
       x2="139.48335"
       y2="369.85986"
       gradientUnits="userSpaceOnUse"
       gradientTransform="matrix(0.78043869,0.19110607,-0.19110607,0.78043869,103.36652,30.51934)" />
    <linearGradient
       inkscape:collect="always"
       xlink:href="#linearGradient3926"
       id="linearGradient3934"
       x1="235.70728"
       y1="466.33252"
       x2="237.58711"
       y2="276.52542"
       gradientUnits="userSpaceOnUse" />
    <linearGradient
       inkscape:collect="always"
       xlink:href="#linearGradient3898"
       id="linearGradient3007"
       gradientUnits="userSpaceOnUse"
       gradientTransform="matrix(0.1137459,0.02771877,-0.02785297,0.11319786,14.846243,985.57079)"
       x1="125.62508"
       y1="256.10114"
       x2="139.48335"
       y2="369.85986" />
    <linearGradient
       inkscape:collect="always"
       xlink:href="#linearGradient3926"
       id="linearGradient3017"
       gradientUnits="userSpaceOnUse"
       x1="235.70728"
       y1="466.33252"
       x2="237.58711"
       y2="276.52542" />
    <filter
       inkscape:collect="always"
       id="filter3800">
      <feGaussianBlur
         inkscape:collect="always"
         stdDeviation="3.1798968"
         id="feGaussianBlur3802" />
    </filter>
  </defs>
  <sodipodi:namedview
     id="base"
     pagecolor="#ffffff"
     bordercolor="#666666"
     borderopacity="1.0"
     inkscape:pageopacity="0.0"
     inkscape:pageshadow="2"
     inkscape:zoom="15.839192"
     inkscape:cx="8.392446"
     inkscape:cy="20.152203"
     inkscape:document-units="px"
     inkscape:current-layer="layer1"
     showgrid="false"
     inkscape:window-width="1855"
     inkscape:window-height="1056"
     inkscape:window-x="65"
     inkscape:window-y="24"
     inkscape:window-maximized="1" />
  <metadata
     id="metadata7">
    <rdf:RDF>
      <cc:Work
         rdf:about="">
        <dc:format>image/svg+xml</dc:format>
        <dc:type
           rdf:resource="http://purl.org/dc/dcmitype/StillImage" />
        <dc:title></dc:title>
      </cc:Work>
    </rdf:RDF>
  </metadata>
  <g
     inkscape:label="Calque 1"
     inkscape:groupmode="layer"
     id="layer1"
     transform="translate(0,-1020.3622)">
    <path
       sodipodi:type="arc"
       style="opacity:0.54838712;fill:#333333;fill-opacity:1;fill-rule:evenodd;stroke:none;filter:url(#filter3800)"
       id="path2985-0"
       sodipodi:cx="255.71428"
       sodipodi:cy="308.07648"
       sodipodi:rx="101.42857"
       sodipodi:ry="98.571426"
       d="m 357.14285,308.07648 a 101.42857,98.571426 0 1 1 -202.85714,0 101.42857,98.571426 0 1 1 202.85714,0 z"
       transform="matrix(0.14573632,0,0,0.14923803,-21.018584,990.10873)" />
    <path
       sodipodi:type="arc"
       style="fill:#999999;fill-rule:evenodd;stroke:none;filter:url(#filter3851)"
       id="path2985-5"
       sodipodi:cx="255.71428"
       sodipodi:cy="308.07648"
       sodipodi:rx="101.42857"
       sodipodi:ry="98.571426"
       d="m 357.14285,308.07648 c 0,54.43949 -45.41112,98.57142 -101.42857,98.57142 -56.01746,0 -101.42857,-44.13193 -101.42857,-98.57142 0,-54.4395 45.41111,-98.57143 101.42857,-98.57143 56.01745,0 101.42857,44.13193 101.42857,98.57143 z"
       transform="matrix(0.13806248,0,0,0.1413798,-19.696257,992.8089)" />
    <path
       sodipodi:type="arc"
       style="fill:#cf2300;fill-opacity:1;fill-rule:evenodd;stroke:none"
       id="path2985"
       sodipodi:cx="255.71428"
       sodipodi:cy="308.07648"
       sodipodi:rx="101.42857"
       sodipodi:ry="98.571426"
       d="m 357.14285,308.07648 a 101.42857,98.571426 0 1 1 -202.85714,0 101.42857,98.571426 0 1 1 202.85714,0 z"
       transform="matrix(0.14284712,0,0,0.14627941,-20.328136,990.91907)" />
    <g
       id="g4095"
       transform="matrix(1.4297531,0,0,1.4297531,49.735447,-479.82226)">
      <g
         id="g4090">
        <path
           style="fill:#ffffff;fill-opacity:1;stroke:none"
           d="m -31.4375,37.5625 0,2.03125 1,0 0,-2.03125 -1,0 z m 1.625,0 0,2.03125 5.4375,0 c -0.202778,-0.229445 -0.379206,-0.499312 -0.53125,-0.78125 -0.21986,-0.407683 -0.326918,-0.8134 -0.40625,-1.25 l -4.5,0 z m 6.03125,0 c -0.182708,0.669214 -0.252561,1.348874 -0.15625,2.03125 l 8.21875,0 0,-2.03125 -8.0625,0 z"
           transform="translate(0,1020.3622)"
           id="rect3946-2"
           inkscape:connector-curvature="0" />
        <path
           style="fill:#ffffff;fill-opacity:1;stroke:none"
           d="m -31.437,1060.5959 0,2.0312 1,0 0,-2.0312 -1,0 z m 1.625,0 0,2.0312 14.09375,0 0,-2.0312 -14.09375,0 z"
           id="rect3946-2-4"
           inkscape:connector-curvature="0" />
        <path
           style="fill:#ffffff;fill-opacity:1;stroke:none"
           d="m -31.437,1063.279 0,2.0312 1,0 0,-2.0312 -1,0 z m 1.625,0 0,2.0312 14.09375,0 0,-2.0312 -14.09375,0 z"
           id="rect3946-2-5"
           inkscape:connector-curvature="0" />
      </g>
      <g
         transform="matrix(0.917329,-0.39813003,0.39813003,0.917329,-403.00099,73.892196)"
         id="g4056">
        <path
           style="fill:#ffffff;fill-opacity:1;stroke:none"
           d="m -38.539014,1051.5265 -3.314983,-3.0547 0.258956,6.3385 3.056027,-3.2838 z"
           id="rect4032"
           inkscape:connector-curvature="0" />
        <path
           inkscape:connector-curvature="0"
           style="fill:#ffffff;fill-opacity:1;stroke:none"
           d="m -41.375,30 c -2.179265,0 -3.96875,1.720406 -3.96875,3.8125 0,0.488638 0.105754,0.946142 0.28125,1.375 0.448386,-1.777151 2.064196,-3.139724 4.09375,-3.34375 l 0,-1.8125 C -41.100257,30.018358 -41.239605,30 -41.375,30 z"
           transform="translate(0,1020.3622)"
           id="path4037" />
      </g>
    </g>
    <path
       sodipodi:type="arc"
       style="fill:url(#linearGradient3017);fill-opacity:1;fill-rule:evenodd;stroke:none"
       id="path2985-7"
       sodipodi:cx="255.71428"
       sodipodi:cy="308.07648"
       sodipodi:rx="101.42857"
       sodipodi:ry="98.571426"
       d="m 357.14285,308.07648 a 101.42857,98.571426 0 1 1 -202.85714,0 101.42857,98.571426 0 1 1 202.85714,0 z"
       transform="matrix(0.14284712,0,0,0.14627941,-20.447717,990.96258)" />
    <path
       style="fill:url(#linearGradient3007);fill-opacity:1;fill-rule:evenodd;stroke:none"
       d="m 19.547226,1022.3968 c -3.028577,-0.738 -6.07074,-0.2248 -8.575324,1.2099 l 1.965759,3.7861 c 2.201385,-0.9006 4.698806,-1.1384 7.187767,-0.5318 4.020095,0.9796 7.036321,3.9263 8.267328,7.5602 0.376437,-5.5142 -3.266328,-10.6648 -8.84553,-12.0244 z"
       id="path2985-54"
       inkscape:connector-curvature="0" />
  </g>
</svg>
