<?xml version="1.0" encoding="UTF-8" standalone="no"?>
<!-- Created with Inkscape (http://www.inkscape.org/) -->

<svg
   xmlns:dc="http://purl.org/dc/elements/1.1/"
   xmlns:cc="http://creativecommons.org/ns#"
   xmlns:rdf="http://www.w3.org/1999/02/22-rdf-syntax-ns#"
   xmlns:svg="http://www.w3.org/2000/svg"
   xmlns="http://www.w3.org/2000/svg"
   xmlns:xlink="http://www.w3.org/1999/xlink"
   xmlns:sodipodi="http://sodipodi.sourceforge.net/DTD/sodipodi-0.dtd"
   xmlns:inkscape="http://www.inkscape.org/namespaces/inkscape"
   width="1674"
   height="1674"
   id="svg173297"
   version="1.1"
   inkscape:version="0.48.4 r9939"
   sodipodi:docname="novaideo.svg">
  <defs
     id="defs173299">
    <linearGradient
       y2="1072.3301"
       x2="-897.6629"
       y1="458.58731"
       x1="-996.85297"
       gradientTransform="matrix(0.14293976,0.1954277,-0.15598728,0.11409224,211.13941,7641.9794)"
       gradientUnits="userSpaceOnUse"
       id="linearGradient166040-0-0"
       xlink:href="#linearGradient4828-9-7-1-0-7-5"
       inkscape:collect="always" />
    <linearGradient
       id="linearGradient4828-9-7-1-0-7-5"
       inkscape:collect="always">
      <stop
         id="stop4830-6-9-9-4-9-3"
         offset="0"
         style="stop-color:#ffffff;stop-opacity:1;" />
      <stop
         id="stop4832-5-5-1-0-7-4"
         offset="1"
         style="stop-color:#ffffff;stop-opacity:0;" />
    </linearGradient>
    <linearGradient
       y2="1072.3301"
       x2="-897.6629"
       y1="458.58731"
       x1="-996.85297"
       gradientTransform="matrix(0.14293976,0.1954277,-0.15598728,0.11409224,211.13941,7641.9794)"
       gradientUnits="userSpaceOnUse"
       id="linearGradient166040-0-4"
       xlink:href="#linearGradient4828-9-7-1-0-7-8"
       inkscape:collect="always" />
    <linearGradient
       id="linearGradient4828-9-7-1-0-7-8"
       inkscape:collect="always">
      <stop
         id="stop4830-6-9-9-4-9-6"
         offset="0"
         style="stop-color:#ffffff;stop-opacity:1;" />
      <stop
         id="stop4832-5-5-1-0-7-7"
         offset="1"
         style="stop-color:#ffffff;stop-opacity:0;" />
    </linearGradient>
    <linearGradient
       inkscape:collect="always"
       xlink:href="#linearGradient4828-9-7-1-0-7-5-2"
       id="linearGradient174491-1"
       gradientUnits="userSpaceOnUse"
       gradientTransform="matrix(0.10983868,0.1501718,-0.11986474,0.08767148,-184.00758,7139.3825)"
       x1="-996.85297"
       y1="458.58731"
       x2="-897.6629"
       y2="1072.3301" />
    <linearGradient
       id="linearGradient4828-9-7-1-0-7-5-2"
       inkscape:collect="always">
      <stop
         id="stop4830-6-9-9-4-9-3-7"
         offset="0"
         style="stop-color:#ffffff;stop-opacity:1;" />
      <stop
         id="stop4832-5-5-1-0-7-4-5"
         offset="1"
         style="stop-color:#ffffff;stop-opacity:0;" />
    </linearGradient>
    <linearGradient
       inkscape:collect="always"
       xlink:href="#linearGradient4828-9-7-1-0-7-5-8"
       id="linearGradient174491-9"
       gradientUnits="userSpaceOnUse"
       gradientTransform="matrix(0.10983868,0.1501718,-0.11986474,0.08767148,-184.00758,7139.3825)"
       x1="-996.85297"
       y1="458.58731"
       x2="-897.6629"
       y2="1072.3301" />
    <linearGradient
       id="linearGradient4828-9-7-1-0-7-5-8"
       inkscape:collect="always">
      <stop
         id="stop4830-6-9-9-4-9-3-92"
         offset="0"
         style="stop-color:#ffffff;stop-opacity:1;" />
      <stop
         id="stop4832-5-5-1-0-7-4-1"
         offset="1"
         style="stop-color:#ffffff;stop-opacity:0;" />
    </linearGradient>
  </defs>
  <sodipodi:namedview
     id="base"
     pagecolor="#ffffff"
     bordercolor="#666666"
     borderopacity="1.0"
     inkscape:pageopacity="0.0"
     inkscape:pageshadow="2"
     inkscape:zoom="0.175"
     inkscape:cx="1488.6329"
     inkscape:cy="-132.80258"
     inkscape:document-units="px"
     inkscape:current-layer="layer1"
     showgrid="false"
     inkscape:window-width="1855"
     inkscape:window-height="1056"
     inkscape:window-x="65"
     inkscape:window-y="24"
     inkscape:window-maximized="1" />
  <metadata
     id="metadata173302">
    <rdf:RDF>
      <cc:Work
         rdf:about="">
        <dc:format>image/svg+xml</dc:format>
        <dc:type
           rdf:resource="http://purl.org/dc/dcmitype/StillImage" />
        <dc:title></dc:title>
      </cc:Work>
    </rdf:RDF>
  </metadata>
  <g
     inkscape:label="Calque 1"
     inkscape:groupmode="layer"
     id="layer1"
     transform="translate(0,621.63782)">
    <g
       id="g5583"
       style="fill:#666666">
      <path
         inkscape:connector-curvature="0"
         id="rect4090-2-4-3-5-61-2-6-8"
         d="m 1256.0904,493.83189 c 151.4817,53.37942 273.0684,-38.04954 311.3714,-146.74728 41.4821,-117.71472 -37.5466,-230.62063 20.1087,-417.672357 L 1374.2173,-211.47944 c -4.8631,15.95406 -7.3099,30.87329 -7.1957,43.71832 -74.3855,196.734786 -212.663,236.598885 -254.568,355.51508 -34.8797,98.89553 -9.5043,243.46129 129.9241,300.89189 2.2142,0.91207 4.4319,1.72143 6.7024,2.58775 2.3067,0.88095 4.6419,1.76474 7.0103,2.59829 z m 344.1248,-594.62562 c 4.3048,-7.00186 8.346,-14.80092 12.047,-23.28255 l -213.8654,-141.18499 c -0.4936,0.82551 -1.0372,1.60268 -1.5228,2.43892 -4.001,6.89556 -7.5476,13.78966 -10.7612,20.65354 l 214.1044,141.37625 z m 23.0968,-54.49306 c 1.5508,-5.54407 2.9391,-11.24105 4.1617,-17.09429 1.0125,-4.84133 1.9008,-9.60515 2.6273,-14.35015 l -193.4858,-127.72914 c -6.8325,6.62268 -13.6318,14.14659 -20.1618,22.55305 l 206.8586,136.62053 z m 9.6378,-68.1794 c -0.015,-18.56831 -2.4328,-35.25389 -6.9599,-48.54984 5.226,-15.46537 -2.9666,-32.23684 -18.4382,-37.68827 l -113.1563,-39.97468 c -13.2235,-4.65893 -27.4322,0.56274 -34.7932,11.7465 l 173.346,114.46644 z"
         style="fill:#666666;fill-opacity:1;stroke:none" />
      <path
         inkscape:connector-curvature="0"
         id="rect4090-2-4-3-5-9-7-8-3-8-50"
         d="M 779.13811,-251.14676 C 872.73505,-120.62473 818.93813,21.672439 725.28076,88.833589 623.85395,161.56716 493.35789,117.25021 329.87956,224.89477 L 134.96527,59.431587 c 13.95808,-9.129426 27.59907,-15.64884 39.96371,-19.129854 168.09878,-126.4144 167.71994,-270.323243 270.18133,-343.799053 85.20252,-61.13436 231.0992,-77.18148 325.21549,40.63463 1.49463,1.87075 2.89154,3.77395 4.35835,5.71183 1.49069,1.96863 2.992,3.96342 4.45396,6.0041 z M 304.41279,245.47909 c -5.51949,6.09055 -11.87773,12.15123 -18.98715,18.07512 L 90.086081,97.681052 c 0.656412,-0.703318 1.246591,-1.445936 1.91446,-2.145299 C 97.502562,89.76633 103.13036,84.43418 108.82236,79.42998 l 195.59043,166.04911 z m -45.8641,37.40956 c -4.89031,3.03773 -9.97158,5.96385 -15.24979,8.77391 -4.36528,2.32484 -8.69057,4.50997 -13.04365,6.5336 L 53.53207,148.12888 c 4.448263,-8.41162 9.77209,-17.04292 16.017092,-25.6631 L 258.54869,282.88865 z m -62.76815,28.31141 c -17.83179,5.17612 -34.52815,7.51891 -48.55919,6.88947 -13.3883,9.34029 -31.78062,6.16314 -41.34019,-7.16816 L 35.869529,213.45052 c -8.170621,-11.39465 -7.129062,-26.49604 1.551512,-36.68957 L 195.78017,311.19833 z"
         style="fill:#666666;fill-opacity:1;stroke:none" />
      <path
         inkscape:connector-curvature="0"
         id="rect4090-2-4-3-5-9-79-7-84-9"
         d="M 387.07575,203.72209 C 238.71214,265.24168 209.35938,414.50953 253.50286,520.96897 301.30812,636.26115 435.55045,667.44315 517.65849,845.12458 L 770.52914,807.36195 C 763.48626,792.24343 755.33624,779.50977 746.66773,770.03013 670.53405,573.965 746.76323,451.90352 698.47057,335.43506 658.33076,238.55534 542.84495,147.96623 400.74217,198.41679 c -2.25647,0.80096 -4.44765,1.68099 -6.71579,2.55373 -2.30465,0.88627 -4.6323,1.78915 -6.95063,2.75157 z m 141.36097,672.32354 c 1.4773,8.08591 3.68155,16.58824 6.59675,25.3709 l 253.44885,-37.88649 c -0.18729,-0.94354 -0.29671,-1.88571 -0.49519,-2.83252 -1.63126,-7.80331 -3.60015,-15.30232 -5.79573,-22.55576 l -253.75468,37.90387 z m 19.23301,55.97387 c 2.55202,5.16043 5.32544,10.32638 8.32755,15.49798 2.48285,4.27759 5.00489,8.41558 7.63538,12.43109 l 229.29599,-34.27805 c 0.65721,-9.4925 0.6873,-19.63349 -0.0719,-30.25121 L 547.66976,932.0195 z m 38.39282,57.16077 c 12.41863,13.80323 25.36839,24.60063 37.6209,31.46653 6.44795,14.9974 23.7492,21.9994 38.90261,15.7158 l 110.89289,-45.88004 c 12.9515,-5.37063 20.03213,-18.75016 18.03389,-31.98927 l -205.44938,30.68555 z"
         style="fill:#666666;fill-opacity:1;stroke:none" />
      <path
         inkscape:connector-curvature="0"
         id="rect4090-2-4-3-5-9-7-7-2-5-3-6"
         d="M 736.77923,688.28542 C 750.89064,848.27761 884.44802,921.11282 999.25147,910.98724 1123.5785,900.02211 1193.6458,781.34676 1387.7859,756.4036 l 39.941,-252.53593 c -16.5362,2.17597 -31.1303,6.12497 -42.7758,11.54543 -209.8808,13.72158 -303.406,-95.65238 -429.0022,-84.57611 -104.4628,9.18453 -225.55867,92.12509 -220.12417,242.82037 0.0855,2.39214 0.26712,4.74621 0.41811,7.17186 0.1528,2.46458 0.31496,4.95612 0.53639,7.4562 z m 683.73717,67.12598 c 8.1562,1.01999 16.9286,1.47105 26.1811,1.32883 L 1486.693,503.6157 c -0.9558,-0.10477 -1.8873,-0.283 -2.8498,-0.37849 -7.933,-0.78754 -15.677,-1.16255 -23.2551,-1.24696 l -40.0717,253.42115 z m 59.1663,-1.53098 c 5.6884,-0.8841 11.4493,-1.9778 17.2838,-3.28743 4.8258,-1.08302 9.5299,-2.24547 14.1505,-3.5484 l 36.1826,-229.00323 c -8.8568,-3.47815 -18.5204,-6.55307 -28.8758,-9.01846 l -38.7411,244.85752 z m 66.0534,-19.44938 c 16.8963,-7.6988 31.0849,-16.8068 41.3144,-26.43129 16.2411,-1.64486 28.1175,-16.04375 26.6759,-32.38457 l -10.4502,-119.55362 c -1.2324,-13.96666 -11.8668,-24.73899 -25.0945,-26.81067 l -32.4462,205.17899 z"
         style="fill:#666666;fill-opacity:1;stroke:none" />
      <path
         inkscape:connector-curvature="0"
         id="rect4090-2-4-3-5-61-0-9-1-3"
         d="m 1331.7797,-116.68816 c 77.6375,-140.60207 7.5178,-275.60467 -93.3723,-331.31419 -109.2599,-60.33163 -233.6552,-1.01047 -408.6337,-88.73196 l -174.1561,187.18795 c 14.93277,7.42879 29.24445,12.30272 41.93202,14.30942 181.76943,105.81939 198.27724,248.779003 308.65138,309.72665 91.7865,50.715465 238.5585,49.535177 318.2024,-78.50906 1.2653,-2.03248 2.4287,-4.08744 3.6575,-6.18393 1.2497,-2.12963 2.5067,-4.28695 3.7188,-6.48488 z m -529.71206,-437.5008 c -6.19585,-5.40061 -13.22081,-10.67341 -20.97607,-15.72264 l -174.53036,187.6454 c 0.73472,0.62111 1.40788,1.28951 2.15288,1.90596 6.14095,5.08348 12.35552,9.71891 18.5953,14.02099 l 174.75825,-187.84971 z m -49.93647,-31.77015 c -5.21245,-2.44313 -10.60193,-4.75292 -16.17328,-6.92415 -4.60842,-1.79668 -9.15995,-3.45929 -13.7202,-4.95839 l -157.89692,169.76473 c 5.40497,7.83154 11.70391,15.77867 18.91774,23.60645 l 168.87266,-181.48864 z m -65.65556,-20.75162 c -18.31622,-3.04897 -35.17229,-3.41628 -49.0323,-1.14467 -14.39229,-7.70541 -32.2846,-2.39196 -40.21422,11.9684 l -58.09292,105.0118 c -6.77658,12.27429 -3.97065,27.14925 5.84585,36.25407 l 141.49335,-152.08806 z"
         style="fill:#666666;fill-opacity:1;stroke:none" />
    </g>
  </g>
</svg>
