<?xml version="1.0" encoding="UTF-8" standalone="no"?>
<!-- Created with Inkscape (http://www.inkscape.org/) -->

<svg
   xmlns:dc="http://purl.org/dc/elements/1.1/"
   xmlns:cc="http://creativecommons.org/ns#"
   xmlns:rdf="http://www.w3.org/1999/02/22-rdf-syntax-ns#"
   xmlns:svg="http://www.w3.org/2000/svg"
   xmlns="http://www.w3.org/2000/svg"
   xmlns:sodipodi="http://sodipodi.sourceforge.net/DTD/sodipodi-0.dtd"
   xmlns:inkscape="http://www.inkscape.org/namespaces/inkscape"
   width="744.09003"
   height="1052.3622"
   id="svg3725"
   version="1.1"
   inkscape:version="0.48.3.1 r9886"
   sodipodi:docname="proposal.svg">
  <defs
     id="defs3727">
    <filter
       id="filter3813-7-4-8"
       inkscape:collect="always"
       color-interpolation-filters="sRGB">
      <feGaussianBlur
         id="feGaussianBlur3815-2-8-9"
         stdDeviation="2.6024071"
         inkscape:collect="always" />
    </filter>
  </defs>
  <sodipodi:namedview
     id="base"
     pagecolor="#ffffff"
     bordercolor="#666666"
     borderopacity="1.0"
     inkscape:pageopacity="0.0"
     inkscape:pageshadow="2"
     inkscape:zoom="0.7"
     inkscape:cx="98.908678"
     inkscape:cy="423.23737"
     inkscape:document-units="px"
     inkscape:current-layer="layer1"
     showgrid="false"
     inkscape:window-width="1855"
     inkscape:window-height="1056"
     inkscape:window-x="65"
     inkscape:window-y="24"
     inkscape:window-maximized="1" />
  <metadata
     id="metadata3730">
    <rdf:RDF>
      <cc:Work
         rdf:about="">
        <dc:format>image/svg+xml</dc:format>
        <dc:type
           rdf:resource="http://purl.org/dc/dcmitype/StillImage" />
        <dc:title />
      </cc:Work>
    </rdf:RDF>
  </metadata>
  <g
     inkscape:label="Calque 1"
     inkscape:groupmode="layer"
     id="layer1">
    <path
       style="fill:#ffffff;fill-opacity:0.93656718000000005;fill-rule:nonzero;stroke:#cccccc;stroke-width:9.615;stroke-opacity:1;stroke-miterlimit:4;stroke-dasharray:none"
       d="m 64.224138,110.23254 c -7.586488,23.25829 -1.623955,49.10479 -3.411999,73.57017 0,259.47504 0,518.9501 0,778.42505 23.132165,7.62803 48.839351,1.63305 73.172231,3.43071 182.43864,0 364.87701,0 547.31575,0 7.67181,-23.229 1.64358,-49.10641 3.45106,-73.57026 0,-191.72075 0,-383.44159 0,-575.16248 -77.67596,-68.89774 -155.35201,-137.79544 -233.02752,-206.69319 -129.16647,0 -258.33295,0 -387.499522,0 z"
       id="rect2985-5-0-7"
       inkscape:connector-curvature="0" />
    <path
       inkscape:connector-curvature="0"
       id="rect3771-7-4-8-1"
       transform="matrix(0.98571641,0,0,0.98571641,56.933349,107.02254)"
       d="m 420.53125,42.59375 c 0.654,57.95018 -1.30956,115.93873 0.96875,173.875 71.42106,2.09258 142.90188,0.27586 214.34375,0.875 l -215.3125,-174.75 z"
       style="fill:#4d4d4d;fill-opacity:1;fill-rule:nonzero;stroke:none;filter:url(#filter3813-7-4-8)" />
    <path
       inkscape:connector-curvature="0"
       id="rect3771-8-3-3"
       d="m 455.09317,110.27207 0,197.02517 c 23.63027,7.83101 49.89264,1.66762 74.74912,3.51318 l 150.22549,0 C 605.07832,243.95949 530.08294,177.123 455.09317,110.27207 z"
       style="fill:#cccccc;fill-opacity:1;fill-rule:nonzero;stroke:none" />
    <path
       id="rect4735-4"
       d="m 488.09517,379.13901 c -0.86161,8.4e-4 -93.93158,0.39562 -93.93158,98.3236 0,63.04153 42.78354,86.40801 39.79697,91.88293 l 9.36387,33.21229 h 2.04837 c -7.28095,0 -13.16837,5.88694 -13.16837,13.16837 0,7.28095 5.88693,13.16835 13.16837,13.16835 h 15.21606 l -20.19081,7.75454 c -6.79548,2.6141 -10.2221,10.32291 -7.60812,17.11879 2.6141,6.79548 10.177,10.07619 16.97192,7.46183 l 81.34879,-31.31053 c 0.80698,-0.31042 1.48867,-0.72977 2.19466,-1.17052 0.0469,-0.003 0.10019,0.004 0.14607,0 6.81018,-0.5079 12.14404,-6.07732 12.14404,-13.02152 0,-7.08117 -5.57914,-12.85733 -12.58276,-13.16835 l 9.36388,-33.2123 c -2.98665,-5.47567 39.79696,-28.84235 39.79696,-91.88293 0,-97.9204 -93.06948,-98.314 -93.93157,-98.3236 z m -33.65196,22.82408 c -0.003,0.10344 0,0.18868 0,0.29263 4.76766,-1.18119 6.97549,6.58285 0.77524,8.41644 -18.64616,5.27157 -29.74476,28.89326 -29.74476,28.89326 -3.82177,6.63236 -11.00261,2.06716 -8.27832,-2.67028 3.19029,-8.64953 16.90088,-30.10762 37.24816,-34.93164 z m 72.42363,235.70976 c -1.70668,-0.0544 -3.42202,0.22426 -5.12084,0.87785 l -81.34881,31.31053 c -6.79547,2.61409 -10.22212,10.177 -7.60811,16.97191 0.98025,2.54833 2.75539,4.54946 4.82824,5.99877 1.10478,1.35361 2.3741,2.56955 3.9504,3.51151 l 38.62577,22.97096 c 2.6235,2.14889 5.87599,3.38296 9.21757,3.3652 3.2593,0.0497 6.46514,-1.05562 9.07126,-3.07248 l 38.91856,-23.26377 c 7.17448,-4.2873 9.63171,-13.62342 5.55975,-20.92234 -4.07146,-7.2992 -13.16261,-9.70083 -20.33766,-5.41345 l -33.21231,19.75207 -10.82691,-6.43768 52.52564,-20.1908 c 6.79548,-2.6141 10.22213,-10.17701 7.60813,-16.97191 -1.96052,-5.09666 -6.73125,-8.32353 -11.85124,-8.48605 z"
       inkscape:connector-curvature="0"
       style="fill:#ffffff;stroke:#cccccc;stroke-width:10.25580597;stroke-miterlimit:4;stroke-opacity:1;stroke-dasharray:none" />
    <path
       id="rect4735-0"
       d="m 259.93384,433.67536 c -1.11868,8.3e-4 -121.95645,0.51363 -121.95645,127.65884 0,81.85026 55.54818,112.18823 51.67054,119.2966 l 12.15763,43.12133 h 2.65949 c -9.45324,0 -17.0972,7.64332 -17.0972,17.0972 0,9.45325 7.64332,17.09721 17.0972,17.09721 h 19.75585 l -26.21481,10.06812 c -8.82296,3.39404 -13.27193,13.4028 -9.87805,22.22625 3.39403,8.82294 13.21336,13.08247 22.03556,9.68809 l 105.61957,-40.65215 c 1.04775,-0.40304 1.93281,-0.94751 2.84945,-1.51975 0.0609,-0.004 0.13008,0.005 0.18966,0 8.842,-0.65944 15.76725,-7.89051 15.76725,-16.90654 0,-9.19387 -7.24369,-16.69336 -16.33687,-17.09719 l 12.15763,-43.12133 c -3.87773,-7.10938 51.67055,-37.44758 51.67055,-119.29661 0,-127.13534 -120.83718,-127.64636 -121.95648,-127.65884 z m -43.69218,29.63374 c -0.004,0.13429 0,0.24496 0,0.37993 6.19012,-1.5336 9.05666,8.54686 1.00654,10.92753 -24.20933,6.84437 -38.61922,37.51367 -38.61922,37.51367 -4.96203,8.61116 -14.28531,2.68392 -10.74821,-3.46695 4.14214,-11.23015 21.94333,-39.09037 48.36132,-45.35365 z m 94.03157,306.03476 c -2.21589,-0.0707 -4.44303,0.29116 -6.64868,1.13975 l -105.61959,40.65213 c -8.82293,3.3941 -13.27192,13.21343 -9.87804,22.03571 1.27272,3.30863 3.57748,5.90681 6.26878,7.78853 1.43439,1.75735 3.08241,3.33606 5.12902,4.55916 l 50.14993,29.82433 c 3.40623,2.79013 7.62911,4.3924 11.96767,4.36933 4.23173,0.065 8.39405,-1.37053 11.77771,-3.98918 l 50.5301,-30.20464 c 9.31502,-5.56644 12.50537,-17.68809 7.21854,-27.16462 -5.28621,-9.47693 -17.08975,-12.59515 -26.40551,-7.02863 l -43.12135,25.64524 -14.05717,-8.35835 68.19691,-26.2149 c 8.82294,-3.39402 13.27194,-13.21336 9.87804,-22.03554 -2.54544,-6.61726 -8.73955,-10.8069 -15.38711,-11.0179 z"
       inkscape:connector-curvature="0"
       style="fill:#ffffff;stroke:#cccccc;stroke-width:13.31567001;stroke-miterlimit:4;stroke-opacity:1;stroke-dasharray:none" />
  </g>
</svg>
