<?xml version="1.0" encoding="UTF-8" standalone="no"?>
<!-- Created with Inkscape (http://www.inkscape.org/) -->

<svg
   xmlns:dc="http://purl.org/dc/elements/1.1/"
   xmlns:cc="http://creativecommons.org/ns#"
   xmlns:rdf="http://www.w3.org/1999/02/22-rdf-syntax-ns#"
   xmlns:svg="http://www.w3.org/2000/svg"
   xmlns="http://www.w3.org/2000/svg"
   xmlns:sodipodi="http://sodipodi.sourceforge.net/DTD/sodipodi-0.dtd"
   xmlns:inkscape="http://www.inkscape.org/namespaces/inkscape"
   width="24"
   height="30"
   id="svg3725"
   version="1.1"
   inkscape:version="0.48.3.1 r9886"
   sodipodi:docname="proposal_picto.svg">
  <defs
     id="defs3727">
    <filter
       id="filter3813-7-4-8"
       inkscape:collect="always"
       color-interpolation-filters="sRGB">
      <feGaussianBlur
         id="feGaussianBlur3815-2-8-9"
         stdDeviation="2.6024071"
         inkscape:collect="always" />
    </filter>
  </defs>
  <sodipodi:namedview
     id="base"
     pagecolor="#ffffff"
     bordercolor="#666666"
     borderopacity="1.0"
     inkscape:pageopacity="0.0"
     inkscape:pageshadow="2"
     inkscape:zoom="11.2"
     inkscape:cx="-17.68445"
     inkscape:cy="18.544595"
     inkscape:document-units="px"
     inkscape:current-layer="layer1"
     showgrid="false"
     inkscape:window-width="1855"
     inkscape:window-height="1056"
     inkscape:window-x="65"
     inkscape:window-y="24"
     inkscape:window-maximized="1" />
  <metadata
     id="metadata3730">
    <rdf:RDF>
      <cc:Work
         rdf:about="">
        <dc:format>image/svg+xml</dc:format>
        <dc:type
           rdf:resource="http://purl.org/dc/dcmitype/StillImage" />
        <dc:title />
      </cc:Work>
    </rdf:RDF>
  </metadata>
  <g
     inkscape:label="Calque 1"
     inkscape:groupmode="layer"
     id="layer1"
     transform="translate(0,-1022.3622)">
    <path
       style="fill:#ffffff;fill-opacity:0.93656718000000005;fill-rule:nonzero;stroke:#000000;stroke-width:0.33141699000000002;stroke-miterlimit:4;stroke-opacity:1;stroke-dasharray:none"
       d="m 1.402301,1022.654 c -0.2614965,0.8017 -0.055978,1.6926 -0.1176069,2.5358 0,8.9439 0,17.8877 0,26.8314 0.7973363,0.2629 1.683431,0.056 2.5221552,0.1183 6.2884317,0 12.5768537,0 18.8652887,0 0.264437,-0.8007 0.05665,-1.6927 0.118953,-2.5359 0,-6.6084 0,-13.2168 0,-19.8252 -2.677392,-2.3748 -5.354788,-4.7496 -8.032166,-7.1244 -4.452207,0 -8.9044138,0 -13.356624,0 z"
       id="rect2985-5-0-7"
       inkscape:connector-curvature="0" />
    <path
       id="rect4735"
       d="m 16.646979,1030.6388 c -0.03362,0 -3.665273,0.014 -3.665273,3.8368 0,2.4599 1.66944,3.3716 1.552903,3.5852 l 0.365385,1.296 h 0.07994 c -0.284107,0 -0.513839,0.2296 -0.513839,0.5138 0,0.2843 0.229712,0.5139 0.513839,0.5139 h 0.593741 l -0.787857,0.3026 c -0.265166,0.1024 -0.398875,0.4029 -0.296876,0.6679 0.101995,0.2653 0.397114,0.3934 0.662256,0.2912 l 3.174288,-1.2218 c 0.03148,-0.015 0.0581,-0.028 0.08564,-0.046 0.0018,0 0.0039,2e-4 0.0057,0 0.265737,-0.02 0.473869,-0.2371 0.473869,-0.508 0,-0.2762 -0.217702,-0.5017 -0.490988,-0.5138 l 0.365385,-1.2959 c -0.116541,-0.2138 1.552904,-1.1255 1.552904,-3.5854 0,-3.821 -3.631634,-3.8364 -3.665274,-3.8367 z m -1.313123,0.8906 c -9.6e-5,0 0,0.015 0,0.015 0.186037,-0.046 0.272189,0.2568 0.03024,0.3285 -0.727584,0.2057 -1.160662,1.1275 -1.160662,1.1275 -0.149126,0.2587 -0.429327,0.08 -0.323023,-0.1036 0.124498,-0.3375 0.659482,-1.175 1.453448,-1.3631 z m 2.826021,9.1977 c -0.06659,0 -0.133532,0.014 -0.199818,0.035 l -3.174287,1.2217 c -0.265165,0.1024 -0.398875,0.3972 -0.296876,0.6622 0.03824,0.1011 0.107518,0.1776 0.188403,0.2341 0.0431,0.053 0.09264,0.099 0.154146,0.1374 l 1.507205,0.8963 c 0.102365,0.084 0.229286,0.1317 0.359676,0.1303 0.127174,0 0.252275,-0.041 0.353968,-0.1208 l 1.518627,-0.9079 c 0.279954,-0.1672 0.375838,-0.5316 0.216947,-0.8163 -0.158871,-0.2848 -0.513614,-0.3786 -0.79359,-0.2112 l -1.295967,0.7707 -0.422475,-0.2512 2.049588,-0.7879 c 0.265164,-0.1023 0.398875,-0.3971 0.296875,-0.6623 -0.0765,-0.1987 -0.262659,-0.3248 -0.462445,-0.3311 z"
       inkscape:connector-curvature="0"
       style="fill:#ffffff;fill-opacity:1;stroke:#000000;stroke-width:0.56635064;stroke-miterlimit:4;stroke-opacity:1;stroke-dasharray:none" />
    <path
       inkscape:connector-curvature="0"
       id="rect3771-7-4-8-1"
       transform="matrix(0.03397641,0,0,0.03397641,1.1509969,1022.5434)"
       d="m 420.53125,42.59375 c 0.654,57.95018 -1.30956,115.93873 0.96875,173.875 71.42106,2.09258 142.90188,0.27586 214.34375,0.875 l -215.3125,-174.75 z"
       style="fill:#4d4d4d;fill-opacity:1;fill-rule:nonzero;stroke:none;filter:url(#filter3813-7-4-8)" />
    <path
       inkscape:connector-curvature="0"
       id="rect3771-8-3-3"
       d="m 14.875067,1022.6553 0,6.7913 c 0.814507,0.2699 1.719737,0.057 2.576509,0.1211 l 5.178084,0 c -2.584792,-2.3043 -5.169789,-4.6081 -7.754593,-6.9124 z"
       style="fill:#000000;fill-opacity:1;fill-rule:nonzero;stroke:none" />
    <path
       id="rect4735-0"
       d="m 7.1830728,1032.8746 c -0.046663,2e-4 -5.087912,0.019 -5.087912,5.3259 0,3.4148 2.3174214,4.6803 2.1556471,4.9772 l 0.5072069,1.7989 h 0.1109713 c -0.3943827,0 -0.7132802,0.3188 -0.7132802,0.7133 0,0.3945 0.3188723,0.7133 0.7132802,0.7133 h 0.8241973 l -1.0936613,0.4199 c -0.3680838,0.1414 -0.5536924,0.5592 -0.4121021,0.9273 0.1415903,0.368 0.551249,0.5457 0.9193047,0.4042 l 4.4063501,-1.6961 c 0.04372,-0.02 0.08064,-0.039 0.118863,-0.063 0.0026,-2e-4 0.0055,3e-4 0.0078,0 0.3688802,-0.028 0.6577952,-0.3292 0.6577952,-0.7052 0,-0.3836 -0.3022022,-0.6966 -0.6815602,-0.7132 l 0.5072042,-1.7992 c -0.1617542,-0.2964 2.15565,-1.5623 2.15565,-4.9768 0,-5.304 -5.0412199,-5.3255 -5.0879137,-5.326 z m -1.8227954,1.2365 c -1.355e-4,0 0,0.019 0,0.019 0.2582466,-0.063 0.3778369,0.3566 0.041983,0.4558 -1.0099918,0.2855 -1.6111604,1.5651 -1.6111604,1.5651 -0.2070112,0.3592 -0.5959688,0.1119 -0.448404,-0.1434 0.1728206,-0.4684 0.9154553,-1.6309 2.0175913,-1.8919 z m 3.9229094,12.7675 c -0.09243,0 -0.18536,0.02 -0.277376,0.048 l -4.4063541,1.6958 c -0.3680837,0.1415 -0.5536925,0.5513 -0.4121021,0.9195 0.053089,0.1396 0.1492548,0.2464 0.261527,0.3249 0.059823,0.073 0.1286029,0.1397 0.2139782,0.1906 l 2.0922108,1.2444 c 0.1421003,0.1156 0.3182786,0.1827 0.4992808,0.1808 0.176536,0 0.350191,-0.057 0.4913525,-0.1671 l 2.1080739,-1.2602 c 0.3886132,-0.2322 0.5217132,-0.7381 0.3011492,-1.1333 -0.2205362,-0.3954 -0.7129702,-0.5256 -1.1016132,-0.293 l -1.7989848,1.0698 -0.5864512,-0.3487 2.845112,-1.0939 c 0.368085,-0.1415 0.5536932,-0.5513 0.412103,-0.9191 -0.106189,-0.276 -0.364606,-0.4509 -0.641935,-0.4598 z"
       inkscape:connector-curvature="0"
       style="fill:#ffffff;fill-opacity:1;stroke:#000000;stroke-width:0.55883938;stroke-miterlimit:4;stroke-opacity:1;stroke-dasharray:none" />
  </g>
</svg>
