<?xml version="1.0" encoding="UTF-8" standalone="no"?>
<!-- Created with Inkscape (http://www.inkscape.org/) -->

<svg
   xmlns:dc="http://purl.org/dc/elements/1.1/"
   xmlns:cc="http://creativecommons.org/ns#"
   xmlns:rdf="http://www.w3.org/1999/02/22-rdf-syntax-ns#"
   xmlns:svg="http://www.w3.org/2000/svg"
   xmlns="http://www.w3.org/2000/svg"
   xmlns:sodipodi="http://sodipodi.sourceforge.net/DTD/sodipodi-0.dtd"
   xmlns:inkscape="http://www.inkscape.org/namespaces/inkscape"
   width="744.09003"
   height="1052.3622"
   id="svg3725"
   version="1.1"
   inkscape:version="0.48.3.1 r9886"
   sodipodi:docname="proposition2.svg">
  <defs
     id="defs3727">
    <filter
       id="filter3813-7-4-8"
       inkscape:collect="always"
       color-interpolation-filters="sRGB">
      <feGaussianBlur
         id="feGaussianBlur3815-2-8-9"
         stdDeviation="2.6024071"
         inkscape:collect="always" />
    </filter>
  </defs>
  <sodipodi:namedview
     id="base"
     pagecolor="#ffffff"
     bordercolor="#666666"
     borderopacity="1.0"
     inkscape:pageopacity="0.0"
     inkscape:pageshadow="2"
     inkscape:zoom="0.7"
     inkscape:cx="98.908678"
     inkscape:cy="423.23737"
     inkscape:document-units="px"
     inkscape:current-layer="layer1"
     showgrid="false"
     inkscape:window-width="1855"
     inkscape:window-height="1056"
     inkscape:window-x="65"
     inkscape:window-y="24"
     inkscape:window-maximized="1" />
  <metadata
     id="metadata3730">
    <rdf:RDF>
      <cc:Work
         rdf:about="">
        <dc:format>image/svg+xml</dc:format>
        <dc:type
           rdf:resource="http://purl.org/dc/dcmitype/StillImage" />
        <dc:title />
      </cc:Work>
    </rdf:RDF>
  </metadata>
  <g
     inkscape:label="Calque 1"
     inkscape:groupmode="layer"
     id="layer1">
    <path
       style="fill:#ffffff;fill-opacity:0.93656718000000005;fill-rule:nonzero;stroke:#cccccc;stroke-width:9.615;stroke-opacity:1;stroke-miterlimit:4;stroke-dasharray:none"
       d="m 64.224138,110.23254 c -7.586488,23.25829 -1.623955,49.10479 -3.411999,73.57017 0,259.47504 0,518.9501 0,778.42505 23.132165,7.62803 48.839351,1.63305 73.172231,3.43071 182.43864,0 364.87701,0 547.31575,0 7.67181,-23.229 1.64358,-49.10641 3.45106,-73.57026 0,-191.72075 0,-383.44159 0,-575.16248 -77.67596,-68.89774 -155.35201,-137.79544 -233.02752,-206.69319 -129.16647,0 -258.33295,0 -387.499522,0 z"
       id="rect2985-5-0-7"
       inkscape:connector-curvature="0" />
    <path
       inkscape:connector-curvature="0"
       id="rect3771-7-4-8-1"
       transform="matrix(0.98571641,0,0,0.98571641,56.933349,107.02254)"
       d="m 420.53125,42.59375 c 0.654,57.95018 -1.30956,115.93873 0.96875,173.875 71.42106,2.09258 142.90188,0.27586 214.34375,0.875 l -215.3125,-174.75 z"
       style="fill:#4d4d4d;fill-opacity:1;fill-rule:nonzero;stroke:none;filter:url(#filter3813-7-4-8)" />
    <path
       inkscape:connector-curvature="0"
       id="rect3771-8-3-3"
       d="m 455.09317,110.27207 0,197.02517 c 23.63027,7.83101 49.89264,1.66762 74.74912,3.51318 l 150.22549,0 C 605.07832,243.95949 530.08294,177.123 455.09317,110.27207 z"
       style="fill:#cccccc;fill-opacity:1;fill-rule:nonzero;stroke:none" />
    <path
       id="rect4735"
       d="m 187.08419,339.19095 c -0.6889,7.5e-4 -75.10272,0.31631 -75.10272,78.61433 0,50.40467 34.20745,69.08727 31.81955,73.46472 l 7.48686,26.55479 h 1.63776 c -5.82146,0 -10.52873,4.70688 -10.52873,10.52873 0,5.82146 4.70688,10.52873 10.52873,10.52873 h 12.16596 l -16.1435,6.20011 c -5.43331,2.0901 -8.17307,8.25366 -6.08305,13.68728 2.09008,5.4333 8.13699,8.05639 13.56984,5.96608 l 65.04219,-25.03424 c 0.64522,-0.2482 1.19026,-0.58349 1.75474,-0.93589 0.0375,-0.002 0.0801,0.003 0.11679,0 5.44505,-0.40609 9.70973,-4.8591 9.70973,-10.41131 0,-5.66173 -4.46079,-10.28004 -10.06051,-10.52872 l 7.48686,-26.5548 c -2.38797,-4.37806 31.81954,-23.06081 31.81954,-73.46472 0,-78.29195 -74.41343,-78.60665 -75.10271,-78.61433 z m -26.90633,18.24893 c -0.002,0.0827 0,0.15085 0,0.23396 3.81197,-0.94441 5.57723,5.2633 0.61984,6.72935 -14.90848,4.21487 -23.78234,23.10151 -23.78234,23.10151 -3.05568,5.30289 -8.7971,1.6528 -6.6189,-2.135 2.55079,-6.91571 13.51305,-24.07247 29.78166,-27.9295 z m 57.90611,188.46102 c -1.36458,-0.0435 -2.73608,0.17931 -4.09436,0.70188 l -65.0422,25.03425 c -5.43331,2.09009 -8.17307,8.13699 -6.08305,13.56984 0.78376,2.03751 2.20307,3.6375 3.8604,4.7963 0.88333,1.08227 1.8982,2.05448 3.15854,2.80761 l 30.88312,18.36637 c 2.09761,1.71813 4.69813,2.70484 7.36988,2.69063 2.60597,0.0397 5.16919,-0.84401 7.2529,-2.45659 l 31.11722,-18.60048 c 5.73634,-3.42789 7.70101,-10.89256 4.44529,-16.72839 -3.25533,-5.83605 -10.52413,-7.75627 -16.26092,-4.32831 l -26.5548,15.79271 -8.65663,-5.14723 41.99672,-16.1435 c 5.43331,-2.09009 8.17307,-8.13699 6.08306,-13.56983 -1.56753,-4.07502 -5.38196,-6.65506 -9.47563,-6.785 z"
       inkscape:connector-curvature="0"
       style="fill:#ffffff;stroke:#cccccc;stroke-width:8.19999999999999929;stroke-miterlimit:4;stroke-opacity:1;stroke-dasharray:none" />
    <path
       id="rect4735-4"
       d="m 528.51276,340.73739 c -0.6889,7.5e-4 -75.10272,0.31631 -75.10272,78.61434 0,50.40468 34.20745,69.08728 31.81955,73.46473 l 7.48686,26.55479 h 1.63776 c -5.82146,0 -10.52873,4.70688 -10.52873,10.52873 0,5.82146 4.70688,10.52873 10.52873,10.52873 h 12.16596 l -16.1435,6.20011 c -5.43331,2.0901 -8.17306,8.25366 -6.08305,13.68728 2.09009,5.4333 8.13699,8.05639 13.56984,5.96608 l 65.04219,-25.03424 c 0.64522,-0.2482 1.19026,-0.58349 1.75474,-0.93589 0.0375,-0.002 0.0801,0.003 0.11679,0 5.44505,-0.40609 9.70973,-4.8591 9.70973,-10.41131 0,-5.66173 -4.46079,-10.28004 -10.06051,-10.52872 l 7.48686,-26.5548 c -2.38797,-4.37806 31.81954,-23.06081 31.81954,-73.46473 0,-78.29196 -74.41343,-78.60666 -75.10271,-78.61434 z m -26.90633,18.24893 c -0.002,0.0827 0,0.15085 0,0.23396 3.81197,-0.94441 5.57723,5.2633 0.61984,6.72935 -14.90848,4.21487 -23.78233,23.10151 -23.78233,23.10151 -3.05569,5.30289 -8.79711,1.6528 -6.61891,-2.135 2.55079,-6.91571 13.51305,-24.07247 29.78166,-27.9295 z m 57.90611,188.46104 c -1.36458,-0.0435 -2.73608,0.17931 -4.09436,0.70188 l -65.0422,25.03425 c -5.4333,2.09009 -8.17307,8.13699 -6.08305,13.56984 0.78376,2.03751 2.20307,3.6375 3.86041,4.7963 0.88332,1.08227 1.8982,2.05448 3.15853,2.80761 l 30.88312,18.36637 c 2.09761,1.71813 4.69813,2.70484 7.36988,2.69063 2.60597,0.0397 5.16919,-0.84401 7.2529,-2.45659 l 31.11722,-18.60048 c 5.73634,-3.42789 7.70101,-10.89256 4.44529,-16.72839 -3.25533,-5.83605 -10.52413,-7.75627 -16.26092,-4.32831 l -26.5548,15.79271 -8.65663,-5.14723 41.99672,-16.1435 c 5.43331,-2.09009 8.17307,-8.13699 6.08306,-13.56983 -1.56753,-4.07502 -5.38196,-6.65506 -9.47563,-6.785 z"
       inkscape:connector-curvature="0"
       style="fill:#ffffff;stroke:#cccccc;stroke-width:8.19999999999999929;stroke-miterlimit:4;stroke-opacity:1;stroke-dasharray:none" />
    <path
       id="rect4735-0"
       d="m 371.36991,606.45169 c -0.6889,7.5e-4 -75.10271,0.31631 -75.10271,78.61433 0,50.40468 34.20745,69.08728 31.81954,73.46473 l 7.48686,26.55479 h 1.63776 c -5.82146,0 -10.52873,4.70688 -10.52873,10.52873 0,5.82146 4.70688,10.52873 10.52873,10.52873 h 12.16596 l -16.1435,6.20011 c -5.43331,2.0901 -8.17306,8.25366 -6.08305,13.68728 2.09009,5.4333 8.13699,8.05639 13.56984,5.96608 l 65.0422,-25.03424 c 0.64522,-0.2482 1.19026,-0.58349 1.75474,-0.93589 0.0375,-0.002 0.0801,0.003 0.11679,0 5.44505,-0.40609 9.70973,-4.8591 9.70973,-10.41131 0,-5.66173 -4.46079,-10.28004 -10.06051,-10.52872 l 7.48686,-26.5548 c -2.38797,-4.37806 31.81954,-23.06081 31.81954,-73.46473 0,-78.29195 -74.41344,-78.60665 -75.10272,-78.61433 z m -26.90633,18.24893 c -0.002,0.0827 0,0.15085 0,0.23396 3.81197,-0.94441 5.57723,5.2633 0.61984,6.72935 -14.90848,4.21487 -23.78233,23.10151 -23.78233,23.10151 -3.05569,5.30289 -8.79711,1.6528 -6.61891,-2.135 2.55079,-6.91571 13.51305,-24.07247 29.78166,-27.9295 z m 57.90612,188.46103 c -1.36458,-0.0435 -2.73608,0.17931 -4.09436,0.70188 l -65.04221,25.03422 c -5.4333,2.09014 -8.17306,8.13704 -6.08305,13.56994 0.78376,2.0375 2.20307,3.6375 3.86041,4.7963 0.88332,1.0822 1.8982,2.0544 3.15853,2.8076 l 30.88312,18.3663 c 2.09761,1.7182 4.69813,2.7049 7.36988,2.6907 2.60597,0.04 5.16919,-0.844 7.2529,-2.4566 l 31.11723,-18.6005 c 5.73634,-3.4279 7.70101,-10.8926 4.44529,-16.7284 -3.25533,-5.83604 -10.52413,-7.75629 -16.26092,-4.32834 l -26.55481,15.79274 -8.65663,-5.1472 41.99673,-16.14355 c 5.43331,-2.09009 8.17307,-8.13699 6.08306,-13.56983 -1.56753,-4.07502 -5.38196,-6.65506 -9.47563,-6.785 z"
       inkscape:connector-curvature="0"
       style="fill:#ffffff;stroke:#cccccc;stroke-width:8.19999999999999929;stroke-miterlimit:4;stroke-opacity:1;stroke-dasharray:none" />
  </g>
</svg>
