<?xml version="1.0" encoding="UTF-8" standalone="no"?>
<!-- Created with Inkscape (http://www.inkscape.org/) -->

<svg
   xmlns:dc="http://purl.org/dc/elements/1.1/"
   xmlns:cc="http://creativecommons.org/ns#"
   xmlns:rdf="http://www.w3.org/1999/02/22-rdf-syntax-ns#"
   xmlns:svg="http://www.w3.org/2000/svg"
   xmlns="http://www.w3.org/2000/svg"
   xmlns:sodipodi="http://sodipodi.sourceforge.net/DTD/sodipodi-0.dtd"
   xmlns:inkscape="http://www.inkscape.org/namespaces/inkscape"
   width="24"
   height="30"
   id="svg3725"
   version="1.1"
   inkscape:version="0.48.3.1 r9886"
   sodipodi:docname="proposition3.svg">
  <defs
     id="defs3727">
    <filter
       id="filter3813-7-4-8"
       inkscape:collect="always"
       color-interpolation-filters="sRGB">
      <feGaussianBlur
         id="feGaussianBlur3815-2-8-9"
         stdDeviation="2.6024071"
         inkscape:collect="always" />
    </filter>
  </defs>
  <sodipodi:namedview
     id="base"
     pagecolor="#ffffff"
     bordercolor="#666666"
     borderopacity="1.0"
     inkscape:pageopacity="0.0"
     inkscape:pageshadow="2"
     inkscape:zoom="15.839192"
     inkscape:cx="-3.771177"
     inkscape:cy="20.785966"
     inkscape:document-units="px"
     inkscape:current-layer="layer1"
     showgrid="false"
     inkscape:window-width="1855"
     inkscape:window-height="1056"
     inkscape:window-x="65"
     inkscape:window-y="24"
     inkscape:window-maximized="1" />
  <metadata
     id="metadata3730">
    <rdf:RDF>
      <cc:Work
         rdf:about="">
        <dc:format>image/svg+xml</dc:format>
        <dc:type
           rdf:resource="http://purl.org/dc/dcmitype/StillImage" />
        <dc:title></dc:title>
      </cc:Work>
    </rdf:RDF>
  </metadata>
  <g
     inkscape:label="Calque 1"
     inkscape:groupmode="layer"
     id="layer1"
     transform="translate(0,-1022.3622)">
    <path
       style="fill:#ffffff;fill-opacity:0.93656718000000005;fill-rule:nonzero;stroke:#000000;stroke-width:0.33141699000000002;stroke-miterlimit:4;stroke-opacity:1;stroke-dasharray:none"
       d="m 1.402301,1022.654 c -0.2614965,0.8017 -0.055978,1.6926 -0.1176069,2.5358 0,8.9439 0,17.8877 0,26.8314 0.7973363,0.2629 1.683431,0.056 2.5221552,0.1183 6.2884317,0 12.5768537,0 18.8652887,0 0.264437,-0.8007 0.05665,-1.6927 0.118953,-2.5359 0,-6.6084 0,-13.2168 0,-19.8252 -2.677392,-2.3748 -5.354788,-4.7496 -8.032166,-7.1244 -4.452207,0 -8.9044138,0 -13.356624,0 z"
       id="rect2985-5-0-7"
       inkscape:connector-curvature="0" />
    <path
       inkscape:connector-curvature="0"
       id="rect3771-7-4-8-1"
       transform="matrix(0.03397641,0,0,0.03397641,1.1509969,1022.5434)"
       d="m 420.53125,42.59375 c 0.654,57.95018 -1.30956,115.93873 0.96875,173.875 71.42106,2.09258 142.90188,0.27586 214.34375,0.875 l -215.3125,-174.75 z"
       style="fill:#4d4d4d;fill-opacity:1;fill-rule:nonzero;stroke:none;filter:url(#filter3813-7-4-8)" />
    <path
       inkscape:connector-curvature="0"
       id="rect3771-8-3-3"
       d="m 14.875067,1022.6553 0,6.7913 c 0.814507,0.2699 1.719737,0.057 2.576509,0.1211 l 5.178084,0 c -2.584792,-2.3043 -5.169789,-4.6081 -7.754593,-6.9124 z"
       style="fill:#000000;fill-opacity:1;fill-rule:nonzero;stroke:none" />
    <path
       id="rect4735"
       d="m 5.6371332,1030.5459 c -0.023744,0 -2.5886966,0.01 -2.5886966,2.7098 0,1.7374 1.1790877,2.3813 1.09678,2.5322 l 0.2580626,0.9153 h 0.056455 c -0.2006587,0 -0.3629121,0.1622 -0.3629121,0.3629 0,0.2007 0.16224,0.3629 0.3629121,0.3629 h 0.4193449 l -0.5564456,0.2138 c -0.1872792,0.072 -0.2817154,0.2845 -0.2096753,0.4717 0.072043,0.1873 0.2804719,0.2778 0.467735,0.2056 l 2.2419234,-0.8629 c 0.022239,-0.01 0.041029,-0.02 0.060485,-0.032 0.00133,0 0.00276,1e-4 0.004,0 0.1876842,-0.014 0.3346828,-0.1675 0.3346828,-0.3588 0,-0.1951 -0.1537579,-0.3543 -0.3467732,-0.3629 l 0.2580626,-0.9153 c -0.082314,-0.1509 1.09678,-0.7949 1.09678,-2.5322 0,-2.6987 -2.564938,-2.7096 -2.5886966,-2.7098 z m -0.9274272,0.629 c -6.86e-5,0 0,0.01 0,0.01 0.1313933,-0.032 0.1922396,0.1814 0.021362,0.232 -0.5138764,0.1453 -0.8197477,0.7963 -0.8197477,0.7963 -0.1053251,0.1828 -0.3032245,0.057 -0.2281449,-0.073 0.087927,-0.2384 0.4657779,-0.8299 1.026536,-0.9628 z m 1.9959513,6.4961 c -0.047031,0 -0.09431,0.01 -0.1411274,0.024 l -2.2419234,0.8629 c -0.1872792,0.072 -0.2817154,0.2805 -0.2096753,0.4677 0.027013,0.071 0.07594,0.1254 0.1330636,0.1653 0.030443,0.037 0.06543,0.07 0.1088705,0.097 l 1.0645022,0.6331 c 0.0723,0.059 0.1619389,0.093 0.2540311,0.092 0.089823,10e-4 0.178175,-0.029 0.2499978,-0.085 l 1.0725717,-0.6412 c 0.197725,-0.1181 0.265444,-0.3754 0.1532234,-0.5765 -0.1122063,-0.2012 -0.362753,-0.2674 -0.5604932,-0.1492 l -0.9153102,0.5443 -0.2983841,-0.1774 1.4475751,-0.5564 c 0.1872792,-0.072 0.2817154,-0.2805 0.2096753,-0.4678 -0.054035,-0.1404 -0.1855098,-0.2294 -0.3266133,-0.2339 z"
       inkscape:connector-curvature="0"
       style="fill:#000000;stroke:none;stroke-width:0.28264373999999998;stroke-miterlimit:4;stroke-opacity:1;stroke-dasharray:none;fill-opacity:1" />
    <path
       id="rect4735-4"
       d="m 17.405749,1030.5992 c -0.02375,0 -2.588697,0.011 -2.588697,2.7097 0,1.7374 1.179088,2.3814 1.09678,2.5323 l 0.258062,0.9153 h 0.05646 c -0.200659,0 -0.362912,0.1622 -0.362912,0.363 0,0.2005 0.16224,0.3628 0.362912,0.3628 H 16.6477 l -0.556446,0.2137 c -0.18728,0.072 -0.281716,0.2845 -0.209676,0.4719 0.07204,0.1872 0.280472,0.2776 0.467736,0.2056 l 2.241923,-0.8629 c 0.02224,-0.01 0.04103,-0.02 0.06048,-0.032 0.0013,-10e-5 0.0028,10e-5 0.004,0 0.187684,-0.014 0.334682,-0.1675 0.334682,-0.3589 0,-0.1952 -0.153758,-0.3544 -0.346773,-0.363 l 0.258063,-0.9152 c -0.08232,-0.151 1.09678,-0.7949 1.09678,-2.5323 0,-2.6985 -2.564938,-2.7094 -2.588697,-2.7097 z m -0.927428,0.6291 c -6.8e-5,0 0,0.01 0,0.01 0.131395,-0.032 0.192241,0.1814 0.02136,0.2319 -0.513877,0.1453 -0.819747,0.7963 -0.819747,0.7963 -0.105326,0.1828 -0.303226,0.057 -0.228146,-0.073 0.08793,-0.2384 0.465778,-0.8297 1.026536,-0.9626 z m 1.995952,6.4959 c -0.04703,0 -0.09431,0.01 -0.141128,0.024 l -2.241923,0.863 c -0.187279,0.072 -0.281716,0.2804 -0.209675,0.4678 0.02701,0.071 0.07594,0.1253 0.133063,0.1653 0.03044,0.037 0.06543,0.071 0.108871,0.097 l 1.064502,0.633 c 0.0723,0.059 0.161939,0.093 0.254031,0.092 0.08982,9e-4 0.178175,-0.029 0.249998,-0.085 l 1.072571,-0.6411 c 0.197725,-0.1181 0.265444,-0.3755 0.153225,-0.5766 -0.112207,-0.2012 -0.362754,-0.2674 -0.560494,-0.1493 l -0.915311,0.5444 -0.298383,-0.1774 1.447574,-0.5565 c 0.18728,-0.072 0.281716,-0.2804 0.209676,-0.4677 -0.05404,-0.1405 -0.18551,-0.2294 -0.326614,-0.2338 z"
       inkscape:connector-curvature="0"
       style="fill:#000000;stroke:none;stroke-width:0.28264373999999998;stroke-miterlimit:4;stroke-opacity:1;stroke-dasharray:none;fill-opacity:1" />
    <path
       id="rect4735-0"
       d="m 11.989231,1039.758 c -0.02374,10e-5 -2.5886955,0.01 -2.5886955,2.7098 0,1.7374 1.1790875,2.3813 1.0967785,2.5323 l 0.258063,0.9153 h 0.05646 c -0.200659,0 -0.362912,0.1622 -0.362912,0.3629 0,0.2007 0.16224,0.3629 0.362912,0.3629 h 0.419346 l -0.556447,0.2136 c -0.187279,0.072 -0.281715,0.2846 -0.209675,0.4719 0.07204,0.1872 0.280472,0.2776 0.467736,0.2056 l 2.241922,-0.8629 c 0.02224,-0.01 0.04103,-0.02 0.06048,-0.032 0.0013,-10e-5 0.0028,10e-5 0.004,0 0.187684,-0.014 0.334682,-0.1675 0.334682,-0.3588 0,-0.1952 -0.153758,-0.3544 -0.346773,-0.3629 l 0.258062,-0.9154 c -0.0823,-0.1508 1.09678,-0.7949 1.09678,-2.5322 0,-2.6986 -2.564938,-2.7095 -2.588696,-2.7098 z m -0.927427,0.6291 c -6.9e-5,0 0,0.01 0,0.01 0.131394,-0.032 0.192241,0.1814 0.02136,0.2319 -0.513877,0.1453 -0.819747,0.7963 -0.819747,0.7963 -0.105326,0.1828 -0.303225,0.057 -0.228145,-0.073 0.08793,-0.2383 0.465777,-0.8297 1.026536,-0.9626 z m 1.995951,6.496 c -0.04703,0 -0.09431,0.01 -0.141127,0.024 l -2.241924,0.8628 c -0.187279,0.072 -0.281715,0.2805 -0.209675,0.4678 0.02701,0.071 0.07594,0.1254 0.133063,0.1653 0.03044,0.037 0.06543,0.071 0.108871,0.097 l 1.064503,0.6331 c 0.0723,0.059 0.161938,0.093 0.254031,0.092 0.08982,9e-4 0.178175,-0.029 0.249997,-0.085 l 1.072573,-0.6412 c 0.197724,-0.1181 0.265444,-0.3755 0.153223,-0.5766 -0.112207,-0.2012 -0.362754,-0.2674 -0.560493,-0.1491 l -0.915311,0.5443 -0.298383,-0.1774 1.447574,-0.5565 c 0.187279,-0.072 0.281715,-0.2805 0.209675,-0.4677 -0.05403,-0.1404 -0.185509,-0.2294 -0.326612,-0.2339 z"
       inkscape:connector-curvature="0"
       style="fill:#000000;stroke:none;stroke-width:0.28264373999999998;stroke-miterlimit:4;stroke-opacity:1;stroke-dasharray:none;fill-opacity:1" />
  </g>
</svg>
