<?xml version="1.0" encoding="UTF-8" standalone="no"?>
<!-- Created with Inkscape (http://www.inkscape.org/) -->

<svg
   xmlns:dc="http://purl.org/dc/elements/1.1/"
   xmlns:cc="http://creativecommons.org/ns#"
   xmlns:rdf="http://www.w3.org/1999/02/22-rdf-syntax-ns#"
   xmlns:svg="http://www.w3.org/2000/svg"
   xmlns="http://www.w3.org/2000/svg"
   xmlns:sodipodi="http://sodipodi.sourceforge.net/DTD/sodipodi-0.dtd"
   xmlns:inkscape="http://www.inkscape.org/namespaces/inkscape"
   width="24"
   height="30"
   id="svg3725"
   version="1.1"
   inkscape:version="0.48.3.1 r9886"
   sodipodi:docname="proposal_picto.svg">
  <defs
     id="defs3727">
    <filter
       id="filter3813-7-4-8"
       inkscape:collect="always"
       color-interpolation-filters="sRGB">
      <feGaussianBlur
         id="feGaussianBlur3815-2-8-9"
         stdDeviation="2.6024071"
         inkscape:collect="always" />
    </filter>
  </defs>
  <sodipodi:namedview
     id="base"
     pagecolor="#ffffff"
     bordercolor="#666666"
     borderopacity="1.0"
     inkscape:pageopacity="0.0"
     inkscape:pageshadow="2"
     inkscape:zoom="15.839192"
     inkscape:cx="-3.7753931"
     inkscape:cy="17.330161"
     inkscape:document-units="px"
     inkscape:current-layer="layer1"
     showgrid="false"
     inkscape:window-width="1855"
     inkscape:window-height="1056"
     inkscape:window-x="65"
     inkscape:window-y="24"
     inkscape:window-maximized="1" />
  <metadata
     id="metadata3730">
    <rdf:RDF>
      <cc:Work
         rdf:about="">
        <dc:format>image/svg+xml</dc:format>
        <dc:type
           rdf:resource="http://purl.org/dc/dcmitype/StillImage" />
        <dc:title />
      </cc:Work>
    </rdf:RDF>
  </metadata>
  <g
     inkscape:label="Calque 1"
     inkscape:groupmode="layer"
     id="layer1"
     transform="translate(0,-1022.3622)">
    <path
       style="fill:#ffffff;fill-opacity:0.93656718000000005;fill-rule:nonzero;stroke:#000000;stroke-width:0.33141699000000002;stroke-miterlimit:4;stroke-opacity:1;stroke-dasharray:none"
       d="m 1.402301,1022.654 c -0.2614965,0.8017 -0.055978,1.6926 -0.1176069,2.5358 0,8.9439 0,17.8877 0,26.8314 0.7973363,0.2629 1.683431,0.056 2.5221552,0.1183 6.2884317,0 12.5768537,0 18.8652887,0 0.264437,-0.8007 0.05665,-1.6927 0.118953,-2.5359 0,-6.6084 0,-13.2168 0,-19.8252 -2.677392,-2.3748 -5.354788,-4.7496 -8.032166,-7.1244 -4.452207,0 -8.9044138,0 -13.356624,0 z"
       id="rect2985-5-0-7"
       inkscape:connector-curvature="0" />
    <path
       id="rect4735"
       d="m 14.376681,1032.154 c -0.02727,0 -2.973338,0.011 -2.973338,3.1125 0,1.9955 1.354281,2.7351 1.259744,2.9084 l 0.296407,1.0513 h 0.06485 c -0.230473,0 -0.416836,0.1863 -0.416836,0.4168 0,0.2306 0.186347,0.4169 0.416836,0.4169 h 0.481654 l -0.639125,0.2455 c -0.215107,0.083 -0.323575,0.3268 -0.240831,0.5418 0.08274,0.2152 0.322146,0.3191 0.537234,0.2362 l 2.575042,-0.9911 c 0.02554,-0.012 0.04713,-0.023 0.06947,-0.037 0.0015,0 0.0032,10e-5 0.0046,0 0.215571,-0.016 0.384412,-0.1924 0.384412,-0.4121 0,-0.2241 -0.176604,-0.407 -0.398299,-0.4168 l 0.296407,-1.0513 c -0.09454,-0.1734 1.259745,-0.913 1.259745,-2.9085 0,-3.0997 -2.94605,-3.1122 -2.973339,-3.1124 z m -1.06523,0.7225 c -7.8e-5,0 0,0.012 0,0.012 0.150917,-0.037 0.220805,0.2083 0.02453,0.2665 -0.59023,0.1668 -0.941551,0.9146 -0.941551,0.9146 -0.120974,0.2099 -0.348278,0.065 -0.262042,-0.084 0.100995,-0.2738 0.534984,-0.9532 1.179064,-1.1058 z m 2.292521,7.4613 c -0.05402,0 -0.108323,0.011 -0.162096,0.028 l -2.575041,0.9911 c -0.215107,0.083 -0.323575,0.3222 -0.240831,0.5372 0.03102,0.082 0.08722,0.144 0.152836,0.1899 0.03496,0.043 0.07515,0.08 0.125046,0.1114 l 1.222673,0.7271 c 0.08304,0.068 0.186001,0.1069 0.291776,0.1057 0.103166,0 0.20465,-0.033 0.287145,-0.098 l 1.231939,-0.7365 c 0.227104,-0.1356 0.304887,-0.4312 0.175991,-0.6622 -0.128879,-0.231 -0.416653,-0.3071 -0.643775,-0.1713 l -1.051312,0.6252 -0.34272,-0.2038 1.662664,-0.6391 c 0.215106,-0.083 0.323575,-0.3222 0.240831,-0.5373 -0.06206,-0.1612 -0.213074,-0.2635 -0.375144,-0.2686 z"
       inkscape:connector-curvature="0"
       style="fill:#ffffff;fill-opacity:1;stroke:#000000;stroke-width:0.45943427;stroke-miterlimit:4;stroke-opacity:1;stroke-dasharray:none" />
    <path
       inkscape:connector-curvature="0"
       id="rect3771-7-4-8-1"
       transform="matrix(0.03397641,0,0,0.03397641,1.1509969,1022.5434)"
       d="m 420.53125,42.59375 c 0.654,57.95018 -1.30956,115.93873 0.96875,173.875 71.42106,2.09258 142.90188,0.27586 214.34375,0.875 l -215.3125,-174.75 z"
       style="fill:#4d4d4d;fill-opacity:1;fill-rule:nonzero;stroke:none;filter:url(#filter3813-7-4-8)" />
    <path
       inkscape:connector-curvature="0"
       id="rect3771-8-3-3"
       d="m 14.875067,1022.6553 0,6.7913 c 0.814507,0.2699 1.719737,0.057 2.576509,0.1211 l 5.178084,0 c -2.584792,-2.3043 -5.169789,-4.6081 -7.754593,-6.9124 z"
       style="fill:#000000;fill-opacity:1;fill-rule:nonzero;stroke:none" />
    <path
       id="rect4735-0"
       d="m 9.4650194,1034.4664 c -0.038363,10e-5 -4.1828855,0.016 -4.1828855,4.3785 0,2.8074 1.9052036,3.8478 1.7722054,4.0919 l 0.416986,1.4789 h 0.091232 c -0.3242308,0 -0.5864035,0.2621 -0.5864035,0.5864 0,0.3243 0.262152,0.5864 0.5864035,0.5864 h 0.6775909 l -0.8991232,0.3452 c -0.3026099,0.1163 -0.4552029,0.4598 -0.3387983,0.7624 0.1164045,0.3025 0.453194,0.4486 0.7557808,0.3323 l 3.6225585,-1.3944 c 0.03594,-0.016 0.0663,-0.032 0.09772,-0.052 0.0021,-1e-4 0.0045,3e-4 0.0064,0 0.303264,-0.023 0.540788,-0.2706 0.540788,-0.5797 0,-0.3154 -0.248447,-0.5727 -0.560326,-0.5864 l 0.416984,-1.4791 c -0.132982,-0.2437 1.772208,-1.2844 1.772208,-4.0916 0,-4.3605 -4.1444991,-4.3782 -4.1828871,-4.3786 z m -1.4985606,1.0165 c -1.114e-4,0 0,0.016 0,0.016 0.2123103,-0.052 0.3106281,0.2931 0.034515,0.3747 -0.8303367,0.2347 -1.3245708,1.2867 -1.3245708,1.2867 -0.1701885,0.2953 -0.4899592,0.092 -0.3686429,-0.1179 0.1420797,-0.3851 0.7526162,-1.3408 1.6587067,-1.5554 z m 3.2251112,10.4965 c -0.07599,0 -0.152389,0.016 -0.228037,0.039 l -3.6225618,1.3942 c -0.3026098,0.1163 -0.4552029,0.4532 -0.3387983,0.7559 0.043646,0.1148 0.1227057,0.2026 0.2150072,0.2671 0.049182,0.06 0.1057273,0.1149 0.1759162,0.1567 l 1.720053,1.0231 c 0.1168238,0.095 0.2616639,0.1502 0.4104698,0.1486 0.1451342,0 0.2878998,-0.047 0.4039518,-0.1374 l 1.7330941,-1.036 c 0.319488,-0.1909 0.428912,-0.6068 0.247582,-0.9317 -0.181308,-0.3251 -0.586149,-0.4321 -0.905661,-0.2409 l -1.4789853,0.8795 -0.4821346,-0.2867 2.3390299,-0.8993 c 0.302611,-0.1163 0.455203,-0.4532 0.338799,-0.7556 -0.0873,-0.2269 -0.299751,-0.3707 -0.527749,-0.378 z"
       inkscape:connector-curvature="0"
       style="fill:#ffffff;fill-opacity:1;stroke:#000000;stroke-width:0.45943427;stroke-miterlimit:4;stroke-opacity:1;stroke-dasharray:none" />
  </g>
</svg>
