<?xml version="1.0" encoding="UTF-8" standalone="no"?>
<!-- Created with Inkscape (http://www.inkscape.org/) -->

<svg
   xmlns:dc="http://purl.org/dc/elements/1.1/"
   xmlns:cc="http://creativecommons.org/ns#"
   xmlns:rdf="http://www.w3.org/1999/02/22-rdf-syntax-ns#"
   xmlns:svg="http://www.w3.org/2000/svg"
   xmlns="http://www.w3.org/2000/svg"
   xmlns:xlink="http://www.w3.org/1999/xlink"
   xmlns:sodipodi="http://sodipodi.sourceforge.net/DTD/sodipodi-0.dtd"
   xmlns:inkscape="http://www.inkscape.org/namespaces/inkscape"
   id="svg2"
   version="1.1"
   inkscape:version="0.48.4 r9939"
   width="630"
   height="630"
   sodipodi:docname="user.svg">
  <metadata
     id="metadata8">
    <rdf:RDF>
      <cc:Work
         rdf:about="">
        <dc:format>image/svg+xml</dc:format>
        <dc:type
           rdf:resource="http://purl.org/dc/dcmitype/StillImage" />
        <dc:title />
      </cc:Work>
    </rdf:RDF>
  </metadata>
  <defs
     id="defs6">
    <linearGradient
       inkscape:collect="always"
       id="linearGradient3907">
      <stop
         style="stop-color:#cccccc;stop-opacity:1;"
         offset="0"
         id="stop3909" />
      <stop
         style="stop-color:#cccccc;stop-opacity:0;"
         offset="1"
         id="stop3911" />
    </linearGradient>
    <linearGradient
       inkscape:collect="always"
       xlink:href="#linearGradient3907"
       id="linearGradient3913"
       x1="-404.75031"
       y1="-421.185"
       x2="-397.8486"
       y2="785.69049"
       gradientUnits="userSpaceOnUse" />
    <linearGradient
       inkscape:collect="always"
       xlink:href="#linearGradient3907"
       id="linearGradient3919"
       gradientUnits="userSpaceOnUse"
       x1="-404.75031"
       y1="-421.185"
       x2="-397.8486"
       y2="785.69049" />
  </defs>
  <sodipodi:namedview
     pagecolor="#ffffff"
     bordercolor="#666666"
     borderopacity="1"
     objecttolerance="10"
     gridtolerance="10"
     guidetolerance="10"
     inkscape:pageopacity="0"
     inkscape:pageshadow="2"
     inkscape:window-width="1855"
     inkscape:window-height="1056"
     id="namedview4"
     showgrid="false"
     inkscape:zoom="0.62972528"
     inkscape:cx="316.79743"
     inkscape:cy="283.17976"
     inkscape:window-x="65"
     inkscape:window-y="24"
     inkscape:window-maximized="1"
     inkscape:current-layer="svg2" />
  <rect
     style="fill:#4d4d4d;fill-rule:evenodd;stroke:#000000;stroke-width:1.00754797px;stroke-linecap:butt;stroke-linejoin:miter;stroke-opacity:1"
     id="rect2991"
     width="638.36597"
     height="633.62598"
     x="-3.1722138"
     y="-4.4418159" />
  <g
     id="g3915"
     transform="matrix(0.86610707,0,0,0.81676663,685.72402,86.903776)">
    <path
       sodipodi:nodetypes="cccssccsscscsccccsccsssccccssssssccccccsscccccccsscccc"
       inkscape:connector-curvature="0"
       id="rect2987-6"
       d="m -451.44735,-50.965242 9.7929,12.54611 c -0.445,0.0267 -0.8936,0.0483 -1.3372,0.0787 -8.254,-5.46501 -19.9933,-11.08692 -32.5648,-9.95036 -15.4545,1.39722 -30.5606,7.97804 -46.0155,11.40556 -18.3521,4.07003 11.9087,4.942041 44.3637,4.837531 -0.7927,0.24556 -1.578,0.48932 -2.3598,0.74726 -1.889,-0.19024 -3.8368,-0.24677 -5.86,-0.15732 -21.7102,0.95979 -56.3998,18.58728 -77.4399,16.55772 -14.1844,-1.36823 5.2508,1.57011 29.7725,5.073509 -2.3401,0.82064 -4.7084,1.72747 -7.0401,2.83173 -10.7827,5.10639 -19.9714,12.62561 -27.0193,21.47391 -0.3558,0.23434 -0.7076,0.46597 -1.0619,0.70793 -12.6903,8.6664 -21.8291,20.43421 -25.9968,32.09289 l -0.078,0.11792 c 0,0 -0.038,0.22762 -0.039,0.23598 -2.1009,6.02006 -2.8554,12.01016 -2.1238,17.50163 -0.9853,9.78614 -1.8359,21.79396 -1.3372,31.10965 1.0327,19.297502 5.7027,57.224452 5.7027,57.224452 l 5.5848,32.05355 c -2.3792,-0.51512 -4.7608,-0.61062 -7.0793,-0.15732 -16.344,3.19561 -18.8875,29.76445 -16.0071,62.33728 2.7547,31.15273 30.3701,70.21644 41.768,47.94268 0.3154,-0.61634 1.3573,-0.33602 2.0057,-0.55061 10.3056,32.20155 26.6716,60.195 47.2348,81.45143 l 0,59.66287 -159.7565,41.64996 c -33.182,6.75565 -56.61708,36.01963 -57.9717,71.22575 l -1.93155,50.20024 c -1.54814,40.23556 -8.15038,54.33761 32.11842,54.33761 l 554.59995,0 c 40.2687,0 45.68087,14.41131 43.70772,-25.80354 l -3.8631,-78.73431 c -1.7739,-36.15398 -26.2123,-66.03685 -60.7642,-71.69771 l 0,-0.0787 -156.88534,-40.90269 0,-58.64031 c 21.2633,-21.53881 38.14354,-50.21008 48.65054,-83.29991 0.4431,0.12661 1.0997,-0.0467 1.3372,0.35396 10.6912,18.03417 39.6998,-18.21122 42.5153,-49.35854 2.8803,-31.86623 0.3355,-61.96539 -16.7151,-60.92142 -2.3974,0.14679 -4.8157,0.31455 -7.2367,0.74726 0,0 4.3775,-44.38544 5.8602,-72.44496 1.5859,-11.6687 1.5168,-23.672872 -0.1967,-35.671872 0,-0.0419 0,-0.0763 0,-0.11793 0,-0.0257 0,-0.053 0,-0.0787 -0.6149,-10.05581 -7.4116,-16.22704 -7.4116,-16.22704 l -22.188,-24.94269 c -5.485,-19.64832 51.4424,41.22202 36.8647,24.40917 -13.7616,-15.87161 -30.102,-51.85963 -55.00164,-68.56069 -40.1976,-26.96205 -93.0722,-39.93757 -121.341,-32.07735 l -4.6409,-5.66345 -22.6146,-4.87686 z"
       style="fill:#ffffff;fill-rule:evenodd;stroke:none" />
    <path
       sodipodi:nodetypes="cccssccsscscsccccsccsssccccssssssccccccsscccccccsscccc"
       inkscape:connector-curvature="0"
       id="rect2987"
       d="m -451.77827,-50.941787 9.7929,12.54611 c -0.445,0.0267 -0.8936,0.0483 -1.3372,0.0787 -8.254,-5.46501 -19.9933,-11.08692 -32.5648,-9.95036 -15.4545,1.39722 -30.5606,7.97804 -46.0155,11.40556 -18.3521,4.07003 11.9087,4.942041 44.3637,4.837531 -0.7927,0.24556 -1.578,0.48932 -2.3598,0.74726 -1.889,-0.19024 -3.8368,-0.24677 -5.86,-0.15732 -21.7102,0.95979 -56.3998,18.58728 -77.4399,16.55772 -14.1844,-1.36823 5.2508,1.57011 29.7725,5.0735094 -2.3401,0.82064 -4.7084,1.72747 -7.0401,2.83173 -10.7827,5.10639 -19.9714,12.62561 -27.0193,21.4739096 -0.3558,0.23434 -0.7076,0.46597 -1.0619,0.70793 -12.6903,8.6664 -21.8291,20.43421 -25.9968,32.09289 l -0.078,0.11792 c 0,0 -0.038,0.22762 -0.039,0.23598 -2.1009,6.02006 -2.8554,12.01016 -2.1238,17.50163 -0.9853,9.78614 -1.8359,21.79396 -1.3372,31.10965 1.0327,19.297497 5.7027,57.224447 5.7027,57.224447 l 5.5848,32.05355 c -2.3792,-0.51512 -4.7608,-0.61062 -7.0793,-0.15732 -16.344,3.19561 -18.8875,29.76445 -16.0071,62.33728 2.7547,31.15273 30.3701,70.21644 41.768,47.94268 0.3154,-0.61634 1.3573,-0.33602 2.0057,-0.55061 10.3056,32.20155 26.6716,60.195 47.2348,81.45143 l 0,59.66287 -159.7565,41.64996 c -33.182,6.75565 -57.9717,35.99063 -57.9717,71.22575 l 0,31.85691 c 0,40.26871 32.41446,73.13115 72.681,72.68094 l 546.8737,-6.11444 c 40.266442,-0.45021 28.543082,29.86096 7.00825,-3.38392 l -19.31551,-29.81877 c -19.36026,-29.88783 -8.82834,-131.25757 -43.38024,-136.91843 l 0,-0.0787 -156.8853,-40.90269 0,-58.64031 c 21.2633,-21.53881 38.1435,-50.21008 48.6505,-83.29991 0.4431,0.12661 1.0997,-0.0467 1.3372,0.35396 10.6912,18.03417 39.6998,-18.21122 42.5153,-49.35854 2.8803,-31.86623 0.3355,-61.96539 -16.7151,-60.92142 -2.3974,0.14679 -4.8157,0.31455 -7.2367,0.74726 0,0 4.3775,-44.38544 5.8602,-72.44496 1.5859,-11.6687 1.5168,-23.672867 -0.1967,-35.671867 0,-0.0419 0,-0.0763 0,-0.11793 0,-0.0257 0,-0.053 0,-0.0787 -0.6149,-10.05581 -7.4116,-16.22704 -7.4116,-16.22704 l -22.188,-24.94269 c -5.485,-19.64832 51.4424,41.22202 36.8647,24.40917 -13.7616,-15.87161 -30.102,-51.8596296 -55.0016,-68.5606896 -40.1976,-26.9620504 -93.0722,-39.9375704 -121.341,-32.0773504 l -4.6409,-5.66345 -22.6146,-4.87686 z"
       style="fill:url(#linearGradient3919);fill-opacity:1;fill-rule:evenodd;stroke:none" />
  </g>
</svg>
